<?xml version="1.0"?>
<!DOCTYPE svg PUBLIC "-//W3C//DTD SVG 1.1//EN" "http://www.w3.org/Graphics/SVG/1.1/DTD/svg11.dtd">

<svg xmlns="http://www.w3.org/2000/svg" width="1024" height="768">
<defs>
	<linearGradient id="header_gradient" x1="10%" y1="50%" x2="100%" y2="100%">
		<stop offset="0%" style="stop-color:white; stop-opacity:1"/>
		<stop offset="100%" style="stop-color:lightsteelblue; stop-opacity:0.5"/>
	</linearGradient>
	<linearGradient id="element_gradient" x1="30%" y1="0%" x2="100%" y2="100%">
		<stop offset="0%" style="stop-color:white;stop-opacity:1"/>
		<stop offset="100%" style="stop-color:lightsteelblue;stop-opacity:1"/>
	</linearGradient>
</defs>
		
<style type="text/css">
	<![CDATA[ 
		
		* {
			font-family: Tahoma;
		} 
			
		.header {
			fill:url(#header_gradient);
		}
			
		.header_text {
			fill: black;
		}
			
		.footer {
			fill: none; 
		}
			
		.footer_text {
			fill: grey; 
		}
			
		.element {
			fill: url(#element_gradient); 
			stroke: midnightblue; 
			stroke-width: 1px;
			opacity: 0.75;
		}
			
		.element_detail {
			fill: black;
		}
			
		.element_detail_underline {
			stroke: black; 
			stroke-width: 1px;
		}
			
		.element_header {
			fill: black; 
		}
			
		.connector {
			fill: white; 
			stroke: dimgrey; 
			stroke-width: 1px;
		}
		
		.connector_text {
			fill: black; 
		}
		
		.connector_text_background {
			fill: white; 
			stroke: white;
			opacity: 0.9;
		}
		
		.history {
			fill: none;
			stroke: lightgrey;
			stroke-width: 1px;
		}
		 
	]]>
</style>


<line x1="790" y1="279" x2="796" y2="260" class="connector"/>
<line x1="778" y1="269" x2="796" y2="260" class="connector"/>


		<polygon points="790,279 778,269 796,260" 
			class="connector"/>
	

<line x1="734" y1="331" x2="784" y2="274" class="connector"/>




<line x1="463" y1="466" x2="448" y2="479" class="connector"/>
<line x1="468" y1="480" x2="448" y2="479" class="connector"/>

	

<line x1="616" y1="419" x2="448" y2="479" class="connector"/>

	
		<rect x="597" y="414" 
			width="7" height="12" class="connector_text_background"/>
		<text x="597" y="426" class="connector_text" 
			font-size="12">1</text>
	
		<rect x="478" y="456" 
			width="22" height="12" class="connector_text_background"/>
		<text x="478" y="468" class="connector_text" 
			font-size="12">0..n</text>



<line x1="442" y1="295" x2="422" y2="295" class="connector"/>
<line x1="436" y1="309" x2="422" y2="295" class="connector"/>

	

<line x1="616" y1="374" x2="422" y2="295" class="connector"/>

	
		<rect x="597" y="354" 
			width="7" height="12" class="connector_text_background"/>
		<text x="597" y="366" class="connector_text" 
			font-size="12">1</text>
	
		<rect x="452" y="295" 
			width="22" height="12" class="connector_text_background"/>
		<text x="452" y="307" class="connector_text" 
			font-size="12">0..n</text>



<line x1="260" y1="604" x2="250" y2="622" class="connector"/>
<line x1="269" y1="616" x2="250" y2="622" class="connector"/>


		<polygon points="260,604 269,616 250,622" 
			class="connector"/>
	

<line x1="382" y1="512" x2="265" y2="610" class="connector"/>




<line x1="412" y1="142" x2="407" y2="123" class="connector"/>
<line x1="397" y1="139" x2="407" y2="123" class="connector"/>


		<polygon points="412,142 397,139 407,123" 
			class="connector"/>
	

<line x1="384" y1="262" x2="404" y2="141" class="connector"/>




<line x1="391" y1="462" x2="400" y2="479" class="connector"/>
<line x1="406" y1="460" x2="400" y2="479" class="connector"/>

	

<line x1="383" y1="295" x2="400" y2="479" class="connector"/>

	
		<rect x="385" y="303" 
			width="7" height="12" class="connector_text_background"/>
		<text x="385" y="315" class="connector_text" 
			font-size="12">1</text>
	
		<rect x="397" y="435" 
			width="7" height="12" class="connector_text_background"/>
		<text x="397" y="447" class="connector_text" 
			font-size="12">2</text>



<line x1="753" y1="407" x2="734" y2="411" class="connector"/>
<line x1="750" y1="422" x2="734" y2="411" class="connector"/>


		<polygon points="753,407 750,422 734,411" 
			class="connector"/>
	

<line x1="925" y1="452" x2="752" y2="415" class="connector"/>




<line x1="434" y1="521" x2="417" y2="512" class="connector"/>
<line x1="423" y1="531" x2="417" y2="512" class="connector"/>


		<polygon points="434,521 423,531 417,512" 
			class="connector"/>
	

<line x1="550" y1="663" x2="429" y2="526" class="connector"/>




<line x1="299" y1="276" x2="318" y2="271" class="connector"/>
<line x1="301" y1="261" x2="318" y2="271" class="connector"/>


		<polygon points="299,276 301,261 318,271" 
			class="connector"/>
	

<line x1="113" y1="245" x2="300" y2="269" class="connector"/>


	

<rect name="Graph" x="796" y="71" width="152" height="205" rx="2" class="element"/>
<line x1="796" y1="92" x2="948" y2="92" class="element"/>


<text x="801" y="87" font-size="14" class="element_header">Graph</text>
<text x="801" y="106" class="element_detail" font-size="12">getEdges()</text>

<text x="801" y="121" class="element_detail" font-size="12">getVertexes()</text>

<text x="801" y="136" class="element_detail" font-size="12">getEdgeLengths()</text>

<text x="801" y="151" class="element_detail" font-size="12">getSumEdgeLengths()</text>

<text x="801" y="166" class="element_detail" font-size="12">getSize()</text>

<text x="801" y="181" class="element_detail" font-size="12">recalcSize()</text>

<text x="801" y="196" class="element_detail" font-size="12">setRequestedSize()</text>

<text x="801" y="211" class="element_detail" font-size="12">rebase()</text>

<text x="801" y="226" class="element_detail" font-size="12">rescale()</text>

<text x="801" y="241" class="element_detail" font-size="12">rescaleToRequestedSize()</text>

<text x="801" y="256" class="element_detail" font-size="12">getArea()</text>

<text x="801" y="271" class="element_detail" font-size="12">addPositionToHistory()</text>

	

<rect name="Edge" x="365" y="8" width="103" height="115" rx="2" class="element"/>
<line x1="365" y1="29" x2="468" y2="29" class="element"/>


<text x="370" y="24" font-size="14" class="element_header">Edge</text>
<text x="370" y="43" class="element_detail" font-size="12">getStartVertex()</text>

<text x="370" y="58" class="element_detail" font-size="12">getEndVertex()</text>

<text x="370" y="73" class="element_detail" font-size="12">getLength()</text>

<text x="370" y="88" class="element_detail" font-size="12">tan()</text>

<text x="370" y="103" class="element_detail" font-size="12">sin()</text>

<text x="370" y="118" class="element_detail" font-size="12">cos()</text>

	

<rect name="Vertex" x="116" y="613" width="134" height="130" rx="2" class="element"/>
<line x1="116" y1="634" x2="250" y2="634" class="element"/>


<text x="121" y="629" font-size="14" class="element_header">Vertex</text>
<text x="121" y="648" class="element_detail" font-size="12">getPosition()</text>

<text x="121" y="663" class="element_detail" font-size="12">getCenterPosition()</text>

<text x="121" y="678" class="element_detail" font-size="12">getAltPosition()</text>

<text x="121" y="693" class="element_detail" font-size="12">getSize()</text>

<text x="121" y="708" class="element_detail" font-size="12">getPosHistory()</text>

<text x="121" y="723" class="element_detail" font-size="12">addPositionToHistory()</text>

<text x="121" y="738" class="element_detail" font-size="12">tan()</text>

	

<rect name="AbstractDiagram" x="616" y="323" width="118" height="149" rx="2" class="element"/>
<line x1="616" y1="344" x2="734" y2="344" class="element"/>


	<line x1="616" y1="378" x2="734" y2="378" class="element"/>

<text x="621" y="339" font-size="14" class="element_header">AbstractDiagram</text>
<text x="621" y="392" class="element_detail" font-size="12">removeMePlease1()</text>

<text x="621" y="407" class="element_detail" font-size="12">staticGarbage0()</text>

		<line x1="621" y1="409" x2="712" y2="409" class="element_detail_underline"/>

<text x="621" y="422" class="element_detail" font-size="12">removeMePlease2()</text>

<text x="621" y="437" class="element_detail" font-size="12">removeMePlease3()</text>

<text x="621" y="452" class="element_detail" font-size="12">staticGarbage1()</text>

		<line x1="621" y1="454" x2="712" y2="454" class="element_detail_underline"/>

<text x="621" y="467" class="element_detail" font-size="12">staticGarbage2()</text>

		<line x1="621" y1="469" x2="712" y2="469" class="element_detail_underline"/>

<text x="621" y="358" class="element_detail" font-size="12">width</text>

<text x="621" y="373" class="element_detail" font-size="12">height</text>

	

<rect name="AbstractElement" x="347" y="479" width="110" height="33" rx="2" class="element"/>
<line x1="347" y1="500" x2="457" y2="500" class="element"/>


<text x="352" y="495" font-size="14" class="element_header">AbstractElement</text>
	

<rect name="AbstractConnector" x="318" y="262" width="126" height="33" rx="2" class="element"/>
<line x1="318" y1="283" x2="444" y2="283" class="element"/>


<text x="323" y="278" font-size="14" class="element_header">AbstractConnector</text>
	

<rect name="ClassDiagram" x="925" y="446" width="91" height="33" rx="2" class="element"/>
<line x1="925" y1="467" x2="1016" y2="467" class="element"/>


<text x="930" y="462" font-size="14" class="element_header">ClassDiagram</text>
	

<rect name="ClassElement" x="520" y="663" width="89" height="33" rx="2" class="element"/>
<line x1="520" y1="684" x2="609" y2="684" class="element"/>


<text x="525" y="679" font-size="14" class="element_header">ClassElement</text>
	

<rect name="ClassConnector" x="8" y="222" width="105" height="33" rx="2" class="element"/>
<line x1="8" y1="243" x2="113" y2="243" class="element"/>


<text x="13" y="238" font-size="14" class="element_header">ClassConnector</text>
	

<rect x="0" 
	y="755" 
	width="1024" 
	height="13" 
	class="footer"/>
	
<text x="5" 
	y="763" 
	font-size="10" 
	class="footer_text">Created by ModSL in 671 milliseconds (20, 30, 621). Layout (842.39996,781.4456) -> Final (1024.0,768.0).</text>

</svg>

