<?xml version="1.0"?>
<!DOCTYPE svg PUBLIC "-//W3C//DTD SVG 1.1//EN" "http://www.w3.org/Graphics/SVG/1.1/DTD/svg11.dtd">

<svg xmlns="http://www.w3.org/2000/svg" width="1024" height="768">
<defs>
	<linearGradient id="header_gradient" x1="10%" y1="50%" x2="100%" y2="100%">
		<stop offset="0%" style="stop-color:white; stop-opacity:1"/>
		<stop offset="100%" style="stop-color:lightsteelblue; stop-opacity:0.5"/>
	</linearGradient>
	<linearGradient id="element_gradient" x1="30%" y1="0%" x2="100%" y2="100%">
		<stop offset="0%" style="stop-color:white;stop-opacity:1"/>
		<stop offset="100%" style="stop-color:lightsteelblue;stop-opacity:1"/>
	</linearGradient>
</defs>
		
<style type="text/css">
	<![CDATA[ 
		
		* {
			font-family: Tahoma;
		} 
			
		.header {
			fill:url(#header_gradient);
		}
			
		.header_text {
			fill: black;
		}
			
		.footer {
			fill: none; 
		}
			
		.footer_text {
			fill: grey; 
		}
			
		.element {
			fill: url(#element_gradient); 
			stroke: midnightblue; 
			stroke-width: 1px;
			opacity: 0.75;
		}
			
		.element_detail {
			fill: black;
		}
			
		.element_detail_underline {
			stroke: black; 
			stroke-width: 1px;
		}
			
		.element_header {
			fill: black; 
		}
			
		.connector {
			fill: white; 
			stroke: dimgrey; 
			stroke-width: 1px;
		}
		
		.connector_text {
			fill: black; 
		}
		
		.connector_text_background {
			fill: white; 
			stroke: white;
			opacity: 0.9;
		}
		
		.history {
			fill: none;
			stroke: lightgrey;
			stroke-width: 1px;
		}
		 
	]]>
</style>


<line x1="571" y1="193" x2="553" y2="185" class="connector"/>
<line x1="560" y1="204" x2="553" y2="185" class="connector"/>


		<polygon points="571,193 560,204 553,185" 
			class="connector"/>
	

<line x1="652" y1="284" x2="566" y2="199" class="connector"/>




<line x1="409" y1="383" x2="392" y2="393" class="connector"/>
<line x1="412" y1="398" x2="392" y2="393" class="connector"/>

	

<line x1="652" y1="352" x2="392" y2="393" class="connector"/>

	
		<rect x="632" y="343" 
			width="7" height="12" class="connector_text_background"/>
		<text x="632" y="355" class="connector_text" 
			font-size="12">1</text>
	
		<rect x="424" y="376" 
			width="22" height="12" class="connector_text_background"/>
		<text x="424" y="388" class="connector_text" 
			font-size="12">0..n</text>



<line x1="610" y1="508" x2="608" y2="528" class="connector"/>
<line x1="624" y1="515" x2="608" y2="528" class="connector"/>

	

<line x1="669" y1="417" x2="608" y2="528" class="connector"/>

	
		<rect x="660" y="423" 
			width="7" height="12" class="connector_text_background"/>
		<text x="660" y="435" class="connector_text" 
			font-size="12">1</text>
	
		<rect x="624" y="487" 
			width="22" height="12" class="connector_text_background"/>
		<text x="624" y="499" class="connector_text" 
			font-size="12">0..n</text>



<line x1="165" y1="282" x2="146" y2="278" class="connector"/>
<line x1="157" y1="295" x2="146" y2="278" class="connector"/>


		<polygon points="165,282 157,295 146,278" 
			class="connector"/>
	

<line x1="312" y1="385" x2="161" y2="288" class="connector"/>




<line x1="893" y1="603" x2="913" y2="599" class="connector"/>
<line x1="896" y1="588" x2="913" y2="599" class="connector"/>


		<polygon points="893,603 896,588 913,599" 
			class="connector"/>
	

<line x1="662" y1="555" x2="894" y2="595" class="connector"/>




<line x1="387" y1="421" x2="368" y2="418" class="connector"/>
<line x1="380" y1="434" x2="368" y2="418" class="connector"/>

	

<line x1="569" y1="528" x2="368" y2="418" class="connector"/>

	
		<rect x="551" y="506" 
			width="7" height="12" class="connector_text_background"/>
		<text x="551" y="518" class="connector_text" 
			font-size="12">1</text>
	
		<rect x="396" y="422" 
			width="7" height="12" class="connector_text_background"/>
		<text x="396" y="434" class="connector_text" 
			font-size="12">2</text>



<line x1="776" y1="253" x2="770" y2="272" class="connector"/>
<line x1="787" y1="263" x2="770" y2="272" class="connector"/>


		<polygon points="776,253 787,263 770,272" 
			class="connector"/>
	

<line x1="876" y1="145" x2="782" y2="258" class="connector"/>




<line x1="281" y1="432" x2="295" y2="418" class="connector"/>
<line x1="275" y1="418" x2="295" y2="418" class="connector"/>


		<polygon points="281,432 275,418 295,418" 
			class="connector"/>
	

<line x1="94" y1="497" x2="278" y2="425" class="connector"/>




<line x1="585" y1="580" x2="589" y2="561" class="connector"/>
<line x1="572" y1="572" x2="589" y2="561" class="connector"/>


		<polygon points="585,580 572,572 589,561" 
			class="connector"/>
	

<line x1="495" y1="710" x2="579" y2="576" class="connector"/>


	

<rect name="Graph" x="401" y="8" width="152" height="205" rx="2" class="element"/>
<line x1="401" y1="29" x2="553" y2="29" class="element"/>


<text x="406" y="24" font-size="14" class="element_header">Graph</text>
<text x="406" y="43" class="element_detail" font-size="12">getEdges()</text>

<text x="406" y="58" class="element_detail" font-size="12">getVertexes()</text>

<text x="406" y="73" class="element_detail" font-size="12">getEdgeLengths()</text>

<text x="406" y="88" class="element_detail" font-size="12">getSumEdgeLengths()</text>

<text x="406" y="103" class="element_detail" font-size="12">getSize()</text>

<text x="406" y="118" class="element_detail" font-size="12">recalcSize()</text>

<text x="406" y="133" class="element_detail" font-size="12">setRequestedSize()</text>

<text x="406" y="148" class="element_detail" font-size="12">rebase()</text>

<text x="406" y="163" class="element_detail" font-size="12">rescale()</text>

<text x="406" y="178" class="element_detail" font-size="12">rescaleToRequestedSize()</text>

<text x="406" y="193" class="element_detail" font-size="12">getArea()</text>

<text x="406" y="208" class="element_detail" font-size="12">addPositionToHistory()</text>

	

<rect name="Edge" x="913" y="550" width="103" height="115" rx="2" class="element"/>
<line x1="913" y1="571" x2="1016" y2="571" class="element"/>


<text x="918" y="566" font-size="14" class="element_header">Edge</text>
<text x="918" y="585" class="element_detail" font-size="12">getStartVertex()</text>

<text x="918" y="600" class="element_detail" font-size="12">getEndVertex()</text>

<text x="918" y="615" class="element_detail" font-size="12">getLength()</text>

<text x="918" y="630" class="element_detail" font-size="12">tan()</text>

<text x="918" y="645" class="element_detail" font-size="12">sin()</text>

<text x="918" y="660" class="element_detail" font-size="12">cos()</text>

	

<rect name="Vertex" x="12" y="170" width="134" height="130" rx="2" class="element"/>
<line x1="12" y1="191" x2="146" y2="191" class="element"/>


<text x="17" y="186" font-size="14" class="element_header">Vertex</text>
<text x="17" y="205" class="element_detail" font-size="12">getPosition()</text>

<text x="17" y="220" class="element_detail" font-size="12">getCenterPosition()</text>

<text x="17" y="235" class="element_detail" font-size="12">getAltPosition()</text>

<text x="17" y="250" class="element_detail" font-size="12">getSize()</text>

<text x="17" y="265" class="element_detail" font-size="12">getPosHistory()</text>

<text x="17" y="280" class="element_detail" font-size="12">addPositionToHistory()</text>

<text x="17" y="295" class="element_detail" font-size="12">tan()</text>

	

<rect name="AbstractDiagram" x="652" y="268" width="118" height="149" rx="2" class="element"/>
<line x1="652" y1="289" x2="770" y2="289" class="element"/>


	<line x1="652" y1="323" x2="770" y2="323" class="element"/>

<text x="657" y="284" font-size="14" class="element_header">AbstractDiagram</text>
<text x="657" y="337" class="element_detail" font-size="12">removeMePlease1()</text>

<text x="657" y="352" class="element_detail" font-size="12">staticGarbage0()</text>

		<line x1="657" y1="354" x2="748" y2="354" class="element_detail_underline"/>

<text x="657" y="367" class="element_detail" font-size="12">removeMePlease2()</text>

<text x="657" y="382" class="element_detail" font-size="12">removeMePlease3()</text>

<text x="657" y="397" class="element_detail" font-size="12">staticGarbage1()</text>

		<line x1="657" y1="399" x2="748" y2="399" class="element_detail_underline"/>

<text x="657" y="412" class="element_detail" font-size="12">staticGarbage2()</text>

		<line x1="657" y1="414" x2="748" y2="414" class="element_detail_underline"/>

<text x="657" y="303" class="element_detail" font-size="12">width</text>

<text x="657" y="318" class="element_detail" font-size="12">height</text>

	

<rect name="AbstractElement" x="282" y="385" width="110" height="33" rx="2" class="element"/>
<line x1="282" y1="406" x2="392" y2="406" class="element"/>


<text x="287" y="401" font-size="14" class="element_header">AbstractElement</text>
	

<rect name="AbstractConnector" x="536" y="528" width="126" height="33" rx="2" class="element"/>
<line x1="536" y1="549" x2="662" y2="549" class="element"/>


<text x="541" y="544" font-size="14" class="element_header">AbstractConnector</text>
	

<rect name="ClassDiagram" x="844" y="112" width="91" height="33" rx="2" class="element"/>
<line x1="844" y1="133" x2="935" y2="133" class="element"/>


<text x="849" y="128" font-size="14" class="element_header">ClassDiagram</text>
	

<rect name="ClassElement" x="8" y="497" width="89" height="33" rx="2" class="element"/>
<line x1="8" y1="518" x2="97" y2="518" class="element"/>


<text x="13" y="513" font-size="14" class="element_header">ClassElement</text>
	

<rect name="ClassConnector" x="432" y="710" width="105" height="33" rx="2" class="element"/>
<line x1="432" y1="731" x2="537" y2="731" class="element"/>


<text x="437" y="726" font-size="14" class="element_header">ClassConnector</text>
	

<rect x="0" 
	y="755" 
	width="1024" 
	height="13" 
	class="footer"/>
	
<text x="5" 
	y="763" 
	font-size="10" 
	class="footer_text">Created by ModSL in 631 milliseconds (10, 30, 591). Layout (778.4238,800.23566) -> Final (1024.0,768.0).</text>

</svg>

