<?xml version="1.0"?>
<!DOCTYPE svg PUBLIC "-//W3C//DTD SVG 1.1//EN" "http://www.w3.org/Graphics/SVG/1.1/DTD/svg11.dtd">

<svg xmlns="http://www.w3.org/2000/svg" width="1024" height="768">
<defs>
	<linearGradient id="header_gradient" x1="10%" y1="50%" x2="100%" y2="100%">
		<stop offset="0%" style="stop-color:white; stop-opacity:1"/>
		<stop offset="100%" style="stop-color:lightsteelblue; stop-opacity:0.5"/>
	</linearGradient>
	<linearGradient id="element_gradient" x1="30%" y1="0%" x2="100%" y2="100%">
		<stop offset="0%" style="stop-color:white;stop-opacity:1"/>
		<stop offset="100%" style="stop-color:lightsteelblue;stop-opacity:1"/>
	</linearGradient>
</defs>
		
<style type="text/css">
	<![CDATA[ 
		
		* {
			font-family: Tahoma;
		} 
			
		.header {
			fill:url(#header_gradient);
		}
			
		.header_text {
			fill: black;
		}
			
		.footer {
			fill: none; 
		}
			
		.footer_text {
			fill: grey; 
		}
			
		.element {
			fill: url(#element_gradient); 
			stroke: midnightblue; 
			stroke-width: 1px;
			opacity: 0.75;
		}
			
		.element_detail {
			fill: black;
		}
			
		.element_detail_underline {
			stroke: black; 
			stroke-width: 1px;
		}
			
		.element_header {
			fill: black; 
		}
			
		.connector {
			fill: white; 
			stroke: dimgrey; 
			stroke-width: 1px;
		}
		
		.connector_text {
			fill: black; 
		}
		
		.connector_text_background {
			fill: white; 
			stroke: white;
			opacity: 0.9;
		}
		
		.history {
			fill: none;
			stroke: lightgrey;
			stroke-width: 1px;
		}
		 
	]]>
</style>


<line x1="524" y1="183" x2="505" y2="177" class="connector"/>
<line x1="514" y1="195" x2="505" y2="177" class="connector"/>


		<polygon points="524,183 514,195 505,177" 
			class="connector"/>
	

<line x1="623" y1="281" x2="519" y2="189" class="connector"/>




<line x1="600" y1="503" x2="600" y2="523" class="connector"/>
<line x1="614" y1="509" x2="600" y2="523" class="connector"/>

	

<line x1="650" y1="407" x2="600" y2="523" class="connector"/>

	
		<rect x="642" y="414" 
			width="7" height="12" class="connector_text_background"/>
		<text x="642" y="426" class="connector_text" 
			font-size="12">1</text>
	
		<rect x="613" y="482" 
			width="22" height="12" class="connector_text_background"/>
		<text x="613" y="494" class="connector_text" 
			font-size="12">0..n</text>



<line x1="405" y1="380" x2="388" y2="391" class="connector"/>
<line x1="408" y1="395" x2="388" y2="391" class="connector"/>

	

<line x1="623" y1="344" x2="388" y2="391" class="connector"/>

	
		<rect x="603" y="336" 
			width="7" height="12" class="connector_text_background"/>
		<text x="603" y="348" class="connector_text" 
			font-size="12">1</text>
	
		<rect x="420" y="372" 
			width="22" height="12" class="connector_text_background"/>
		<text x="420" y="384" class="connector_text" 
			font-size="12">0..n</text>



<line x1="862" y1="590" x2="882" y2="586" class="connector"/>
<line x1="864" y1="575" x2="882" y2="586" class="connector"/>


		<polygon points="862,590 864,575 882,586" 
			class="connector"/>
	

<line x1="648" y1="549" x2="863" y2="583" class="connector"/>




<line x1="130" y1="292" x2="111" y2="290" class="connector"/>
<line x1="123" y1="305" x2="111" y2="290" class="connector"/>


		<polygon points="130,292 123,305 111,290" 
			class="connector"/>
	

<line x1="294" y1="387" x2="127" y2="299" class="connector"/>




<line x1="540" y1="522" x2="560" y2="523" class="connector"/>
<line x1="547" y1="508" x2="560" y2="523" class="connector"/>

	

<line x1="357" y1="420" x2="560" y2="523" class="connector"/>

	
		<rect x="375" y="417" 
			width="7" height="12" class="connector_text_background"/>
		<text x="375" y="429" class="connector_text" 
			font-size="12">1</text>
	
		<rect x="532" y="497" 
			width="7" height="12" class="connector_text_background"/>
		<text x="532" y="509" class="connector_text" 
			font-size="12">2</text>



<line x1="741" y1="239" x2="736" y2="258" class="connector"/>
<line x1="753" y1="248" x2="736" y2="258" class="connector"/>


		<polygon points="741,239 753,248 736,258" 
			class="connector"/>
	

<line x1="827" y1="132" x2="747" y2="243" class="connector"/>




<line x1="581" y1="576" x2="584" y2="556" class="connector"/>
<line x1="568" y1="569" x2="584" y2="556" class="connector"/>


		<polygon points="581,576 568,569 584,556" 
			class="connector"/>
	

<line x1="498" y1="710" x2="575" y2="572" class="connector"/>




<line x1="282" y1="435" x2="294" y2="420" class="connector"/>
<line x1="274" y1="422" x2="294" y2="420" class="connector"/>


		<polygon points="282,435 274,422 294,420" 
			class="connector"/>
	

<line x1="108" y1="520" x2="278" y2="428" class="connector"/>


	

<rect name="Graph" x="353" y="8" width="152" height="205" rx="2" class="element"/>
<line x1="353" y1="29" x2="505" y2="29" class="element"/>


<text x="358" y="24" font-size="14" class="element_header">Graph</text>
<text x="358" y="43" class="element_detail" font-size="12">getEdges()</text>

<text x="358" y="58" class="element_detail" font-size="12">getVertexes()</text>

<text x="358" y="73" class="element_detail" font-size="12">getEdgeLengths()</text>

<text x="358" y="88" class="element_detail" font-size="12">getSumEdgeLengths()</text>

<text x="358" y="103" class="element_detail" font-size="12">getSize()</text>

<text x="358" y="118" class="element_detail" font-size="12">recalcSize()</text>

<text x="358" y="133" class="element_detail" font-size="12">setRequestedSize()</text>

<text x="358" y="148" class="element_detail" font-size="12">rebase()</text>

<text x="358" y="163" class="element_detail" font-size="12">rescale()</text>

<text x="358" y="178" class="element_detail" font-size="12">rescaleToRequestedSize()</text>

<text x="358" y="193" class="element_detail" font-size="12">getArea()</text>

<text x="358" y="208" class="element_detail" font-size="12">addPositionToHistory()</text>

	

<rect name="Edge" x="8" y="205" width="103" height="115" rx="2" class="element"/>
<line x1="8" y1="226" x2="111" y2="226" class="element"/>


<text x="13" y="221" font-size="14" class="element_header">Edge</text>
<text x="13" y="240" class="element_detail" font-size="12">getStartVertex()</text>

<text x="13" y="255" class="element_detail" font-size="12">getEndVertex()</text>

<text x="13" y="270" class="element_detail" font-size="12">getLength()</text>

<text x="13" y="285" class="element_detail" font-size="12">tan()</text>

<text x="13" y="300" class="element_detail" font-size="12">sin()</text>

<text x="13" y="315" class="element_detail" font-size="12">cos()</text>

	

<rect name="Vertex" x="882" y="532" width="134" height="130" rx="2" class="element"/>
<line x1="882" y1="553" x2="1016" y2="553" class="element"/>


<text x="887" y="548" font-size="14" class="element_header">Vertex</text>
<text x="887" y="567" class="element_detail" font-size="12">getPosition()</text>

<text x="887" y="582" class="element_detail" font-size="12">getCenterPosition()</text>

<text x="887" y="597" class="element_detail" font-size="12">getAltPosition()</text>

<text x="887" y="612" class="element_detail" font-size="12">getSize()</text>

<text x="887" y="627" class="element_detail" font-size="12">getPosHistory()</text>

<text x="887" y="642" class="element_detail" font-size="12">addPositionToHistory()</text>

<text x="887" y="657" class="element_detail" font-size="12">tan()</text>

	

<rect name="AbstractDiagram" x="623" y="258" width="118" height="149" rx="2" class="element"/>
<line x1="623" y1="279" x2="741" y2="279" class="element"/>


	<line x1="623" y1="313" x2="741" y2="313" class="element"/>

<text x="628" y="274" font-size="14" class="element_header">AbstractDiagram</text>
<text x="628" y="327" class="element_detail" font-size="12">removeMePlease1()</text>

<text x="628" y="342" class="element_detail" font-size="12">staticGarbage0()</text>

		<line x1="628" y1="344" x2="719" y2="344" class="element_detail_underline"/>

<text x="628" y="357" class="element_detail" font-size="12">removeMePlease2()</text>

<text x="628" y="372" class="element_detail" font-size="12">removeMePlease3()</text>

<text x="628" y="387" class="element_detail" font-size="12">staticGarbage1()</text>

		<line x1="628" y1="389" x2="719" y2="389" class="element_detail_underline"/>

<text x="628" y="402" class="element_detail" font-size="12">staticGarbage2()</text>

		<line x1="628" y1="404" x2="719" y2="404" class="element_detail_underline"/>

<text x="628" y="293" class="element_detail" font-size="12">width</text>

<text x="628" y="308" class="element_detail" font-size="12">height</text>

	

<rect name="AbstractElement" x="538" y="523" width="110" height="33" rx="2" class="element"/>
<line x1="538" y1="544" x2="648" y2="544" class="element"/>


<text x="543" y="539" font-size="14" class="element_header">AbstractElement</text>
	

<rect name="AbstractConnector" x="262" y="387" width="126" height="33" rx="2" class="element"/>
<line x1="262" y1="408" x2="388" y2="408" class="element"/>


<text x="267" y="403" font-size="14" class="element_header">AbstractConnector</text>
	

<rect name="ClassDiagram" x="794" y="99" width="91" height="33" rx="2" class="element"/>
<line x1="794" y1="120" x2="885" y2="120" class="element"/>


<text x="799" y="115" font-size="14" class="element_header">ClassDiagram</text>
	

<rect name="ClassElement" x="444" y="710" width="89" height="33" rx="2" class="element"/>
<line x1="444" y1="731" x2="533" y2="731" class="element"/>


<text x="449" y="726" font-size="14" class="element_header">ClassElement</text>
	

<rect name="ClassConnector" x="25" y="520" width="105" height="33" rx="2" class="element"/>
<line x1="25" y1="541" x2="130" y2="541" class="element"/>


<text x="30" y="536" font-size="14" class="element_header">ClassConnector</text>
	

<rect x="0" 
	y="755" 
	width="1024" 
	height="13" 
	class="footer"/>
	
<text x="5" 
	y="763" 
	font-size="10" 
	class="footer_text">Created by ModSL in 1021 milliseconds (10, 30, 981). Layout (816.497,809.0217) -> Final (1024.0,768.0).</text>

</svg>

