<?xml version="1.0"?>
<!DOCTYPE svg PUBLIC "-//W3C//DTD SVG 1.1//EN" "http://www.w3.org/Graphics/SVG/1.1/DTD/svg11.dtd">

<svg xmlns="http://www.w3.org/2000/svg" width="1024" height="768">
	<defs>
		<linearGradient id="header_gradient" x1="10%" y1="50%" x2="100%" y2="100%">
			<stop offset="0%" style="stop-color:white; stop-opacity:1"/>
			<stop offset="100%" style="stop-color:lightsteelblue; stop-opacity:0.5"/>
		</linearGradient>
		<linearGradient id="element_gradient" x1="30%" y1="0%" x2="100%" y2="100%">
			<stop offset="0%" style="stop-color:white;stop-opacity:1"/>
			<stop offset="100%" style="stop-color:lightsteelblue;stop-opacity:1"/>
		</linearGradient>
	</defs>
		
	<style type="text/css">
		<![CDATA[ 
		
			* {
				font-family: Tahoma, Verdana, Arial;
			} 
			
			.header {
				fill:url(#header_gradient);
			}
			
			.header_text {
				fill: black;
			}
			
			.footer {
				fill: none; 
			}
			
			.footer_text {
				fill: grey; 
			}
			
			.element {
				fill: url(#element_gradient); 
				stroke: midnightblue; 
				stroke-width: 1px;
				opacity: 0.75;
			}
			
			.element_detail {
				fill: black;
			}
			
			.element_detail_underline {
				stroke: black; 
				stroke-width: 1px;
			}
			
			.element_header {
				fill: black; 
			}
			
			.connector {
				fill: white; 
				stroke: dimgrey; 
				stroke-width: 1px;
			}
			
			.connector_text {
				fill: black; 
			}
			
			.connector_text_background {
				fill: white; 
				stroke: white;
				opacity: 0.9;
			}
			
			.history {
				fill: none;
				stroke: lightgrey;
				stroke-width: 1px;
			}
			 
		]]>
	</style>

	<line x1="337" y1="254" x2="328" y2="237" class="connector"/>
	<line x1="322" y1="256" x2="328" y2="237" class="connector"/>
	<polygon points="337,254 322,256 328,237" class="connector"/>
	<line x1="335" y1="313" x2="329" y2="255" class="connector"/>

	<line x1="595" y1="326" x2="611" y2="313" class="connector"/>
	<line x1="591" y1="311" x2="611" y2="313" class="connector"/>
	<line x1="408" y1="372" x2="611" y2="313" class="connector"/>
	<rect x="428" y="354" width="7" height="12" class="connector_text_background"/>
	<text x="428" y="366" class="connector_text" font-size="12">1</text>
	<rect x="580" y="310" width="20" height="12" class="connector_text_background"/>
	<text x="580" y="322" class="connector_text" font-size="12">0..n</text>

	<line x1="538" y1="491" x2="558" y2="492" class="connector"/>
	<line x1="544" y1="477" x2="558" y2="492" class="connector"/>
	<line x1="408" y1="421" x2="558" y2="492" class="connector"/>
	<rect x="427" y="418" width="7" height="12" class="connector_text_background"/>
	<text x="427" y="430" class="connector_text" font-size="12">1</text>
	<rect x="528" y="466" width="20" height="12" class="connector_text_background"/>
	<text x="528" y="478" class="connector_text" font-size="12">0..n</text>

	<line x1="701" y1="161" x2="697" y2="142" class="connector"/>
	<line x1="686" y1="158" x2="697" y2="142" class="connector"/>
	<polygon points="701,161 686,158 697,142" class="connector"/>
	<line x1="670" y1="281" x2="693" y2="160" class="connector"/>

	<line x1="722" y1="630" x2="741" y2="637" class="connector"/>
	<line x1="732" y1="619" x2="741" y2="637" class="connector"/>
	<polygon points="722,630 732,619 741,637" class="connector"/>
	<line x1="610" y1="524" x2="727" y2="625" class="connector"/>

	<line x1="662" y1="333" x2="661" y2="313" class="connector"/>
	<line x1="647" y1="328" x2="661" y2="313" class="connector"/>
	<line x1="597" y1="492" x2="661" y2="313" class="connector"/>
	<rect x="604" y="461" width="7" height="12" class="connector_text_background"/>
	<text x="604" y="473" class="connector_text" font-size="12">1</text>
	<rect x="650" y="332" width="7" height="12" class="connector_text_background"/>
	<text x="650" y="344" class="connector_text" font-size="12">2</text>

	<line x1="257" y1="371" x2="277" y2="370" class="connector"/>
	<line x1="262" y1="357" x2="277" y2="370" class="connector"/>
	<polygon points="257,371 262,357 277,370" class="connector"/>
	<line x1="106" y1="315" x2="260" y2="364" class="connector"/>

	<line x1="741" y1="282" x2="723" y2="292" class="connector"/>
	<line x1="742" y1="298" x2="723" y2="292" class="connector"/>
	<polygon points="741,282 742,298 723,292" class="connector"/>
	<line x1="920" y1="272" x2="741" y2="290" class="connector"/>

	<line x1="553" y1="540" x2="565" y2="524" class="connector"/>
	<line x1="545" y1="527" x2="565" y2="524" class="connector"/>
	<polygon points="553,540 545,527 565,524" class="connector"/>
	<line x1="388" y1="630" x2="549" y2="534" class="connector"/>
	<rect name="Graph" x="234" y="28" width="167" height="209" rx="2" class="element"/>
	<line x1="234" y1="51" x2="401" y2="51" class="element"/>
	<line x1="234" y1="51" x2="401" y2="51" class="element"/>
	<text x="239" y="44" font-size="14" class="element_header">Graph</text>

	<text x="239" y="67" class="element_detail" font-size="12">getEdges()</text>
	<text x="239" y="82" class="element_detail" font-size="12">getVertexes()</text>
	<text x="239" y="97" class="element_detail" font-size="12">getEdgeLengths()</text>
	<text x="239" y="112" class="element_detail" font-size="12">getSumEdgeLengths()</text>
	<text x="239" y="127" class="element_detail" font-size="12">getSize()</text>
	<text x="239" y="142" class="element_detail" font-size="12">recalcSize()</text>
	<text x="239" y="157" class="element_detail" font-size="12">setRequestedSize()</text>
	<text x="239" y="172" class="element_detail" font-size="12">rebase()</text>
	<text x="239" y="187" class="element_detail" font-size="12">rescale()</text>
	<text x="239" y="202" class="element_detail" font-size="12">rescaleToRequestedSize()</text>
	<text x="239" y="217" class="element_detail" font-size="12">getArea()</text>
	<text x="239" y="232" class="element_detail" font-size="12">addPositionToHistory()</text>
	<rect name="Edge" x="741" y="622" width="103" height="119" rx="2" class="element"/>
	<line x1="741" y1="645" x2="844" y2="645" class="element"/>
	<line x1="741" y1="645" x2="844" y2="645" class="element"/>
	<text x="746" y="638" font-size="14" class="element_header">Edge</text>

	<text x="746" y="661" class="element_detail" font-size="12">getStartVertex()</text>
	<text x="746" y="676" class="element_detail" font-size="12">getEndVertex()</text>
	<text x="746" y="691" class="element_detail" font-size="12">getLength()</text>
	<text x="746" y="706" class="element_detail" font-size="12">tan()</text>
	<text x="746" y="721" class="element_detail" font-size="12">sin()</text>
	<text x="746" y="736" class="element_detail" font-size="12">cos()</text>
	<rect name="Vertex" x="636" y="8" width="146" height="134" rx="2" class="element"/>
	<line x1="636" y1="31" x2="782" y2="31" class="element"/>
	<line x1="636" y1="31" x2="782" y2="31" class="element"/>
	<text x="641" y="24" font-size="14" class="element_header">Vertex</text>

	<text x="641" y="47" class="element_detail" font-size="12">getPosition()</text>
	<text x="641" y="62" class="element_detail" font-size="12">getCenterPosition()</text>
	<text x="641" y="77" class="element_detail" font-size="12">getAltPosition()</text>
	<text x="641" y="92" class="element_detail" font-size="12">getSize()</text>
	<text x="641" y="107" class="element_detail" font-size="12">getPosHistory()</text>
	<text x="641" y="122" class="element_detail" font-size="12">addPositionToHistory()</text>
	<text x="641" y="137" class="element_detail" font-size="12">tan()</text>
	<rect name="AbstractDiagram" x="277" y="313" width="131" height="155" rx="2" class="element"/>
	<line x1="277" y1="336" x2="408" y2="336" class="element"/>
	<line x1="277" y1="372" x2="408" y2="372" class="element"/>
	<text x="282" y="329" font-size="14" class="element_header">AbstractDiagram</text>

	<text x="282" y="388" class="element_detail" font-size="12">removeMePlease1()</text>
	<text x="282" y="403" class="element_detail" font-size="12">staticGarbage0()</text>

	<line x1="282" y1="405" x2="374" y2="405" class="element_detail_underline"/>
	<text x="282" y="418" class="element_detail" font-size="12">removeMePlease2()</text>
	<text x="282" y="433" class="element_detail" font-size="12">removeMePlease3()</text>
	<text x="282" y="448" class="element_detail" font-size="12">staticGarbage1()</text>

	<line x1="282" y1="450" x2="374" y2="450" class="element_detail_underline"/>
	<text x="282" y="463" class="element_detail" font-size="12">staticGarbage2()</text>

	<line x1="282" y1="465" x2="374" y2="465" class="element_detail_underline"/>
	<text x="282" y="352" class="element_detail" font-size="12">width</text>
	<text x="282" y="367" class="element_detail" font-size="12">height</text>
	<rect name="AbstractElement" x="610" y="281" width="113" height="32" rx="2" class="element"/>
	<line x1="610" y1="304" x2="723" y2="304" class="element"/>
	<line x1="610" y1="304" x2="723" y2="304" class="element"/>
	<text x="615" y="297" font-size="14" class="element_header">AbstractElement</text>

	<rect name="AbstractConnector" x="528" y="492" width="128" height="32" rx="2" class="element"/>
	<line x1="528" y1="515" x2="656" y2="515" class="element"/>
	<line x1="528" y1="515" x2="656" y2="515" class="element"/>
	<text x="533" y="508" font-size="14" class="element_header">AbstractConnector</text>

	<rect name="ClassDiagram" x="8" y="284" width="98" height="32" rx="2" class="element"/>
	<line x1="8" y1="307" x2="106" y2="307" class="element"/>
	<line x1="8" y1="307" x2="106" y2="307" class="element"/>
	<text x="13" y="300" font-size="14" class="element_header">ClassDiagram</text>

	<rect name="ClassElement" x="920" y="251" width="96" height="32" rx="2" class="element"/>
	<line x1="920" y1="274" x2="1016" y2="274" class="element"/>
	<line x1="920" y1="274" x2="1016" y2="274" class="element"/>
	<text x="925" y="267" font-size="14" class="element_header">ClassElement</text>

	<rect name="ClassConnector" x="306" y="630" width="111" height="32" rx="2" class="element"/>
	<line x1="306" y1="653" x2="417" y2="653" class="element"/>
	<line x1="306" y1="653" x2="417" y2="653" class="element"/>
	<text x="311" y="646" font-size="14" class="element_header">ClassConnector</text>

	<rect x="0" y="749" width="1024" height="19" class="footer"/>
	<text x="5" y="761" font-size="10" class="footer_text">Created by ModSL in 1250 milliseconds (16, 546, 688). Layout (873.26263,797.5721) -> Final (1024.0,768.0).</text>
	
</svg>

