<?xml version="1.0"?>
<!DOCTYPE svg PUBLIC "-//W3C//DTD SVG 1.1//EN" "http://www.w3.org/Graphics/SVG/1.1/DTD/svg11.dtd">

<svg xmlns="http://www.w3.org/2000/svg" width="1024" height="768">
<defs>
	<linearGradient id="header_gradient" x1="10%" y1="50%" x2="100%" y2="100%">
		<stop offset="0%" style="stop-color:white; stop-opacity:1"/>
		<stop offset="100%" style="stop-color:lightsteelblue; stop-opacity:0.5"/>
	</linearGradient>
	<linearGradient id="element_gradient" x1="30%" y1="0%" x2="100%" y2="100%">
		<stop offset="0%" style="stop-color:white;stop-opacity:1"/>
		<stop offset="100%" style="stop-color:lightsteelblue;stop-opacity:1"/>
	</linearGradient>
</defs>
		
<style type="text/css">
	<![CDATA[ 
		
		* {
			font-family: Tahoma, Verdana, Arial;
		} 
			
		.header {
			fill:url(#header_gradient);
		}
			
		.header_text {
			fill: black;
		}
			
		.footer {
			fill: none; 
		}
			
		.footer_text {
			fill: grey; 
		}
			
		.element {
			fill: url(#element_gradient); 
			stroke: midnightblue; 
			stroke-width: 1px;
			opacity: 0.75;
		}
			
		.element_detail {
			fill: black;
		}
			
		.element_detail_underline {
			stroke: black; 
			stroke-width: 1px;
		}
			
		.element_header {
			fill: black; 
		}
			
		.connector {
			fill: white; 
			stroke: dimgrey; 
			stroke-width: 1px;
		}
		
		.connector_text {
			fill: black; 
		}
		
		.connector_text_background {
			fill: white; 
			stroke: white;
			opacity: 0.9;
		}
		
		.history {
			fill: none;
			stroke: lightgrey;
			stroke-width: 1px;
		}
		 
	]]>
</style>


<line x1="190" y1="550" x2="175" y2="563" class="connector"/>
<line x1="194" y1="564" x2="175" y2="563" class="connector"/>


		<polygon points="190,550 194,564 175,563" class="connector"/>
	

<line x1="333" y1="511" x2="192" y2="557" class="connector"/>




<line x1="460" y1="261" x2="457" y2="241" class="connector"/>
<line x1="445" y1="257" x2="457" y2="241" class="connector"/>

	

<line x1="417" y1="413" x2="457" y2="241" class="connector"/>

	
		<rect x="421" y="381" width="7" height="12" class="connector_text_background"/>
		<text x="421" y="393" class="connector_text" font-size="12">1</text>
	
		<rect x="449" y="261" width="20" height="12" class="connector_text_background"/>
		<text x="449" y="273" class="connector_text" font-size="12">0..n</text>



<line x1="625" y1="403" x2="639" y2="389" class="connector"/>
<line x1="619" y1="389" x2="639" y2="389" class="connector"/>

	

<line x1="464" y1="463" x2="639" y2="389" class="connector"/>

	
		<rect x="483" y="443" width="7" height="12" class="connector_text_background"/>
		<text x="483" y="455" class="connector_text" font-size="12">1</text>
	
		<rect x="610" y="390" width="20" height="12" class="connector_text_background"/>
		<text x="610" y="402" class="connector_text" font-size="12">0..n</text>



<line x1="234" y1="212" x2="215" y2="219" class="connector"/>
<line x1="233" y1="227" x2="215" y2="219" class="connector"/>


		<polygon points="234,212 233,227 215,219" class="connector"/>
	

<line x1="404" y1="224" x2="234" y2="220" class="connector"/>




<line x1="896" y1="337" x2="913" y2="326" class="connector"/>
<line x1="893" y1="322" x2="913" y2="326" class="connector"/>


		<polygon points="896,337 893,322 913,326" class="connector"/>
	

<line x1="742" y1="360" x2="894" y2="330" class="connector"/>




<line x1="503" y1="245" x2="484" y2="241" class="connector"/>
<line x1="495" y1="258" x2="484" y2="241" class="connector"/>

	

<line x1="654" y1="357" x2="484" y2="241" class="connector"/>

	
		<rect x="637" y="334" width="7" height="12" class="connector_text_background"/>
		<text x="637" y="346" class="connector_text" font-size="12">1</text>
	
		<rect x="511" y="247" width="7" height="12" class="connector_text_background"/>
		<text x="511" y="259" class="connector_text" font-size="12">2</text>



<line x1="409" y1="586" x2="401" y2="568" class="connector"/>
<line x1="394" y1="586" x2="401" y2="568" class="connector"/>


		<polygon points="409,586 394,586 401,568" class="connector"/>
	

<line x1="405" y1="709" x2="401" y2="586" class="connector"/>




<line x1="466" y1="189" x2="466" y2="209" class="connector"/>
<line x1="480" y1="195" x2="466" y2="209" class="connector"/>


		<polygon points="466,189 480,195 466,209" class="connector"/>
	

<line x1="531" y1="40" x2="473" y2="192" class="connector"/>




<line x1="703" y1="401" x2="687" y2="389" class="connector"/>
<line x1="690" y1="409" x2="687" y2="389" class="connector"/>


		<polygon points="703,401 690,409 687,389" class="connector"/>
	

<line x1="787" y1="560" x2="696" y2="405" class="connector"/>


	

<rect name="Graph" x="8" y="485" width="167" height="209" rx="2" class="element"/>
<line x1="8" y1="508" x2="175" y2="508" class="element"/>


<text x="13" y="501" font-size="14" class="element_header">Graph</text>
<text x="13" y="524" class="element_detail" font-size="12">getEdges()</text>

<text x="13" y="539" class="element_detail" font-size="12">getVertexes()</text>

<text x="13" y="554" class="element_detail" font-size="12">getEdgeLengths()</text>

<text x="13" y="569" class="element_detail" font-size="12">getSumEdgeLengths()</text>

<text x="13" y="584" class="element_detail" font-size="12">getSize()</text>

<text x="13" y="599" class="element_detail" font-size="12">recalcSize()</text>

<text x="13" y="614" class="element_detail" font-size="12">setRequestedSize()</text>

<text x="13" y="629" class="element_detail" font-size="12">rebase()</text>

<text x="13" y="644" class="element_detail" font-size="12">rescale()</text>

<text x="13" y="659" class="element_detail" font-size="12">rescaleToRequestedSize()</text>

<text x="13" y="674" class="element_detail" font-size="12">getArea()</text>

<text x="13" y="689" class="element_detail" font-size="12">addPositionToHistory()</text>

	

<rect name="Edge" x="913" y="256" width="103" height="119" rx="2" class="element"/>
<line x1="913" y1="279" x2="1016" y2="279" class="element"/>


<text x="918" y="272" font-size="14" class="element_header">Edge</text>
<text x="918" y="295" class="element_detail" font-size="12">getStartVertex()</text>

<text x="918" y="310" class="element_detail" font-size="12">getEndVertex()</text>

<text x="918" y="325" class="element_detail" font-size="12">getLength()</text>

<text x="918" y="340" class="element_detail" font-size="12">tan()</text>

<text x="918" y="355" class="element_detail" font-size="12">sin()</text>

<text x="918" y="370" class="element_detail" font-size="12">cos()</text>

	

<rect name="Vertex" x="69" y="150" width="146" height="134" rx="2" class="element"/>
<line x1="69" y1="173" x2="215" y2="173" class="element"/>


<text x="74" y="166" font-size="14" class="element_header">Vertex</text>
<text x="74" y="189" class="element_detail" font-size="12">getPosition()</text>

<text x="74" y="204" class="element_detail" font-size="12">getCenterPosition()</text>

<text x="74" y="219" class="element_detail" font-size="12">getAltPosition()</text>

<text x="74" y="234" class="element_detail" font-size="12">getSize()</text>

<text x="74" y="249" class="element_detail" font-size="12">getPosHistory()</text>

<text x="74" y="264" class="element_detail" font-size="12">addPositionToHistory()</text>

<text x="74" y="279" class="element_detail" font-size="12">tan()</text>

	

<rect name="AbstractDiagram" x="333" y="413" width="131" height="155" rx="2" class="element"/>
<line x1="333" y1="436" x2="464" y2="436" class="element"/>


	<line x1="333" y1="472" x2="464" y2="472" class="element"/>

<text x="338" y="429" font-size="14" class="element_header">AbstractDiagram</text>
<text x="338" y="488" class="element_detail" font-size="12">removeMePlease1()</text>

<text x="338" y="503" class="element_detail" font-size="12">staticGarbage0()</text>

		<line x1="338" y1="505" x2="430" y2="505" class="element_detail_underline"/>

<text x="338" y="518" class="element_detail" font-size="12">removeMePlease2()</text>

<text x="338" y="533" class="element_detail" font-size="12">removeMePlease3()</text>

<text x="338" y="548" class="element_detail" font-size="12">staticGarbage1()</text>

		<line x1="338" y1="550" x2="430" y2="550" class="element_detail_underline"/>

<text x="338" y="563" class="element_detail" font-size="12">staticGarbage2()</text>

		<line x1="338" y1="565" x2="430" y2="565" class="element_detail_underline"/>

<text x="338" y="452" class="element_detail" font-size="12">width</text>

<text x="338" y="467" class="element_detail" font-size="12">height</text>

	

<rect name="AbstractElement" x="404" y="209" width="113" height="32" rx="2" class="element"/>
<line x1="404" y1="232" x2="517" y2="232" class="element"/>


<text x="409" y="225" font-size="14" class="element_header">AbstractElement</text>
	

<rect name="AbstractConnector" x="614" y="357" width="128" height="32" rx="2" class="element"/>
<line x1="614" y1="380" x2="742" y2="380" class="element"/>


<text x="619" y="373" font-size="14" class="element_header">AbstractConnector</text>
	

<rect name="ClassDiagram" x="356" y="709" width="98" height="32" rx="2" class="element"/>
<line x1="356" y1="732" x2="454" y2="732" class="element"/>


<text x="361" y="725" font-size="14" class="element_header">ClassDiagram</text>
	

<rect name="ClassElement" x="489" y="8" width="96" height="32" rx="2" class="element"/>
<line x1="489" y1="31" x2="585" y2="31" class="element"/>


<text x="494" y="24" font-size="14" class="element_header">ClassElement</text>
	

<rect name="ClassConnector" x="741" y="560" width="111" height="32" rx="2" class="element"/>
<line x1="741" y1="583" x2="852" y2="583" class="element"/>


<text x="746" y="576" font-size="14" class="element_header">ClassConnector</text>
	
<rect x="0" y="749" width="1024" height="19" class="footer"/>
<text x="5" y="761" font-size="10" class="footer_text">Created by ModSL in 761 milliseconds (20, 40, 701). Layout (879.24426,775.67065) -> Final (1024.0,768.0).</text>

</svg>

