<?xml version="1.0"?>
<!DOCTYPE svg PUBLIC "-//W3C//DTD SVG 1.1//EN" "http://www.w3.org/Graphics/SVG/1.1/DTD/svg11.dtd">

<svg xmlns="http://www.w3.org/2000/svg" width="1024" height="768">
<defs>
	<linearGradient id="header_gradient" x1="10%" y1="50%" x2="100%" y2="100%">
		<stop offset="0%" style="stop-color:white; stop-opacity:1"/>
		<stop offset="100%" style="stop-color:lightsteelblue; stop-opacity:0.5"/>
	</linearGradient>
	<linearGradient id="element_gradient" x1="30%" y1="0%" x2="100%" y2="100%">
		<stop offset="0%" style="stop-color:white;stop-opacity:1"/>
		<stop offset="100%" style="stop-color:lightsteelblue;stop-opacity:1"/>
	</linearGradient>
</defs>
		
<style type="text/css">
	<![CDATA[ 
		
		* {
			font-family: Tahoma;
		} 
			
		.header {
			fill:url(#header_gradient);
		}
			
		.header_text {
			fill: black;
		}
			
		.footer {
			fill: none; 
		}
			
		.footer_text {
			fill: grey; 
		}
			
		.element {
			fill: url(#element_gradient); 
			stroke: midnightblue; 
			stroke-width: 1px;
			opacity: 0.75;
		}
			
		.element_detail {
			fill: black;
		}
			
		.element_detail_underline {
			stroke: black; 
			stroke-width: 1px;
		}
			
		.element_header {
			fill: black; 
		}
			
		.connector {
			fill: white; 
			stroke: dimgrey; 
			stroke-width: 1px;
		}
		
		.connector_text {
			fill: black; 
		}
		
		.connector_text_background {
			fill: white; 
			stroke: white;
			opacity: 0.9;
		}
		
		.history {
			fill: none;
			stroke: lightgrey;
			stroke-width: 1px;
		}
		 
	]]>
</style>


<line x1="175" y1="542" x2="160" y2="554" class="connector"/>
<line x1="179" y1="556" x2="160" y2="554" class="connector"/>


		<polygon points="175,542 179,556 160,554" 
			class="connector"/>
	

<line x1="338" y1="506" x2="177" y2="549" class="connector"/>




<line x1="451" y1="264" x2="448" y2="245" class="connector"/>
<line x1="436" y1="261" x2="448" y2="245" class="connector"/>

	

<line x1="412" y1="416" x2="448" y2="245" class="connector"/>

	
		<rect x="417" y="384" 
			width="7" height="12" class="connector_text_background"/>
		<text x="417" y="396" class="connector_text" 
			font-size="12">1</text>
	
		<rect x="441" y="264" 
			width="22" height="12" class="connector_text_background"/>
		<text x="441" y="276" class="connector_text" 
			font-size="12">0..n</text>



<line x1="628" y1="403" x2="642" y2="389" class="connector"/>
<line x1="622" y1="389" x2="642" y2="389" class="connector"/>

	

<line x1="456" y1="466" x2="642" y2="389" class="connector"/>

	
		<rect x="475" y="446" 
			width="7" height="12" class="connector_text_background"/>
		<text x="475" y="458" class="connector_text" 
			font-size="12">1</text>
	
		<rect x="612" y="389" 
			width="22" height="12" class="connector_text_background"/>
		<text x="612" y="401" class="connector_text" 
			font-size="12">0..n</text>



<line x1="215" y1="212" x2="196" y2="219" class="connector"/>
<line x1="214" y1="227" x2="196" y2="219" class="connector"/>


		<polygon points="215,212 214,227 196,219" 
			class="connector"/>
	

<line x1="396" y1="226" x2="214" y2="220" class="connector"/>




<line x1="897" y1="324" x2="913" y2="312" class="connector"/>
<line x1="893" y1="309" x2="913" y2="312" class="connector"/>


		<polygon points="897,324 893,309 913,312" 
			class="connector"/>
	

<line x1="744" y1="356" x2="895" y2="316" class="connector"/>




<line x1="497" y1="248" x2="477" y2="245" class="connector"/>
<line x1="489" y1="261" x2="477" y2="245" class="connector"/>

	

<line x1="655" y1="356" x2="477" y2="245" class="connector"/>

	
		<rect x="638" y="333" 
			width="7" height="12" class="connector_text_background"/>
		<text x="638" y="345" class="connector_text" 
			font-size="12">1</text>
	
		<rect x="505" y="250" 
			width="7" height="12" class="connector_text_background"/>
		<text x="505" y="262" class="connector_text" 
			font-size="12">2</text>



<line x1="403" y1="584" x2="396" y2="565" class="connector"/>
<line x1="388" y1="583" x2="396" y2="565" class="connector"/>


		<polygon points="403,584 388,583 396,565" 
			class="connector"/>
	

<line x1="393" y1="710" x2="395" y2="583" class="connector"/>




<line x1="455" y1="192" x2="457" y2="212" class="connector"/>
<line x1="470" y1="197" x2="457" y2="212" class="connector"/>


		<polygon points="455,192 470,197 457,212" 
			class="connector"/>
	

<line x1="516" y1="41" x2="463" y2="194" class="connector"/>




<line x1="710" y1="400" x2="693" y2="389" class="connector"/>
<line x1="697" y1="408" x2="693" y2="389" class="connector"/>


		<polygon points="710,400 697,408 693,389" 
			class="connector"/>
	

<line x1="806" y1="554" x2="703" y2="404" class="connector"/>


	

<rect name="Graph" x="8" y="472" width="152" height="205" rx="2" class="element"/>
<line x1="8" y1="493" x2="160" y2="493" class="element"/>


<text x="13" y="488" font-size="14" class="element_header">Graph</text>
<text x="13" y="507" class="element_detail" font-size="12">getEdges()</text>

<text x="13" y="522" class="element_detail" font-size="12">getVertexes()</text>

<text x="13" y="537" class="element_detail" font-size="12">getEdgeLengths()</text>

<text x="13" y="552" class="element_detail" font-size="12">getSumEdgeLengths()</text>

<text x="13" y="567" class="element_detail" font-size="12">getSize()</text>

<text x="13" y="582" class="element_detail" font-size="12">recalcSize()</text>

<text x="13" y="597" class="element_detail" font-size="12">setRequestedSize()</text>

<text x="13" y="612" class="element_detail" font-size="12">rebase()</text>

<text x="13" y="627" class="element_detail" font-size="12">rescale()</text>

<text x="13" y="642" class="element_detail" font-size="12">rescaleToRequestedSize()</text>

<text x="13" y="657" class="element_detail" font-size="12">getArea()</text>

<text x="13" y="672" class="element_detail" font-size="12">addPositionToHistory()</text>

	

<rect name="Edge" x="913" y="241" width="103" height="115" rx="2" class="element"/>
<line x1="913" y1="262" x2="1016" y2="262" class="element"/>


<text x="918" y="257" font-size="14" class="element_header">Edge</text>
<text x="918" y="276" class="element_detail" font-size="12">getStartVertex()</text>

<text x="918" y="291" class="element_detail" font-size="12">getEndVertex()</text>

<text x="918" y="306" class="element_detail" font-size="12">getLength()</text>

<text x="918" y="321" class="element_detail" font-size="12">tan()</text>

<text x="918" y="336" class="element_detail" font-size="12">sin()</text>

<text x="918" y="351" class="element_detail" font-size="12">cos()</text>

	

<rect name="Vertex" x="62" y="152" width="134" height="130" rx="2" class="element"/>
<line x1="62" y1="173" x2="196" y2="173" class="element"/>


<text x="67" y="168" font-size="14" class="element_header">Vertex</text>
<text x="67" y="187" class="element_detail" font-size="12">getPosition()</text>

<text x="67" y="202" class="element_detail" font-size="12">getCenterPosition()</text>

<text x="67" y="217" class="element_detail" font-size="12">getAltPosition()</text>

<text x="67" y="232" class="element_detail" font-size="12">getSize()</text>

<text x="67" y="247" class="element_detail" font-size="12">getPosHistory()</text>

<text x="67" y="262" class="element_detail" font-size="12">addPositionToHistory()</text>

<text x="67" y="277" class="element_detail" font-size="12">tan()</text>

	

<rect name="AbstractDiagram" x="338" y="416" width="118" height="149" rx="2" class="element"/>
<line x1="338" y1="437" x2="456" y2="437" class="element"/>


	<line x1="338" y1="471" x2="456" y2="471" class="element"/>

<text x="343" y="432" font-size="14" class="element_header">AbstractDiagram</text>
<text x="343" y="485" class="element_detail" font-size="12">removeMePlease1()</text>

<text x="343" y="500" class="element_detail" font-size="12">staticGarbage0()</text>

		<line x1="343" y1="502" x2="434" y2="502" class="element_detail_underline"/>

<text x="343" y="515" class="element_detail" font-size="12">removeMePlease2()</text>

<text x="343" y="530" class="element_detail" font-size="12">removeMePlease3()</text>

<text x="343" y="545" class="element_detail" font-size="12">staticGarbage1()</text>

		<line x1="343" y1="547" x2="434" y2="547" class="element_detail_underline"/>

<text x="343" y="560" class="element_detail" font-size="12">staticGarbage2()</text>

		<line x1="343" y1="562" x2="434" y2="562" class="element_detail_underline"/>

<text x="343" y="451" class="element_detail" font-size="12">width</text>

<text x="343" y="466" class="element_detail" font-size="12">height</text>

	

<rect name="AbstractElement" x="396" y="212" width="110" height="33" rx="2" class="element"/>
<line x1="396" y1="233" x2="506" y2="233" class="element"/>


<text x="401" y="228" font-size="14" class="element_header">AbstractElement</text>
	

<rect name="AbstractConnector" x="619" y="356" width="126" height="33" rx="2" class="element"/>
<line x1="619" y1="377" x2="745" y2="377" class="element"/>


<text x="624" y="372" font-size="14" class="element_header">AbstractConnector</text>
	

<rect name="ClassDiagram" x="347" y="710" width="91" height="33" rx="2" class="element"/>
<line x1="347" y1="731" x2="438" y2="731" class="element"/>


<text x="352" y="726" font-size="14" class="element_header">ClassDiagram</text>
	

<rect name="ClassElement" x="477" y="8" width="89" height="33" rx="2" class="element"/>
<line x1="477" y1="29" x2="566" y2="29" class="element"/>


<text x="482" y="24" font-size="14" class="element_header">ClassElement</text>
	

<rect name="ClassConnector" x="765" y="554" width="105" height="33" rx="2" class="element"/>
<line x1="765" y1="575" x2="870" y2="575" class="element"/>


<text x="770" y="570" font-size="14" class="element_header">ClassConnector</text>
	

<rect x="0" 
	y="755" 
	width="1024" 
	height="13" 
	class="footer"/>
	
<text x="5" 
	y="763" 
	font-size="10" 
	class="footer_text">Created by ModSL in 541 milliseconds (10, 30, 501). Layout (859.9961,780.1363) -> Final (1024.0,768.0).</text>

</svg>

