<?xml version="1.0"?>
<!DOCTYPE svg PUBLIC "-//W3C//DTD SVG 1.1//EN" "http://www.w3.org/Graphics/SVG/1.1/DTD/svg11.dtd">

<svg xmlns="http://www.w3.org/2000/svg" width="1024" height="768">
<defs>
	<linearGradient id="header_gradient" x1="10%" y1="50%" x2="100%" y2="100%">
		<stop offset="0%" style="stop-color:white; stop-opacity:1"/>
		<stop offset="100%" style="stop-color:lightsteelblue; stop-opacity:0.5"/>
	</linearGradient>
	<linearGradient id="element_gradient" x1="30%" y1="0%" x2="100%" y2="100%">
		<stop offset="0%" style="stop-color:white;stop-opacity:1"/>
		<stop offset="100%" style="stop-color:lightsteelblue;stop-opacity:1"/>
	</linearGradient>
</defs>
		
<style type="text/css">
	<![CDATA[ 
		
		* {
			font-family: Tahoma;
		} 
			
		.header {
			fill:url(#header_gradient);
		}
			
		.header_text {
			fill: black;
		}
			
		.footer {
			fill: none; 
		}
			
		.footer_text {
			fill: grey; 
		}
			
		.element {
			fill: url(#element_gradient); 
			stroke: midnightblue; 
			stroke-width: 1px;
			opacity: 0.75;
		}
			
		.element_detail {
			fill: black;
		}
			
		.element_detail_underline {
			stroke: black; 
			stroke-width: 1px;
		}
			
		.element_header {
			fill: black; 
		}
			
		.connector {
			fill: white; 
			stroke: dimgrey; 
			stroke-width: 1px;
		}
		
		.connector_text {
			fill: black; 
		}
		
		.connector_text_background {
			fill: white; 
			stroke: white;
			opacity: 0.9;
		}
		
		.history {
			fill: none;
			stroke: lightgrey;
			stroke-width: 1px;
		}
		 
	]]>
</style>


<line x1="551" y1="167" x2="563" y2="151" class="connector"/>
<line x1="543" y1="153" x2="563" y2="151" class="connector"/>


		<polygon points="551,167 543,153 563,151" 
			class="connector"/>
	

<line x1="356" y1="263" x2="547" y2="160" class="connector"/>




<line x1="254" y1="443" x2="257" y2="463" class="connector"/>
<line x1="269" y1="447" x2="257" y2="463" class="connector"/>

	

<line x1="279" y1="369" x2="257" y2="463" class="connector"/>

	
		<rect x="275" y="377" 
			width="7" height="12" class="connector_text_background"/>
		<text x="275" y="389" class="connector_text" 
			font-size="12">1</text>
	
		<rect x="265" y="419" 
			width="22" height="12" class="connector_text_background"/>
		<text x="265" y="431" class="connector_text" 
			font-size="12">0..n</text>



<line x1="553" y1="502" x2="573" y2="507" class="connector"/>
<line x1="563" y1="490" x2="573" y2="507" class="connector"/>

	

<line x1="356" y1="340" x2="573" y2="507" class="connector"/>

	
		<rect x="372" y="341" 
			width="7" height="12" class="connector_text_background"/>
		<text x="372" y="353" class="connector_text" 
			font-size="12">1</text>
	
		<rect x="547" y="475" 
			width="22" height="12" class="connector_text_background"/>
		<text x="547" y="487" class="connector_text" 
			font-size="12">0..n</text>



<line x1="138" y1="600" x2="131" y2="619" class="connector"/>
<line x1="149" y1="610" x2="131" y2="619" class="connector"/>


		<polygon points="138,600 149,610 131,619" 
			class="connector"/>
	

<line x1="239" y1="496" x2="143" y2="605" class="connector"/>




<line x1="895" y1="503" x2="913" y2="494" class="connector"/>
<line x1="893" y1="488" x2="913" y2="494" class="connector"/>


		<polygon points="895,503 893,488 913,494" 
			class="connector"/>
	

<line x1="657" y1="518" x2="894" y2="496" class="connector"/>




<line x1="328" y1="481" x2="308" y2="486" class="connector"/>
<line x1="326" y1="496" x2="308" y2="486" class="connector"/>

	

<line x1="531" y1="515" x2="308" y2="486" class="connector"/>

	
		<rect x="511" y="501" 
			width="7" height="12" class="connector_text_background"/>
		<text x="511" y="513" class="connector_text" 
			font-size="12">1</text>
	
		<rect x="340" y="479" 
			width="7" height="12" class="connector_text_background"/>
		<text x="340" y="491" class="connector_text" 
			font-size="12">2</text>



<line x1="219" y1="245" x2="238" y2="250" class="connector"/>
<line x1="228" y1="233" x2="238" y2="250" class="connector"/>


		<polygon points="219,245 228,233 238,250" 
			class="connector"/>
	

<line x1="91" y1="139" x2="223" y2="239" class="connector"/>




<line x1="294" y1="447" x2="282" y2="463" class="connector"/>
<line x1="302" y1="460" x2="282" y2="463" class="connector"/>


		<polygon points="294,447 302,460 282,463" 
			class="connector"/>
	

<line x1="515" y1="328" x2="298" y2="454" class="connector"/>




<line x1="608" y1="557" x2="597" y2="540" class="connector"/>
<line x1="593" y1="560" x2="597" y2="540" class="connector"/>


		<polygon points="608,557 593,560 597,540" 
			class="connector"/>
	

<line x1="626" y1="709" x2="600" y2="558" class="connector"/>


	

<rect name="Graph" x="563" y="8" width="152" height="205" rx="2" class="element"/>
<line x1="563" y1="29" x2="715" y2="29" class="element"/>


<text x="568" y="24" font-size="14" class="element_header">Graph</text>
<text x="568" y="43" class="element_detail" font-size="12">getEdges()</text>

<text x="568" y="58" class="element_detail" font-size="12">getVertexes()</text>

<text x="568" y="73" class="element_detail" font-size="12">getEdgeLengths()</text>

<text x="568" y="88" class="element_detail" font-size="12">getSumEdgeLengths()</text>

<text x="568" y="103" class="element_detail" font-size="12">getSize()</text>

<text x="568" y="118" class="element_detail" font-size="12">recalcSize()</text>

<text x="568" y="133" class="element_detail" font-size="12">setRequestedSize()</text>

<text x="568" y="148" class="element_detail" font-size="12">rebase()</text>

<text x="568" y="163" class="element_detail" font-size="12">rescale()</text>

<text x="568" y="178" class="element_detail" font-size="12">rescaleToRequestedSize()</text>

<text x="568" y="193" class="element_detail" font-size="12">getArea()</text>

<text x="568" y="208" class="element_detail" font-size="12">addPositionToHistory()</text>

	

<rect name="Edge" x="913" y="432" width="103" height="115" rx="2" class="element"/>
<line x1="913" y1="453" x2="1016" y2="453" class="element"/>


<text x="918" y="448" font-size="14" class="element_header">Edge</text>
<text x="918" y="467" class="element_detail" font-size="12">getStartVertex()</text>

<text x="918" y="482" class="element_detail" font-size="12">getEndVertex()</text>

<text x="918" y="497" class="element_detail" font-size="12">getLength()</text>

<text x="918" y="512" class="element_detail" font-size="12">tan()</text>

<text x="918" y="527" class="element_detail" font-size="12">sin()</text>

<text x="918" y="542" class="element_detail" font-size="12">cos()</text>

	

<rect name="Vertex" x="8" y="619" width="134" height="130" rx="2" class="element"/>
<line x1="8" y1="640" x2="142" y2="640" class="element"/>


<text x="13" y="635" font-size="14" class="element_header">Vertex</text>
<text x="13" y="654" class="element_detail" font-size="12">getPosition()</text>

<text x="13" y="669" class="element_detail" font-size="12">getCenterPosition()</text>

<text x="13" y="684" class="element_detail" font-size="12">getAltPosition()</text>

<text x="13" y="699" class="element_detail" font-size="12">getSize()</text>

<text x="13" y="714" class="element_detail" font-size="12">getPosHistory()</text>

<text x="13" y="729" class="element_detail" font-size="12">addPositionToHistory()</text>

<text x="13" y="744" class="element_detail" font-size="12">tan()</text>

	

<rect name="AbstractDiagram" x="238" y="220" width="118" height="149" rx="2" class="element"/>
<line x1="238" y1="241" x2="356" y2="241" class="element"/>


	<line x1="238" y1="275" x2="356" y2="275" class="element"/>

<text x="243" y="236" font-size="14" class="element_header">AbstractDiagram</text>
<text x="243" y="289" class="element_detail" font-size="12">removeMePlease1()</text>

<text x="243" y="304" class="element_detail" font-size="12">staticGarbage0()</text>

		<line x1="243" y1="306" x2="334" y2="306" class="element_detail_underline"/>

<text x="243" y="319" class="element_detail" font-size="12">removeMePlease2()</text>

<text x="243" y="334" class="element_detail" font-size="12">removeMePlease3()</text>

<text x="243" y="349" class="element_detail" font-size="12">staticGarbage1()</text>

		<line x1="243" y1="351" x2="334" y2="351" class="element_detail_underline"/>

<text x="243" y="364" class="element_detail" font-size="12">staticGarbage2()</text>

		<line x1="243" y1="366" x2="334" y2="366" class="element_detail_underline"/>

<text x="243" y="255" class="element_detail" font-size="12">width</text>

<text x="243" y="270" class="element_detail" font-size="12">height</text>

	

<rect name="AbstractElement" x="198" y="463" width="110" height="33" rx="2" class="element"/>
<line x1="198" y1="484" x2="308" y2="484" class="element"/>


<text x="203" y="479" font-size="14" class="element_header">AbstractElement</text>
	

<rect name="AbstractConnector" x="531" y="507" width="126" height="33" rx="2" class="element"/>
<line x1="531" y1="528" x2="657" y2="528" class="element"/>


<text x="536" y="523" font-size="14" class="element_header">AbstractConnector</text>
	

<rect name="ClassDiagram" x="24" y="106" width="91" height="33" rx="2" class="element"/>
<line x1="24" y1="127" x2="115" y2="127" class="element"/>


<text x="29" y="122" font-size="14" class="element_header">ClassDiagram</text>
	

<rect name="ClassElement" x="499" y="295" width="89" height="33" rx="2" class="element"/>
<line x1="499" y1="316" x2="588" y2="316" class="element"/>


<text x="504" y="311" font-size="14" class="element_header">ClassElement</text>
	

<rect name="ClassConnector" x="576" y="709" width="105" height="33" rx="2" class="element"/>
<line x1="576" y1="730" x2="681" y2="730" class="element"/>


<text x="581" y="725" font-size="14" class="element_header">ClassConnector</text>
	

<rect x="0" 
	y="755" 
	width="1024" 
	height="13" 
	class="footer"/>
	
<text x="5" 
	y="763" 
	font-size="10" 
	class="footer_text">Created by ModSL in 511 milliseconds (10, 30, 471). Layout (789.558,790.63574) -> Final (1024.0,768.0).</text>

</svg>

