<?xml version="1.0"?>
<!DOCTYPE svg PUBLIC "-//W3C//DTD SVG 1.1//EN" "http://www.w3.org/Graphics/SVG/1.1/DTD/svg11.dtd">

<svg xmlns="http://www.w3.org/2000/svg" width="1024" height="768">
<defs>
	<linearGradient id="header_gradient" x1="10%" y1="50%" x2="100%" y2="100%">
		<stop offset="0%" style="stop-color:white; stop-opacity:1"/>
		<stop offset="100%" style="stop-color:lightsteelblue; stop-opacity:0.5"/>
	</linearGradient>
	<linearGradient id="element_gradient" x1="30%" y1="0%" x2="100%" y2="100%">
		<stop offset="0%" style="stop-color:white;stop-opacity:1"/>
		<stop offset="100%" style="stop-color:lightsteelblue;stop-opacity:1"/>
	</linearGradient>
</defs>
		
<style type="text/css">
	<![CDATA[ 
		
		* {
			font-family: Tahoma, Verdana, Arial;
		} 
			
		.header {
			fill:url(#header_gradient);
		}
			
		.header_text {
			fill: black;
		}
			
		.footer {
			fill: none; 
		}
			
		.footer_text {
			fill: grey; 
		}
			
		.element {
			fill: url(#element_gradient); 
			stroke: midnightblue; 
			stroke-width: 1px;
			opacity: 0.75;
		}
			
		.element_detail {
			fill: black;
		}
			
		.element_detail_underline {
			stroke: black; 
			stroke-width: 1px;
		}
			
		.element_header {
			fill: black; 
		}
			
		.connector {
			fill: white; 
			stroke: dimgrey; 
			stroke-width: 1px;
		}
		
		.connector_text {
			fill: black; 
		}
		
		.connector_text_background {
			fill: white; 
			stroke: white;
			opacity: 0.9;
		}
		
		.history {
			fill: none;
			stroke: lightgrey;
			stroke-width: 1px;
		}
		 
	]]>
</style>


<line x1="588" y1="196" x2="570" y2="189" class="connector"/>
<line x1="577" y1="207" x2="570" y2="189" class="connector"/>


		<polygon points="588,196 577,207 570,189" class="connector"/>
	

<line x1="679" y1="298" x2="583" y2="202" class="connector"/>




<line x1="423" y1="395" x2="406" y2="406" class="connector"/>
<line x1="426" y1="410" x2="406" y2="406" class="connector"/>

	

<line x1="679" y1="365" x2="406" y2="406" class="connector"/>

	
		<rect x="659" y="356" width="7" height="12" class="connector_text_background"/>
		<text x="659" y="368" class="connector_text" font-size="12">1</text>
	
		<rect x="438" y="389" width="20" height="12" class="connector_text_background"/>
		<text x="438" y="401" class="connector_text" font-size="12">0..n</text>



<line x1="624" y1="531" x2="621" y2="551" class="connector"/>
<line x1="637" y1="539" x2="621" y2="551" class="connector"/>

	

<line x1="693" y1="429" x2="621" y2="551" class="connector"/>

	
		<rect x="683" y="435" width="7" height="12" class="connector_text_background"/>
		<text x="683" y="447" class="connector_text" font-size="12">1</text>
	
		<rect x="638" y="511" width="20" height="12" class="connector_text_background"/>
		<text x="638" y="523" class="connector_text" font-size="12">0..n</text>



<line x1="173" y1="285" x2="153" y2="281" class="connector"/>
<line x1="164" y1="298" x2="153" y2="281" class="connector"/>


		<polygon points="173,285 164,298 153,281" class="connector"/>
	

<line x1="340" y1="404" x2="169" y2="291" class="connector"/>




<line x1="908" y1="631" x2="928" y2="628" class="connector"/>
<line x1="911" y1="616" x2="928" y2="628" class="connector"/>


		<polygon points="908,631 911,616 928,628" class="connector"/>
	

<line x1="660" y1="570" x2="909" y2="624" class="connector"/>




<line x1="391" y1="425" x2="371" y2="423" class="connector"/>
<line x1="384" y1="439" x2="371" y2="423" class="connector"/>

	

<line x1="599" y1="551" x2="371" y2="423" class="connector"/>

	
		<rect x="581" y="529" width="7" height="12" class="connector_text_background"/>
		<text x="581" y="541" class="connector_text" font-size="12">1</text>
	
		<rect x="400" y="427" width="7" height="12" class="connector_text_background"/>
		<text x="400" y="439" class="connector_text" font-size="12">2</text>



<line x1="801" y1="268" x2="795" y2="287" class="connector"/>
<line x1="813" y1="278" x2="795" y2="287" class="connector"/>


		<polygon points="801,268 813,278 795,287" class="connector"/>
	

<line x1="914" y1="147" x2="807" y2="273" class="connector"/>




<line x1="308" y1="436" x2="323" y2="423" class="connector"/>
<line x1="303" y1="421" x2="323" y2="423" class="connector"/>


		<polygon points="308,436 303,421 323,423" class="connector"/>
	

<line x1="82" y1="496" x2="306" y2="428" class="connector"/>




<line x1="602" y1="589" x2="608" y2="570" class="connector"/>
<line x1="590" y1="580" x2="608" y2="570" class="connector"/>


		<polygon points="602,589 590,580 608,570" class="connector"/>
	

<line x1="479" y1="727" x2="596" y2="584" class="connector"/>


	

<rect name="Graph" x="418" y="8" width="152" height="211" rx="2" class="element"/>
<line x1="418" y1="27" x2="570" y2="27" class="element"/>


<text x="423" y="23" font-size="14" class="element_header">Graph</text>
<text x="423" y="40" class="element_detail" font-size="12">getEdges()</text>

<text x="423" y="56" class="element_detail" font-size="12">getVertexes()</text>

<text x="423" y="72" class="element_detail" font-size="12">getEdgeLengths()</text>

<text x="423" y="88" class="element_detail" font-size="12">getSumEdgeLengths()</text>

<text x="423" y="104" class="element_detail" font-size="12">getSize()</text>

<text x="423" y="120" class="element_detail" font-size="12">recalcSize()</text>

<text x="423" y="136" class="element_detail" font-size="12">setRequestedSize()</text>

<text x="423" y="152" class="element_detail" font-size="12">rebase()</text>

<text x="423" y="168" class="element_detail" font-size="12">rescale()</text>

<text x="423" y="184" class="element_detail" font-size="12">rescaleToRequestedSize()</text>

<text x="423" y="200" class="element_detail" font-size="12">getArea()</text>

<text x="423" y="216" class="element_detail" font-size="12">addPositionToHistory()</text>

	

<rect name="Edge" x="928" y="580" width="88" height="115" rx="2" class="element"/>
<line x1="928" y1="599" x2="1016" y2="599" class="element"/>


<text x="933" y="595" font-size="14" class="element_header">Edge</text>
<text x="933" y="612" class="element_detail" font-size="12">getStartVertex()</text>

<text x="933" y="628" class="element_detail" font-size="12">getEndVertex()</text>

<text x="933" y="644" class="element_detail" font-size="12">getLength()</text>

<text x="933" y="660" class="element_detail" font-size="12">tan()</text>

<text x="933" y="676" class="element_detail" font-size="12">sin()</text>

<text x="933" y="692" class="element_detail" font-size="12">cos()</text>

	

<rect name="Vertex" x="22" y="173" width="131" height="131" rx="2" class="element"/>
<line x1="22" y1="192" x2="153" y2="192" class="element"/>


<text x="27" y="188" font-size="14" class="element_header">Vertex</text>
<text x="27" y="205" class="element_detail" font-size="12">getPosition()</text>

<text x="27" y="221" class="element_detail" font-size="12">getCenterPosition()</text>

<text x="27" y="237" class="element_detail" font-size="12">getAltPosition()</text>

<text x="27" y="253" class="element_detail" font-size="12">getSize()</text>

<text x="27" y="269" class="element_detail" font-size="12">getPosHistory()</text>

<text x="27" y="285" class="element_detail" font-size="12">addPositionToHistory()</text>

<text x="27" y="301" class="element_detail" font-size="12">tan()</text>

	

<rect name="AbstractDiagram" x="679" y="282" width="116" height="147" rx="2" class="element"/>
<line x1="679" y1="301" x2="795" y2="301" class="element"/>


	<line x1="679" y1="333" x2="795" y2="333" class="element"/>

<text x="684" y="297" font-size="14" class="element_header">AbstractDiagram</text>
<text x="684" y="346" class="element_detail" font-size="12">removeMePlease1()</text>

<text x="684" y="362" class="element_detail" font-size="12">staticGarbage0()</text>

		<line x1="684" y1="364" x2="776" y2="364" class="element_detail_underline"/>

<text x="684" y="378" class="element_detail" font-size="12">removeMePlease2()</text>

<text x="684" y="394" class="element_detail" font-size="12">removeMePlease3()</text>

<text x="684" y="410" class="element_detail" font-size="12">staticGarbage1()</text>

		<line x1="684" y1="412" x2="776" y2="412" class="element_detail_underline"/>

<text x="684" y="426" class="element_detail" font-size="12">staticGarbage2()</text>

		<line x1="684" y1="428" x2="776" y2="428" class="element_detail_underline"/>

<text x="684" y="314" class="element_detail" font-size="12">width</text>

<text x="684" y="330" class="element_detail" font-size="12">height</text>

	

<rect name="AbstractElement" x="303" y="404" width="103" height="19" rx="2" class="element"/>
<line x1="303" y1="423" x2="406" y2="423" class="element"/>


<text x="308" y="419" font-size="14" class="element_header">AbstractElement</text>
	

<rect name="AbstractConnector" x="556" y="551" width="118" height="19" rx="2" class="element"/>
<line x1="556" y1="570" x2="674" y2="570" class="element"/>


<text x="561" y="566" font-size="14" class="element_header">AbstractConnector</text>
	

<rect name="ClassDiagram" x="878" y="128" width="88" height="19" rx="2" class="element"/>
<line x1="878" y1="147" x2="966" y2="147" class="element"/>


<text x="883" y="143" font-size="14" class="element_header">ClassDiagram</text>
	

<rect name="ClassElement" x="8" y="496" width="86" height="19" rx="2" class="element"/>
<line x1="8" y1="515" x2="94" y2="515" class="element"/>


<text x="13" y="511" font-size="14" class="element_header">ClassElement</text>
	

<rect name="ClassConnector" x="421" y="727" width="101" height="19" rx="2" class="element"/>
<line x1="421" y1="746" x2="522" y2="746" class="element"/>


<text x="426" y="742" font-size="14" class="element_header">ClassConnector</text>
	
<rect x="0" y="754" width="1024" height="14" class="footer"/>
<text x="5" y="757" font-size="10" class="footer_text">Created by ModSL in 541 milliseconds (10, 60, 471). Layout (741.6319,777.17993) -> Final (1024.0,768.0).</text>

</svg>

