<?xml version="1.0"?>
<!DOCTYPE svg PUBLIC "-//W3C//DTD SVG 1.1//EN" "http://www.w3.org/Graphics/SVG/1.1/DTD/svg11.dtd">

<svg xmlns="http://www.w3.org/2000/svg" width="800" height="600">
<defs>
	<linearGradient id="header_gradient" x1="10%" y1="50%" x2="100%" y2="100%">
		<stop offset="0%" style="stop-color:white; stop-opacity:1"/>
		<stop offset="100%" style="stop-color:lightsteelblue; stop-opacity:0.5"/>
	</linearGradient>
	<linearGradient id="element_gradient" x1="30%" y1="0%" x2="100%" y2="100%">
		<stop offset="0%" style="stop-color:white;stop-opacity:1"/>
		<stop offset="100%" style="stop-color:lightsteelblue;stop-opacity:1"/>
	</linearGradient>
</defs>
		
<style type="text/css">
	<![CDATA[ 
		
		* {
			font-family: Tahoma, Verdana, Arial;
		} 
			
		.header {
			fill:url(#header_gradient);
		}
			
		.header_text {
			fill: black;
		}
			
		.footer {
			fill: none; 
		}
			
		.footer_text {
			fill: grey; 
		}
			
		.element {
			fill: url(#element_gradient); 
			stroke: midnightblue; 
			stroke-width: 1px;
			opacity: 0.75;
		}
			
		.element_detail {
			fill: black;
		}
			
		.element_detail_underline {
			stroke: black; 
			stroke-width: 1px;
		}
			
		.element_header {
			fill: black; 
		}
			
		.connector {
			fill: white; 
			stroke: dimgrey; 
			stroke-width: 1px;
		}
		
		.connector_text {
			fill: black; 
		}
		
		.connector_text_background {
			fill: white; 
			stroke: white;
			opacity: 0.9;
		}
		
		.history {
			fill: none;
			stroke: lightgrey;
			stroke-width: 1px;
		}
		 
	]]>
</style>
<path d="M875,607 L848,515 753,445 656,441 720,497 716,406 659,487 736,416 709,499 723,418 735,496 718,422 758,487 727,424 763,476 731,421 768,462 738,415 764,459 745,418 765,453 746,420 757,445 742,418 752,443 740,422 744,434 736,418 744,432 736,420 742,431 737,422 742,429 738,423 743,428 740,423 744,426 743,423 746,425 746,423 748,424 748,423 749,424 751,424 752,424 753,424 753,424 754,424 754,424 754,424 754,424 755,423 755,423 755,423 755,423 755,423 755,423 755,423 755,423 755,423 755,423 755,423 755,423 755,423 755,423 755,423 755,423 755,423 755,423 755,423 755,423 755,423 755,423 755,423 755,423 755,423 755,423 755,423 755,423 755,423 755,423 755,423 755,423 755,423 755,423 755,423 755,423 755,423 755,423 755,423 755,423 755,423 755,423 755,423 755,423 755,423 755,423 755,423 755,423 755,423 755,423 755,423 755,423 755,423 755,423 755,423 755,423 755,423 755,423 755,423 755,423 755,423 755,423 755,423 755,423 755,423 755,423 755,423 755,423 755,423 755,423 755,423 755,423 755,423 755,423 755,423 755,423 755,423 755,423 755,423 755,423 755,423 755,423 755,423 755,423 755,423 755,423 755,423 755,423 755,423 755,423 755,423 755,423 755,423 755,423 755,423 755,423 755,423 755,423 755,423 755,423 755,423 755,423 755,423 755,423 755,423 755,423 755,423 755,423 755,423 755,423 755,423 755,423 755,423 755,423 755,423 755,423 755,423 755,423 755,423 755,423 755,423 755,423 755,423 755,423 755,423 755,423 755,423 755,423 755,423 755,423 755,423 755,423 755,423 755,423 755,423 755,423 755,423 755,423 755,423 755,423 755,423 755,423 755,423 755,423 755,423 755,423 755,423 755,423 755,423 755,423 " class="history"/>
<path d="M1070,359 L930,344 798,308 709,336 763,250 755,341 771,253 743,338 737,253 699,331 704,253 674,325 691,255 675,321 678,258 667,316 669,262 663,312 664,266 660,308 663,269 661,305 663,273 661,301 660,276 660,298 661,286 659,303 655,288 654,301 649,291 649,300 645,295 645,302 642,297 642,302 640,301 641,304 639,302 638,304 636,303 636,305 635,306 634,306 634,307 633,307 633,307 633,307 632,308 632,308 632,308 632,308 632,308 632,308 631,308 631,308 631,308 631,308 631,308 631,308 631,308 631,308 631,308 631,308 631,308 631,308 631,308 631,308 631,308 631,308 631,308 631,308 631,308 631,308 631,308 631,308 631,308 631,308 631,308 631,308 631,308 631,308 631,308 631,308 631,308 631,308 631,308 631,308 631,308 631,308 631,308 631,308 631,308 631,308 631,308 631,308 631,308 631,308 631,308 631,308 631,308 631,308 631,308 631,308 631,308 631,308 631,308 631,308 631,308 631,308 631,308 631,308 631,308 631,308 631,308 631,308 631,308 631,308 631,308 631,308 631,308 631,308 631,308 631,308 631,308 631,308 631,308 631,308 631,308 631,308 631,308 631,308 631,308 631,308 631,308 631,308 631,308 631,308 631,308 631,308 631,308 631,308 631,308 631,308 631,308 631,308 631,308 631,308 631,308 631,308 631,308 631,308 631,308 631,308 631,308 631,308 631,308 631,308 631,308 631,308 631,308 631,308 631,308 631,308 631,308 631,308 631,308 631,308 631,308 631,308 631,308 631,308 631,308 631,308 631,308 631,308 631,308 631,308 631,308 631,308 631,308 631,308 631,308 631,308 631,308 631,308 631,308 631,308 631,308 631,308 631,308 631,308 631,308 631,308 631,308 631,308 631,308 631,308 631,308 631,308 631,308 " class="history"/>
<path d="M1004,85 L881,132 757,178 646,161 758,217 704,133 777,208 732,126 777,205 760,125 774,202 772,128 757,198 762,131 756,194 756,135 753,190 753,139 754,186 748,143 754,182 745,147 753,178 743,151 750,175 741,154 745,173 734,158 736,173 733,160 736,171 732,162 733,170 727,164 728,170 724,166 725,170 720,169 721,171 719,169 719,171 717,171 717,172 716,172 715,173 715,173 714,173 714,173 713,174 713,174 713,174 713,174 713,174 713,174 713,174 713,174 713,174 712,174 712,174 712,174 712,174 712,174 712,174 712,174 712,174 712,174 712,174 712,174 712,174 712,174 712,174 712,174 712,174 712,174 712,174 712,174 712,174 712,174 712,174 712,174 712,174 712,174 712,174 712,174 712,174 712,174 712,174 712,174 712,174 712,174 712,174 712,174 712,174 712,174 712,174 712,174 712,174 712,174 712,174 712,174 712,174 712,174 712,174 712,174 712,174 712,174 712,174 712,174 712,174 712,174 712,174 712,174 712,174 712,174 712,174 712,174 712,174 712,174 712,174 712,174 712,174 712,174 712,174 712,174 712,174 712,174 712,174 712,174 712,174 712,174 712,174 712,174 712,174 712,174 712,174 712,174 712,174 712,174 712,174 712,174 712,174 712,174 712,174 712,174 712,174 712,174 712,174 712,174 712,174 712,174 712,174 712,174 712,174 712,174 712,174 712,174 712,174 712,174 712,174 712,174 712,174 712,174 712,174 712,174 712,174 712,174 712,174 712,174 712,174 712,174 712,174 712,174 712,174 712,174 712,174 712,174 712,174 712,174 712,174 712,174 712,174 712,174 712,174 712,174 712,174 712,174 712,174 712,174 712,174 712,174 712,174 712,174 712,174 712,174 712,174 712,174 712,174 712,174 712,174 712,174 712,174 " class="history"/>
<path d="M707,-111 L660,-22 593,59 546,111 507,22 594,93 469,60 596,82 471,65 583,100 468,81 568,115 469,88 565,110 474,92 555,116 479,94 551,111 487,92 548,106 495,89 545,100 502,87 543,95 509,83 542,89 516,78 541,83 538,77 557,79 544,73 558,75 549,69 559,72 554,67 561,69 556,66 561,67 558,66 561,66 559,64 561,65 561,64 562,64 562,64 562,64 562,64 563,64 563,64 563,64 563,64 563,64 563,64 563,64 563,64 563,64 563,64 563,64 563,64 563,64 563,64 563,64 563,64 563,64 563,64 563,64 563,64 563,64 563,64 563,64 563,64 563,64 563,64 563,64 563,64 563,64 563,64 563,64 563,64 563,64 563,64 563,64 563,64 563,64 563,64 563,64 563,64 563,64 563,64 563,64 563,64 563,64 563,64 563,64 563,64 563,64 563,64 563,64 563,64 563,64 563,64 563,64 563,64 563,64 563,64 563,64 563,64 563,64 563,64 563,64 563,64 563,64 563,64 563,64 563,64 563,64 563,64 563,64 563,64 563,64 563,64 563,64 563,64 563,64 563,64 563,64 563,64 563,64 563,64 563,64 563,64 563,64 563,64 563,64 563,64 563,64 563,64 563,64 563,64 563,64 563,64 563,64 563,64 563,64 563,64 563,64 563,64 563,64 563,64 563,64 563,64 563,64 563,64 563,64 563,64 563,64 563,64 563,64 563,64 563,64 563,64 563,64 563,64 563,64 563,64 563,64 563,64 563,64 563,64 563,64 563,64 563,64 563,64 563,64 563,64 563,64 563,64 563,64 563,64 563,64 563,64 563,64 563,64 563,64 563,64 563,64 563,64 563,64 563,64 563,64 563,64 563,64 563,64 563,64 563,64 563,64 563,64 563,64 563,64 563,64 563,64 " class="history"/>
<path d="M291,-155 L307,-61 329,31 346,85 315,0 297,64 385,65 255,79 375,50 252,41 370,51 267,20 348,67 254,41 348,53 272,21 335,57 280,22 332,54 286,24 328,51 294,24 322,49 304,24 312,48 314,26 298,43 315,30 297,39 315,34 309,44 319,37 310,42 319,39 312,43 314,43 312,47 313,47 311,50 314,48 312,50 314,49 313,50 314,50 313,50 314,50 314,50 314,50 314,50 314,50 314,50 314,50 314,50 314,50 314,50 314,50 314,50 314,50 314,50 314,50 314,50 314,50 314,50 314,50 314,50 314,50 314,50 314,50 314,50 314,50 314,50 314,50 314,50 314,50 314,50 314,50 314,50 314,50 314,50 314,50 314,50 314,50 314,50 314,50 314,50 314,50 314,50 314,50 314,50 314,50 314,50 314,50 314,50 314,50 314,50 314,50 314,50 314,50 314,50 314,50 314,50 314,50 314,50 314,50 314,50 314,50 314,50 314,51 314,51 314,51 314,51 314,51 314,51 314,51 314,51 314,51 314,51 314,51 314,51 314,51 314,51 314,51 314,51 314,51 314,51 314,51 314,51 314,51 314,51 314,51 314,51 314,51 314,51 314,51 314,51 314,51 314,51 314,51 314,51 314,51 314,51 314,51 314,51 314,51 314,51 314,51 314,51 314,51 314,51 314,51 314,51 314,51 314,51 314,51 314,51 314,51 314,51 314,51 314,51 314,51 314,51 314,51 314,51 314,51 314,51 314,51 314,51 314,51 314,51 314,51 314,51 314,51 314,51 314,51 314,51 314,51 314,51 314,51 314,51 314,51 314,51 314,51 314,51 314,51 314,51 314,51 314,51 314,51 314,51 314,51 314,51 314,51 314,51 314,51 314,51 314,51 314,51 314,51 314,51 314,51 314,51 " class="history"/>
<path d="M-83,-28 L2,45 104,111 174,151 120,65 86,153 116,66 111,153 126,69 99,149 138,75 92,144 144,81 88,137 134,82 95,135 138,88 97,131 135,92 101,128 134,96 106,125 136,101 112,124 139,107 119,125 141,112 126,126 140,117 129,127 138,121 129,129 137,122 131,128 131,128 127,132 128,133 125,135 127,133 125,135 127,134 125,135 125,135 124,136 125,135 124,136 125,135 125,136 125,136 125,136 125,136 125,136 125,136 125,136 125,136 125,136 125,136 125,136 125,136 125,136 125,136 125,136 125,136 125,136 125,136 125,136 125,136 125,136 125,136 125,136 125,136 125,136 125,136 125,136 125,136 125,136 125,136 125,136 125,136 125,136 125,136 125,136 125,136 125,136 125,136 125,136 125,136 125,136 125,136 125,136 125,136 125,136 125,136 125,136 125,136 125,136 125,136 125,136 125,136 125,136 125,136 125,136 125,136 125,136 125,136 125,136 125,136 125,136 125,136 125,136 125,136 125,136 125,136 125,136 125,136 125,136 125,136 125,136 125,136 125,136 125,136 125,136 125,136 125,136 125,136 125,136 125,136 125,136 125,136 125,136 125,136 125,136 125,136 125,136 125,136 125,136 125,136 125,136 125,136 125,136 125,136 125,136 125,136 125,136 125,136 125,136 125,136 125,136 125,136 125,136 125,136 125,136 125,136 125,136 125,136 125,136 125,136 125,136 125,136 125,136 125,136 125,136 125,136 125,136 125,136 125,136 125,136 125,136 125,136 125,136 125,136 125,136 125,136 125,136 125,136 125,136 125,136 125,136 125,136 125,136 125,136 125,136 125,136 125,136 125,136 125,136 125,136 125,136 125,136 125,136 125,136 125,136 125,136 125,136 125,136 125,136 125,136 125,136 125,136 125,136 125,136 " class="history"/>
<path d="M-274,219 L-134,235 5,253 101,243 -28,276 81,221 82,311 85,224 54,306 70,225 36,300 57,226 35,296 56,230 54,293 68,235 66,290 73,239 73,286 77,243 76,282 79,247 78,279 79,250 77,276 79,253 75,273 77,256 73,270 74,257 70,268 70,259 67,267 67,260 64,265 60,265 56,268 54,266 53,269 53,267 52,268 52,267 51,268 51,269 50,268 50,269 49,268 49,269 49,269 49,269 48,269 48,269 48,269 48,269 48,269 48,269 48,269 48,269 48,269 48,269 48,269 48,269 48,269 48,269 48,269 48,269 48,269 48,269 48,269 48,269 48,269 48,269 48,269 48,269 48,269 48,269 48,269 48,269 48,269 48,269 48,269 48,269 48,269 48,269 48,269 48,269 48,269 48,269 48,269 48,269 48,269 48,269 48,269 48,269 48,269 48,269 48,269 48,269 48,269 48,269 48,269 48,269 48,269 48,269 48,269 48,269 48,269 48,269 48,269 48,269 48,269 48,269 48,269 48,269 48,269 48,269 48,269 48,269 48,269 48,269 48,269 48,269 48,269 48,269 48,269 48,269 48,269 48,269 48,269 48,269 48,269 48,269 48,269 48,269 48,269 48,269 48,269 48,269 48,269 48,269 48,269 48,269 48,269 48,269 48,269 48,269 48,269 48,269 48,269 48,269 48,269 48,269 48,269 48,269 48,269 48,269 48,269 48,269 48,269 48,269 48,269 48,269 48,269 48,269 48,269 48,269 48,269 48,269 48,269 48,269 48,269 48,269 48,269 48,269 48,269 48,269 48,269 48,269 48,269 48,269 48,269 48,269 48,269 48,269 48,269 48,269 48,269 48,269 48,269 48,269 48,269 48,269 48,269 48,269 48,269 48,269 48,269 48,269 48,269 48,269 48,269 " class="history"/>
<path d="M-208,493 L-85,446 37,399 108,365 45,438 40,347 111,423 69,351 120,429 99,348 137,422 86,355 126,421 64,368 112,423 65,373 111,418 64,378 107,415 66,382 102,413 64,390 98,412 64,395 93,410 66,398 90,409 69,401 89,409 73,401 87,407 76,403 86,407 78,402 85,406 82,404 85,407 82,406 85,408 83,407 85,408 83,407 85,407 84,407 84,408 84,407 84,407 85,408 85,408 85,408 85,408 85,408 86,408 86,408 86,408 86,408 86,408 86,408 86,408 86,408 86,408 86,408 86,408 86,408 86,408 86,408 86,408 86,408 86,408 86,408 86,408 86,408 86,408 86,408 86,408 86,408 86,408 86,408 86,408 86,408 86,408 86,408 86,408 86,408 86,408 86,408 86,408 86,408 86,408 86,408 86,408 86,408 86,408 86,408 86,408 86,408 86,408 86,408 86,408 86,408 86,408 86,408 86,408 86,408 86,408 86,408 86,408 86,408 86,408 86,408 86,408 86,408 86,408 86,408 86,408 86,408 86,408 86,408 86,408 86,408 86,408 86,408 86,408 86,408 86,408 86,408 86,408 86,408 86,408 86,408 86,408 86,408 86,408 86,408 86,408 86,408 86,408 86,408 86,408 86,408 86,408 86,408 86,408 86,408 86,408 86,408 86,408 86,408 86,408 86,408 86,408 86,408 86,408 86,408 86,408 86,408 86,408 86,408 86,408 86,408 86,408 86,408 86,408 86,408 86,408 86,408 86,408 86,408 86,408 86,408 86,408 86,408 86,408 86,408 86,408 86,408 86,408 86,408 86,408 86,408 86,408 86,408 86,408 86,408 86,408 86,408 86,408 86,408 86,408 86,408 86,408 86,408 86,408 86,408 86,408 86,408 86,408 86,408 86,408 86,408 86,408 " class="history"/>
<path d="M88,690 L135,601 171,510 242,479 161,511 297,524 165,506 276,553 161,516 268,556 186,500 252,561 214,494 229,560 200,500 259,545 211,500 269,533 211,506 269,525 220,503 268,519 227,502 265,515 233,502 263,512 238,501 262,509 243,501 260,507 246,501 259,505 249,500 258,503 251,500 257,502 252,500 257,502 253,500 256,501 254,500 256,501 255,500 256,500 255,500 256,500 255,500 256,500 256,500 256,501 256,501 256,501 256,501 256,501 256,501 256,501 257,501 257,501 257,501 257,501 257,501 257,501 257,501 257,501 257,501 257,501 257,501 257,501 257,501 257,501 257,501 257,501 257,501 257,501 257,501 257,501 257,501 257,501 257,501 257,501 257,501 257,501 257,501 257,501 257,501 257,501 257,501 257,501 257,501 257,501 257,501 257,501 257,501 257,501 257,501 257,501 257,501 257,501 257,501 257,501 257,501 257,501 257,501 257,501 257,501 257,501 257,501 257,501 257,501 257,501 257,501 257,501 257,501 257,501 257,501 257,501 257,501 257,501 257,501 257,501 257,501 257,501 257,501 257,501 257,501 257,501 257,501 257,501 257,501 257,501 257,501 257,501 257,501 257,501 257,501 257,501 257,501 257,501 257,501 257,501 257,501 257,501 257,501 257,501 257,501 257,501 257,501 257,501 257,501 257,501 257,501 257,501 257,501 257,501 257,501 257,501 257,501 257,501 257,501 257,501 257,501 257,501 257,501 257,501 257,501 257,501 257,501 257,501 257,501 257,501 257,501 257,501 257,501 257,501 257,501 257,501 257,501 257,501 257,501 257,501 257,501 257,501 257,501 257,501 257,501 257,501 257,501 257,501 257,501 257,501 257,501 257,501 257,501 257,501 257,501 257,501 257,501 257,501 257,501 257,501 257,501 " class="history"/>
<path d="M508,733 L426,657 403,564 448,519 449,588 374,512 507,494 375,497 481,449 359,464 445,443 437,465 380,507 480,517 422,529 496,529 462,538 457,532 527,534 463,532 520,540 467,536 514,545 471,541 507,549 474,545 502,552 476,549 496,556 478,552 493,557 479,554 490,558 480,556 486,558 480,556 485,558 481,557 485,557 482,557 484,557 482,556 484,557 483,557 483,557 482,556 483,557 483,556 483,556 483,556 483,556 484,556 484,556 484,556 484,556 484,556 484,556 484,556 484,556 484,556 484,556 484,556 484,556 484,556 484,556 484,556 484,556 484,556 484,556 484,556 484,556 484,556 484,556 484,556 484,556 484,556 484,556 484,556 484,556 484,556 484,556 484,556 484,556 484,556 484,556 484,556 484,556 484,556 484,556 484,556 484,556 484,556 484,556 484,556 484,556 484,556 484,556 484,556 484,556 484,556 484,556 484,557 484,557 484,557 484,557 484,557 484,557 484,557 484,557 484,557 484,557 484,557 484,557 484,557 484,557 484,557 484,557 484,557 484,557 484,557 484,557 484,557 484,557 484,557 484,557 484,557 484,557 484,557 484,557 484,557 484,557 484,557 484,557 484,557 484,557 484,557 484,557 484,557 484,557 484,557 484,557 484,557 484,557 484,557 484,557 484,557 484,557 484,557 484,557 484,557 484,557 484,557 484,557 484,557 484,557 484,557 484,557 484,557 484,557 484,557 484,557 484,557 484,557 484,557 484,557 484,557 484,557 484,557 484,557 484,557 484,557 484,557 484,557 484,557 484,557 484,557 484,557 484,557 484,557 484,557 484,557 484,557 484,557 484,557 484,557 484,557 484,557 484,557 484,557 484,557 484,557 484,557 484,557 484,557 484,557 484,557 484,557 484,557 484,557 484,557 484,557 " class="history"/>


<line x1="719" y1="400" x2="738" y2="407" class="connector"/>
<line x1="730" y1="389" x2="738" y2="407" class="connector"/>


		<polygon points="719,400 730,389 738,407" class="connector"/>
	

<line x1="648" y1="324" x2="724" y2="395" class="connector"/>




<line x1="644" y1="272" x2="641" y2="292" class="connector"/>
<line x1="657" y1="280" x2="641" y2="292" class="connector"/>


		<polygon points="644,272 657,280 641,292" class="connector"/>
	

<line x1="703" y1="190" x2="651" y2="276" class="connector"/>




<line x1="671" y1="153" x2="691" y2="158" class="connector"/>
<line x1="680" y1="141" x2="691" y2="158" class="connector"/>


		<polygon points="671,153 680,141 691,158" class="connector"/>
	

<line x1="585" y1="80" x2="676" y2="147" class="connector"/>




<line x1="504" y1="68" x2="522" y2="62" class="connector"/>
<line x1="504" y1="53" x2="522" y2="62" class="connector"/>


		<polygon points="504,68 504,53 522,62" class="connector"/>
	

<line x1="355" y1="53" x2="504" y2="61" class="connector"/>




<line x1="265" y1="81" x2="279" y2="67" class="connector"/>
<line x1="259" y1="67" x2="279" y2="67" class="connector"/>


		<polygon points="265,81 259,67 279,67" class="connector"/>
	

<line x1="160" y1="120" x2="262" y2="74" class="connector"/>




<line x1="113" y1="172" x2="115" y2="152" class="connector"/>
<line x1="100" y1="164" x2="115" y2="152" class="connector"/>


		<polygon points="113,172 100,164 115,152" class="connector"/>
	

<line x1="57" y1="253" x2="106" y2="168" class="connector"/>




<line x1="65" y1="301" x2="52" y2="285" class="connector"/>
<line x1="50" y1="305" x2="52" y2="285" class="connector"/>


		<polygon points="65,301 50,305 52,285" class="connector"/>
	

<line x1="82" y1="392" x2="57" y2="303" class="connector"/>




<line x1="135" y1="426" x2="115" y2="424" class="connector"/>
<line x1="128" y1="439" x2="115" y2="424" class="connector"/>


		<polygon points="135,426 128,439 115,424" class="connector"/>
	

<line x1="227" y1="485" x2="131" y2="433" class="connector"/>




<line x1="317" y1="508" x2="297" y2="511" class="connector"/>
<line x1="313" y1="523" x2="297" y2="511" class="connector"/>


		<polygon points="317,508 313,523 297,511" class="connector"/>
	

<line x1="440" y1="546" x2="315" y2="515" class="connector"/>


	

<rect name="TestClass" x="719" y="407" width="73" height="32" rx="2" class="element"/>
<line x1="719" y1="430" x2="792" y2="430" class="element"/>


<text x="724" y="423" font-size="14" class="element_header">TestClass</text>
	

<rect name="TestClass2" x="591" y="292" width="81" height="32" rx="2" class="element"/>
<line x1="591" y1="315" x2="672" y2="315" class="element"/>


<text x="596" y="308" font-size="14" class="element_header">TestClass2</text>
	

<rect name="TestClass3" x="672" y="158" width="81" height="32" rx="2" class="element"/>
<line x1="672" y1="181" x2="753" y2="181" class="element"/>


<text x="677" y="174" font-size="14" class="element_header">TestClass3</text>
	

<rect name="TestClass4" x="522" y="48" width="81" height="32" rx="2" class="element"/>
<line x1="522" y1="71" x2="603" y2="71" class="element"/>


<text x="527" y="64" font-size="14" class="element_header">TestClass4</text>
	

<rect name="TestClass5" x="274" y="35" width="81" height="32" rx="2" class="element"/>
<line x1="274" y1="58" x2="355" y2="58" class="element"/>


<text x="279" y="51" font-size="14" class="element_header">TestClass5</text>
	

<rect name="TestClass6" x="84" y="120" width="81" height="32" rx="2" class="element"/>
<line x1="84" y1="143" x2="165" y2="143" class="element"/>


<text x="89" y="136" font-size="14" class="element_header">TestClass6</text>
	

<rect name="TestClass7" x="8" y="253" width="81" height="32" rx="2" class="element"/>
<line x1="8" y1="276" x2="89" y2="276" class="element"/>


<text x="13" y="269" font-size="14" class="element_header">TestClass7</text>
	

<rect name="TestClass8" x="45" y="392" width="81" height="32" rx="2" class="element"/>
<line x1="45" y1="415" x2="126" y2="415" class="element"/>


<text x="50" y="408" font-size="14" class="element_header">TestClass8</text>
	

<rect name="TestClass9" x="216" y="485" width="81" height="32" rx="2" class="element"/>
<line x1="216" y1="508" x2="297" y2="508" class="element"/>


<text x="221" y="501" font-size="14" class="element_header">TestClass9</text>
	

<rect name="TestClass10" x="440" y="541" width="89" height="32" rx="2" class="element"/>
<line x1="440" y1="564" x2="529" y2="564" class="element"/>


<text x="445" y="557" font-size="14" class="element_header">TestClass10</text>
<rect x="0" y="0" width="800" height="27" rx="2" class="header"/>
<text x="6" y="19" font-size="16" class="header_text">Test Model</text>
	
<rect x="0" y="581" width="800" height="19" class="footer"/>
<text x="5" y="593" font-size="10" class="footer_text">Created by ModSL in 1234 milliseconds (15, 375, 844). Layout (594.924,594.20703) -> Final (800.0,600.0).</text>

</svg>

