<?xml version="1.0"?>
<!DOCTYPE svg PUBLIC "-//W3C//DTD SVG 1.1//EN" "http://www.w3.org/Graphics/SVG/1.1/DTD/svg11.dtd">

<svg xmlns="http://www.w3.org/2000/svg" width="520" height="360">
<defs>
	<linearGradient id="header_gradient" x1="10%" y1="50%" x2="100%" y2="100%">
		<stop offset="0%" style="stop-color:white; stop-opacity:1"/>
		<stop offset="100%" style="stop-color:lightsteelblue; stop-opacity:0.5"/>
	</linearGradient>
	<linearGradient id="element_gradient" x1="30%" y1="0%" x2="100%" y2="100%">
		<stop offset="0%" style="stop-color:white;stop-opacity:1"/>
		<stop offset="100%" style="stop-color:lightsteelblue;stop-opacity:1"/>
	</linearGradient>
</defs>
		
<style type="text/css">
	<![CDATA[ 
		
		* {
			font-family: Tahoma;
		} 
			
		.header {
			fill:url(#header_gradient);
		}
			
		.header_text {
			fill: black;
		}
			
		.footer {
			fill: none; 
		}
			
		.footer_text {
			fill: grey; 
		}
			
		.element {
			fill: url(#element_gradient); 
			stroke: midnightblue; 
			stroke-width: 1px;
			opacity: 0.75;
		}
			
		.element_underline {
			stroke: black; 
			stroke-width: 1px;
		}
			
		.element_detail {
			fill: black;
		}
			
		.element_detail_underline {
			stroke: black; 
			stroke-width: 1px;
		}
			
		.element_header {
			fill: black; 
		}
			
		.connector {
			fill: white; 
			stroke: dimgrey; 
			stroke-width: 1px;
		}
		
		.connector_text {
			fill: black; 
		}
		
		.connector_text_background {
			fill: white; 
			stroke: white;
			opacity: 0.9;
		}
		
		.history {
			fill: none;
			stroke: lightgrey;
			stroke-width: 1px;
		}
		 
	]]>
</style>


<line x1="244" y1="143" x2="237" y2="156" class="connector"/>
<line x1="250" y1="149" x2="237" y2="156" class="connector"/>
<line x1="339" y1="55" x2="237" y2="156" class="connector"/>

<rect x="241" y="93" width="94" height="12" class="connector_text_background"/>
<text x="241" y="105" class="connector_text" font-size="12">1:doSomething()</text>


<line x1="204" y1="297" x2="207" y2="312" class="connector"/>
<line x1="213" y1="298" x2="207" y2="312" class="connector"/>
<line x1="224" y1="179" x2="207" y2="312" class="connector"/>

<rect x="158" y="233" width="115" height="12" class="connector_text_background"/>
<text x="158" y="245" class="connector_text" font-size="12">2:doSomethingElse()</text>


<line x1="95" y1="95" x2="81" y2="92" class="connector"/>
<line x1="91" y1="103" x2="81" y2="92" class="connector"/>
<line x1="203" y1="156" x2="81" y2="92" class="connector"/>

<rect x="110" y="112" width="63" height="12" class="connector_text_background"/>
<text x="110" y="124" class="connector_text" font-size="12">3:doExtra()</text>


<line x1="395" y1="170" x2="410" y2="166" class="connector"/>
<line x1="395" y1="161" x2="410" y2="166" class="connector"/>
<line x1="276" y1="167" x2="410" y2="166" class="connector"/>

<rect x="315" y="154" width="56" height="12" class="connector_text_background"/>
<text x="315" y="166" class="connector_text" font-size="12">4:doPlus()</text>


<line x1="374" y1="62" x2="361" y2="55" class="connector"/>
<line x1="367" y1="68" x2="361" y2="55" class="connector"/>
<line x1="450" y1="154" x2="361" y2="55" class="connector"/>

<rect x="368" y="92" width="76" height="12" class="connector_text_background"/>
<text x="368" y="104" class="connector_text" font-size="12">5:comeBack()</text>


<rect name="Class1:Object1" x="300" y="32" 
    width="102" height="23" rx="2" class="element"/>

<text x="305" 
    y="48" font-size="14" class="element_header">Class1:Object1</text>

<line x1="305" y1="50" x2="397" y2="50" class="element_underline"/>

 

<rect name="Class2:Object2" x="174" y="156" 
    width="102" height="23" rx="2" class="element"/>

<text x="179" 
    y="172" font-size="14" class="element_header">Class2:Object2</text>

<line x1="179" y1="174" x2="271" y2="174" class="element_underline"/>

 

<rect name="Class2:Object3" x="154" y="312" 
    width="102" height="23" rx="2" class="element"/>

<text x="159" 
    y="328" font-size="14" class="element_header">Class2:Object3</text>

<line x1="159" y1="330" x2="251" y2="330" class="element_underline"/>

 

<rect name="Class2:Object4" x="8" y="69" 
    width="102" height="23" rx="2" class="element"/>

<text x="13" 
    y="85" font-size="14" class="element_header">Class2:Object4</text>

<line x1="13" y1="87" x2="105" y2="87" class="element_underline"/>

 

<rect name="Class2:Object5" x="410" y="154" 
    width="102" height="23" rx="2" class="element"/>

<text x="415" 
    y="170" font-size="14" class="element_header">Class2:Object5</text>

<line x1="415" y1="172" x2="507" y2="172" class="element_underline"/>

 <rect x="0" y="0" width="520" height="24" rx="2" class="header"/>
<text x="6" y="18" font-size="16" class="header_text">Collaboration Model</text>
<rect x="0" 
	y="347" 
	width="520" 
	height="13" 
	class="footer"/>
	
<text x="5" 
	y="355" 
	font-size="10" 
	class="footer_text">Created by ModSL in [(parsing:16), (layout:203), (svg_rendering:547)]:766 milliseconds. Layout (414.33475,281.6403) -> Final (520.0,360.0).</text>

</svg>

