<?xml version="1.0"?>
<!DOCTYPE svg PUBLIC "-//W3C//DTD SVG 1.1//EN" "http://www.w3.org/Graphics/SVG/1.1/DTD/svg11.dtd">

<svg xmlns="http://www.w3.org/2000/svg" width="1024" height="768">
<defs>
	<linearGradient id="header_gradient" x1="10%" y1="50%" x2="100%" y2="100%">
		<stop offset="0%" style="stop-color:white; stop-opacity:1"/>
		<stop offset="100%" style="stop-color:lightsteelblue; stop-opacity:0.5"/>
	</linearGradient>
	<linearGradient id="element_gradient" x1="30%" y1="0%" x2="100%" y2="100%">
		<stop offset="0%" style="stop-color:white;stop-opacity:1"/>
		<stop offset="100%" style="stop-color:lightsteelblue;stop-opacity:1"/>
	</linearGradient>
</defs>
		
<style type="text/css">
	<![CDATA[ 
		
		* {
			font-family: Tahoma;
		} 
			
		.header {
			fill:url(#header_gradient);
		}
			
		.header_text {
			fill: black;
		}
			
		.footer {
			fill: none; 
		}
			
		.footer_text {
			fill: grey; 
		}
			
		.element {
			fill: url(#element_gradient); 
			stroke: midnightblue; 
			stroke-width: 1px;
			opacity: 0.75;
		}
			
		.element_detail {
			fill: black;
		}
			
		.element_detail_underline {
			stroke: black; 
			stroke-width: 1px;
		}
			
		.element_header {
			fill: black; 
		}
			
		.connector {
			fill: white; 
			stroke: dimgrey; 
			stroke-width: 1px;
		}
		
		.connector_text {
			fill: black; 
		}
		
		.connector_text_background {
			fill: white; 
			stroke: white;
			opacity: 0.9;
		}
		
		.history {
			fill: none;
			stroke: lightgrey;
			stroke-width: 1px;
		}
		 
	]]>
</style>


<line x1="478" y1="523" x2="477" y2="538" class="connector"/>
<line x1="488" y1="527" x2="477" y2="538" class="connector"/>


		<polygon points="478,523 488,527 477,538" 
			class="connector"/>
	

<line x1="521" y1="444" x2="483" y2="525" class="connector"/>




<line x1="359" y1="312" x2="344" y2="311" class="connector"/>
<line x1="353" y1="322" x2="344" y2="311" class="connector"/>

	

<line x1="485" y1="389" x2="344" y2="311" class="connector"/>

	
		<rect x="471" y="370" 
			width="7" height="12" class="connector_text_background"/>
		<text x="471" y="382" class="connector_text" 
			font-size="12">1</text>
	
		<rect x="365" y="311" 
			width="22" height="12" class="connector_text_background"/>
		<text x="365" y="323" class="connector_text" 
			font-size="12">0..n</text>



<line x1="627" y1="279" x2="629" y2="264" class="connector"/>
<line x1="617" y1="273" x2="629" y2="264" class="connector"/>

	

<line x1="551" y1="389" x2="629" y2="264" class="connector"/>

	
		<rect x="559" y="364" 
			width="7" height="12" class="connector_text_background"/>
		<text x="559" y="376" class="connector_text" 
			font-size="12">1</text>
	
		<rect x="617" y="273" 
			width="22" height="12" class="connector_text_background"/>
		<text x="617" y="285" class="connector_text" 
			font-size="12">0..n</text>



<line x1="266" y1="220" x2="253" y2="213" class="connector"/>
<line x1="257" y1="227" x2="253" y2="213" class="connector"/>


		<polygon points="266,220 257,227 253,213" 
			class="connector"/>
	

<line x1="302" y1="278" x2="261" y2="224" class="connector"/>




<line x1="644" y1="160" x2="638" y2="147" class="connector"/>
<line x1="633" y1="160" x2="638" y2="147" class="connector"/>


		<polygon points="644,160 633,160 638,147" 
			class="connector"/>
	

<line x1="639" y1="231" x2="638" y2="160" class="connector"/>




<line x1="383" y1="279" x2="370" y2="286" class="connector"/>
<line x1="384" y1="290" x2="370" y2="286" class="connector"/>

	

<line x1="577" y1="257" x2="370" y2="286" class="connector"/>

	
		<rect x="562" y="247" 
			width="7" height="12" class="connector_text_background"/>
		<text x="562" y="259" class="connector_text" 
			font-size="12">1</text>
	
		<rect x="394" y="271" 
			width="7" height="12" class="connector_text_background"/>
		<text x="394" y="283" class="connector_text" 
			font-size="12">2</text>



<line x1="605" y1="426" x2="590" y2="429" class="connector"/>
<line x1="602" y1="437" x2="590" y2="429" class="connector"/>


		<polygon points="605,426 602,437 590,429" 
			class="connector"/>
	

<line x1="783" y1="470" x2="603" y2="432" class="connector"/>




<line x1="248" y1="318" x2="260" y2="309" class="connector"/>
<line x1="245" y1="307" x2="260" y2="309" class="connector"/>


		<polygon points="248,318 245,307 260,309" 
			class="connector"/>
	

<line x1="97" y1="353" x2="246" y2="313" class="connector"/>




<line x1="716" y1="236" x2="703" y2="243" class="connector"/>
<line x1="717" y1="247" x2="703" y2="243" class="connector"/>


		<polygon points="716,236 717,247 703,243" 
			class="connector"/>
	

<line x1="911" y1="226" x2="717" y2="241" class="connector"/>


	

<rect name="Graph" x="353" y="538" 
    width="152" height="205" rx="2" class="element"/>

<line x1="353" y1="559" 
    x2="505" y2="559" class="element"/>



<text x="358" 
    y="554" font-size="14" class="element_header">Graph</text>
<text x="358" y="573" 
	class="element_detail" font-size="12">getEdges()</text>
	

<text x="358" y="588" 
	class="element_detail" font-size="12">getVertexes()</text>
	

<text x="358" y="603" 
	class="element_detail" font-size="12">getEdgeLengths()</text>
	

<text x="358" y="618" 
	class="element_detail" font-size="12">getSumEdgeLengths()</text>
	

<text x="358" y="633" 
	class="element_detail" font-size="12">getSize()</text>
	

<text x="358" y="648" 
	class="element_detail" font-size="12">recalcSize()</text>
	

<text x="358" y="663" 
	class="element_detail" font-size="12">setRequestedSize()</text>
	

<text x="358" y="678" 
	class="element_detail" font-size="12">rebase()</text>
	

<text x="358" y="693" 
	class="element_detail" font-size="12">rescale()</text>
	

<text x="358" y="708" 
	class="element_detail" font-size="12">rescaleToRequestedSize()</text>
	

<text x="358" y="723" 
	class="element_detail" font-size="12">getArea()</text>
	

<text x="358" y="738" 
	class="element_detail" font-size="12">addPositionToHistory()</text>
	

	

<rect name="Edge" x="586" y="32" 
    width="103" height="115" rx="2" class="element"/>

<line x1="586" y1="53" 
    x2="689" y2="53" class="element"/>



<text x="591" 
    y="48" font-size="14" class="element_header">Edge</text>
<text x="591" y="67" 
	class="element_detail" font-size="12">getStartVertex()</text>
	

<text x="591" y="82" 
	class="element_detail" font-size="12">getEndVertex()</text>
	

<text x="591" y="97" 
	class="element_detail" font-size="12">getLength()</text>
	

<text x="591" y="112" 
	class="element_detail" font-size="12">tan()</text>
	

<text x="591" y="127" 
	class="element_detail" font-size="12">sin()</text>
	

<text x="591" y="142" 
	class="element_detail" font-size="12">cos()</text>
	

	

<rect name="Vertex" x="137" y="83" 
    width="134" height="130" rx="2" class="element"/>

<line x1="137" y1="104" 
    x2="271" y2="104" class="element"/>



<text x="142" 
    y="99" font-size="14" class="element_header">Vertex</text>
<text x="142" y="118" 
	class="element_detail" font-size="12">getPosition()</text>
	

<text x="142" y="133" 
	class="element_detail" font-size="12">getCenterPosition()</text>
	

<text x="142" y="148" 
	class="element_detail" font-size="12">getAltPosition()</text>
	

<text x="142" y="163" 
	class="element_detail" font-size="12">getSize()</text>
	

<text x="142" y="178" 
	class="element_detail" font-size="12">getPosHistory()</text>
	

<text x="142" y="193" 
	class="element_detail" font-size="12">addPositionToHistory()</text>
	

<text x="142" y="208" 
	class="element_detail" font-size="12">tan()</text>
	

	

<rect name="AbstractDiagram" x="478" y="389" 
    width="112" height="55" rx="2" class="element"/>

<line x1="478" y1="410" 
    x2="590" y2="410" class="element"/>



<text x="483" 
    y="405" font-size="14" class="element_header">AbstractDiagram</text>
<text x="483" y="424" 
	class="element_detail" font-size="12">width</text>
	

<text x="483" y="439" 
	class="element_detail" font-size="12">height</text>
	

	

<rect name="AbstractElement" x="260" y="278" 
    width="110" height="33" rx="2" class="element"/>

<line x1="260" y1="299" 
    x2="370" y2="299" class="element"/>



<text x="265" 
    y="294" font-size="14" class="element_header">AbstractElement</text>
	

<rect name="AbstractConnector" x="577" y="231" 
    width="126" height="33" rx="2" class="element"/>

<line x1="577" y1="252" 
    x2="703" y2="252" class="element"/>



<text x="582" 
    y="247" font-size="14" class="element_header">AbstractConnector</text>
	

<rect name="ClassDiagram" x="783" y="463" 
    width="91" height="33" rx="2" class="element"/>

<line x1="783" y1="484" 
    x2="874" y2="484" class="element"/>



<text x="788" 
    y="479" font-size="14" class="element_header">ClassDiagram</text>
	

<rect name="ClassElement" x="8" y="349" 
    width="89" height="33" rx="2" class="element"/>

<line x1="8" y1="370" 
    x2="97" y2="370" class="element"/>



<text x="13" 
    y="365" font-size="14" class="element_header">ClassElement</text>
	

<rect name="ClassConnector" x="911" y="205" 
    width="105" height="33" rx="2" class="element"/>

<line x1="911" y1="226" 
    x2="1016" y2="226" class="element"/>



<text x="916" 
    y="221" font-size="14" class="element_header">ClassConnector</text>
<rect x="0" y="0" width="1024" height="24" rx="2" class="header"/>
<text x="6" y="18" font-size="16" class="header_text">Sample Class Diagram -- ModSL Core</text>
<rect x="0" 
	y="755" 
	width="1024" 
	height="13" 
	class="footer"/>
	
<text x="5" 
	y="763" 
	font-size="10" 
	class="footer_text">Created by ModSL in [(parsing:16), (layout:31), (svg_rendering:563)]:610 milliseconds. Layout (866.5785,935.2129) -> Final (1024.0,768.0).</text>

</svg>

