<?xml version="1.0"?>
<!DOCTYPE svg PUBLIC "-//W3C//DTD SVG 1.1//EN" "http://www.w3.org/Graphics/SVG/1.1/DTD/svg11.dtd">

<svg xmlns="http://www.w3.org/2000/svg" width="1024" height="768">
<defs>
	<linearGradient id="header_gradient" x1="10%" y1="50%" x2="100%" y2="100%">
		<stop offset="0%" style="stop-color:white; stop-opacity:1"/>
		<stop offset="100%" style="stop-color:lightsteelblue; stop-opacity:0.5"/>
	</linearGradient>
	<linearGradient id="element_gradient" x1="30%" y1="0%" x2="100%" y2="100%">
		<stop offset="0%" style="stop-color:white;stop-opacity:1"/>
		<stop offset="100%" style="stop-color:lightsteelblue;stop-opacity:1"/>
	</linearGradient>
</defs>
		
<style type="text/css">
	<![CDATA[ 
		
		* {
			font-family: Tahoma, Verdana, Arial;
		} 
			
		.header {
			fill:url(#header_gradient);
		}
			
		.header_text {
			fill: black;
		}
			
		.footer {
			fill: none; 
		}
			
		.footer_text {
			fill: grey; 
		}
			
		.element {
			fill: url(#element_gradient); 
			stroke: midnightblue; 
			stroke-width: 1px;
			opacity: 0.75;
		}
			
		.element_detail {
			fill: black;
		}
			
		.element_detail_underline {
			stroke: black; 
			stroke-width: 1px;
		}
			
		.element_header {
			fill: black; 
		}
			
		.connector {
			fill: white; 
			stroke: dimgrey; 
			stroke-width: 1px;
		}
		
		.connector_text {
			fill: black; 
		}
		
		.connector_text_background {
			fill: white; 
			stroke: white;
			opacity: 0.9;
		}
		
		.history {
			fill: none;
			stroke: lightgrey;
			stroke-width: 1px;
		}
		 
	]]>
</style>
<path d="M1267,497 L1105,513 947,483 900,432 1019,507 863,529 1013,500 870,534 1013,512 881,548 1016,539 888,553 1011,550 895,558 1005,561 902,564 997,570 909,571 989,578 915,576 982,584 921,581 975,588 926,583 969,589 931,586 964,591 934,589 959,594 938,596 956,601 939,603 952,607 940,608 948,613 941,616 945,620 940,621 941,625 938,626 937,629 936,630 935,632 934,632 934,633 933,634 933,634 933,635 933,635 932,635 932,636 932,636 932,636 932,636 932,636 932,636 932,636 932,636 932,636 932,636 932,636 932,636 932,636 932,636 932,636 932,636 932,636 932,636 932,636 932,636 932,636 932,636 932,636 932,636 932,636 932,636 932,636 932,636 932,636 932,636 932,636 932,636 932,636 932,636 932,636 932,636 932,636 932,636 932,636 932,636 932,636 932,636 932,636 932,636 932,636 932,636 932,636 932,636 932,636 932,636 932,636 932,636 932,636 932,636 932,636 932,636 932,636 932,636 932,636 932,636 932,636 932,636 932,636 932,636 932,636 932,636 932,636 932,636 932,636 932,636 932,636 932,636 932,636 932,636 932,636 932,636 932,636 932,636 932,636 932,636 932,636 932,636 932,636 932,636 932,636 932,636 932,636 932,636 932,636 932,636 932,636 932,636 932,636 932,636 932,636 932,636 932,636 932,636 932,636 932,636 932,636 932,636 932,636 932,636 932,636 932,636 932,636 932,636 932,636 932,636 932,636 932,636 932,636 932,636 932,636 932,636 932,636 932,636 932,636 932,636 932,636 932,636 932,636 932,636 932,636 932,636 932,636 932,636 932,636 932,636 932,636 932,636 932,636 932,636 932,636 932,636 932,636 932,636 932,636 932,636 932,636 932,636 932,636 932,636 932,636 932,636 932,636 932,636 932,636 932,636 932,636 " class="history"/>
<path d="M-234,169 L-132,261 20,302 78,230 -68,278 79,319 -45,253 80,313 -44,257 72,316 -43,263 65,314 -39,268 59,313 -35,273 51,312 -31,278 44,310 -26,283 38,309 -21,286 32,307 -15,287 29,302 -7,284 28,296 0,281 27,290 9,279 30,286 20,277 35,282 27,274 38,277 42,275 51,275 46,272 51,270 49,267 53,266 52,264 54,263 55,262 56,261 57,260 57,260 58,259 58,259 58,259 58,259 59,258 59,258 59,258 59,258 59,258 59,258 59,258 59,258 59,258 59,258 59,258 59,258 59,258 59,258 59,258 59,258 59,258 59,258 59,258 59,258 59,258 59,258 59,258 59,258 59,258 59,258 59,258 59,258 59,258 59,258 59,258 59,258 59,258 59,258 59,258 59,258 59,258 59,258 59,258 59,258 59,258 59,258 59,258 59,258 59,258 59,258 59,258 59,258 59,258 59,258 59,258 59,258 59,258 59,258 59,258 59,258 59,258 59,258 59,258 59,258 59,258 59,258 59,258 59,258 59,258 59,258 59,258 59,258 59,258 59,258 59,258 59,258 59,258 59,258 59,258 59,258 59,258 59,258 59,258 59,258 59,258 59,258 59,258 59,258 59,258 59,258 59,258 59,258 59,258 59,258 59,258 59,258 59,258 59,258 59,258 59,258 59,258 59,258 59,258 59,258 59,258 59,258 59,258 59,258 59,258 59,258 59,258 59,258 59,258 59,258 59,258 59,258 59,258 59,258 59,258 59,258 59,258 59,258 59,258 59,258 59,258 59,258 59,258 59,258 59,258 59,258 59,258 59,258 59,258 59,258 59,258 59,258 59,258 59,258 59,258 59,258 59,258 59,258 59,258 59,258 59,258 59,258 59,258 59,258 59,258 59,258 59,258 59,258 59,258 59,258 59,258 " class="history"/>
<path d="M161,-91 L289,-17 340,93 279,181 380,91 374,88 293,34 390,118 263,64 382,120 272,62 380,114 283,59 377,109 294,58 374,104 304,57 372,98 317,55 370,92 326,55 369,87 353,49 379,79 368,50 388,74 384,55 399,74 392,56 402,70 404,64 413,74 412,64 418,72 420,66 424,71 430,69 433,73 436,70 438,73 441,72 443,73 445,73 446,74 447,74 448,74 449,74 450,74 450,74 450,74 451,74 451,74 451,74 451,74 451,74 451,74 451,74 451,74 451,74 451,74 451,74 451,74 451,74 451,74 451,74 451,74 451,74 451,74 451,74 451,74 451,74 451,74 451,74 451,74 451,74 451,74 451,74 451,74 451,74 451,74 451,74 451,74 451,74 451,74 451,74 451,74 451,74 451,74 451,74 451,74 451,74 451,74 451,74 451,74 451,74 451,74 451,74 451,74 451,74 451,74 451,74 451,74 451,74 451,74 451,74 451,74 451,74 451,75 451,75 451,75 451,75 451,75 451,75 451,75 451,75 451,75 451,75 451,75 451,75 451,75 451,75 451,75 451,75 451,75 451,75 451,75 451,75 451,75 451,75 451,75 451,75 451,75 451,75 451,75 451,75 451,75 451,75 451,75 451,75 451,75 451,75 451,75 451,75 451,75 451,75 451,75 451,75 451,75 451,75 451,75 451,75 451,75 451,75 451,75 451,75 451,75 451,75 451,75 451,75 451,75 451,75 451,75 451,75 451,75 451,75 451,75 451,75 451,75 451,75 451,75 451,75 451,75 451,75 451,75 451,75 451,75 451,75 451,75 451,75 451,75 451,75 451,75 451,75 451,75 451,75 451,75 451,75 451,75 451,75 451,75 451,75 451,75 451,75 451,75 451,75 451,75 451,75 451,75 451,75 451,75 451,75 " class="history"/>
<path d="M1026,813 L915,727 805,640 697,553 583,471 713,537 586,472 699,545 617,457 677,549 620,460 678,544 623,464 674,540 626,469 670,536 629,474 665,532 630,479 662,527 631,484 650,526 625,491 650,521 625,495 635,522 620,500 633,519 622,502 632,517 623,505 627,516 622,507 626,515 622,508 626,513 622,510 623,513 621,511 622,513 619,515 620,516 618,517 619,518 618,518 619,519 618,519 618,519 618,519 618,519 617,519 618,520 617,520 617,520 617,520 617,520 617,520 617,520 617,520 617,520 617,520 617,520 617,520 617,520 617,520 617,520 617,520 617,520 617,520 617,520 617,520 617,520 617,520 617,520 617,520 617,520 617,520 617,520 617,520 617,520 617,520 617,520 617,520 617,520 617,520 617,520 617,520 617,520 617,520 617,520 617,520 617,520 617,520 617,520 617,520 617,520 617,520 617,520 617,520 617,520 617,520 617,520 617,520 617,520 617,520 617,520 617,520 617,520 617,520 617,520 617,520 617,520 617,520 617,520 617,520 617,520 617,520 617,520 617,520 617,520 617,520 617,520 617,520 617,520 617,520 617,520 617,520 617,520 617,520 617,520 617,520 617,520 617,520 617,520 617,520 617,520 617,520 617,520 617,520 617,520 617,520 617,520 617,520 617,520 617,520 617,520 617,520 617,520 617,520 617,520 617,520 617,520 617,520 617,520 617,520 617,520 617,520 617,520 617,520 617,520 617,520 617,520 617,520 617,520 617,520 617,520 617,520 617,520 617,520 617,520 617,520 617,520 617,520 617,520 617,520 617,520 617,520 617,520 617,520 617,520 617,520 617,520 617,520 617,520 617,520 617,520 617,520 617,520 617,520 617,520 617,520 617,520 617,520 617,520 617,520 617,520 617,520 617,520 617,520 617,520 617,520 " class="history"/>
<path d="M671,-175 L633,-60 593,53 550,165 527,280 611,183 484,247 569,157 517,256 588,168 520,252 586,172 526,249 583,176 531,246 582,182 538,242 577,193 540,246 573,198 544,242 553,232 535,270 554,237 538,266 554,241 542,264 557,245 549,263 560,249 553,262 566,254 560,264 567,256 566,263 572,260 574,264 579,262 578,266 581,264 582,266 584,266 586,267 588,267 589,268 590,268 590,268 591,269 591,269 591,269 592,269 592,269 592,269 592,269 592,269 592,269 592,269 592,269 592,269 592,269 592,269 592,269 592,269 592,269 592,269 592,269 592,269 592,269 592,269 592,269 592,269 592,269 592,269 592,269 592,269 592,269 592,269 592,269 592,269 592,269 592,269 592,269 592,269 592,269 592,269 592,269 592,269 592,269 592,269 592,269 592,269 592,269 592,269 592,269 592,269 592,269 592,269 592,269 592,269 592,269 592,269 592,269 592,269 592,269 592,269 592,269 592,269 592,269 592,269 592,269 592,269 592,269 592,269 592,269 592,269 592,269 592,269 592,269 592,269 592,269 592,269 592,269 592,269 592,269 592,269 592,269 592,269 592,269 592,269 592,269 592,269 592,269 592,269 592,269 592,269 592,269 592,269 592,269 592,269 592,269 592,269 592,269 592,269 592,269 592,269 592,269 592,269 592,269 592,269 592,269 592,269 592,269 592,269 592,269 592,269 592,269 592,269 592,269 592,269 592,269 592,269 592,269 592,269 592,269 592,269 592,269 592,269 592,269 592,269 592,269 592,269 592,269 592,269 592,269 592,269 592,269 592,269 592,269 592,269 592,269 592,269 592,269 592,269 592,269 592,269 592,269 592,269 592,269 592,269 592,269 592,269 592,269 592,269 592,269 592,269 592,269 592,269 592,269 592,269 592,269 592,269 " class="history"/>
<path d="M-267,503 L-108,475 49,446 206,416 364,391 207,408 355,374 213,413 347,369 220,414 342,371 224,411 337,375 230,407 331,377 236,404 325,379 242,401 318,382 248,399 312,383 254,397 307,387 260,397 303,389 264,394 297,388 285,389 311,386 289,390 308,387 293,390 306,387 311,382 321,384 314,380 321,381 315,382 320,382 318,379 321,379 322,378 323,379 323,378 324,378 323,377 324,377 324,377 324,377 324,377 324,377 324,377 324,377 324,377 324,377 324,377 324,377 324,377 324,377 324,377 324,377 324,377 324,377 324,377 324,377 324,377 324,377 324,377 324,377 324,377 324,377 324,377 324,377 324,377 324,377 324,377 324,377 324,377 324,377 324,377 324,377 324,377 324,377 324,377 324,377 324,377 324,377 324,377 324,377 324,377 324,377 324,377 324,377 324,377 324,377 324,377 324,377 324,377 324,377 324,377 324,377 324,377 324,377 324,377 324,377 324,377 324,377 324,377 324,377 324,377 324,377 324,377 324,377 324,377 324,377 324,377 324,377 324,377 324,377 324,377 324,377 324,377 324,377 324,377 324,377 324,377 324,377 324,377 324,377 324,377 324,377 324,377 324,377 324,377 324,377 324,377 324,377 324,377 324,377 324,377 324,377 324,377 324,377 324,377 324,377 324,377 324,377 324,377 324,377 324,377 324,377 324,377 324,377 324,377 324,377 324,377 324,377 324,377 324,377 324,377 324,377 324,377 324,377 324,377 324,377 324,377 324,377 324,377 324,377 324,377 324,377 324,377 324,377 324,377 324,377 324,377 324,377 324,377 324,377 324,377 324,377 324,377 324,377 324,377 324,377 324,377 324,377 324,377 324,377 324,377 324,377 324,377 324,377 324,377 324,377 324,377 324,377 324,377 324,377 324,377 324,377 " class="history"/>
<path d="M530,912 L596,804 565,689 439,620 589,663 563,716 494,713 571,634 468,709 560,631 466,702 554,633 471,699 549,637 478,697 545,641 485,694 541,645 492,692 531,656 492,696 525,658 496,692 514,677 490,703 505,677 488,699 499,682 485,698 487,686 477,697 480,687 473,695 471,691 464,697 461,694 455,696 453,692 450,695 447,693 444,694 442,695 440,695 438,695 437,695 436,695 435,695 435,695 434,695 434,695 433,695 433,695 433,695 433,695 433,695 433,695 433,695 433,695 433,695 433,695 433,695 433,695 433,695 433,695 433,695 433,695 433,695 433,695 433,695 433,695 433,695 433,695 433,695 433,695 433,695 433,695 433,695 433,695 433,695 433,695 433,695 433,695 433,695 433,695 433,695 433,695 433,695 433,695 433,695 433,695 433,695 433,695 433,695 433,695 433,695 433,695 433,695 433,695 433,695 433,695 433,695 433,695 433,695 433,695 433,695 433,695 433,695 433,695 433,695 433,695 433,695 433,695 433,695 433,695 433,695 433,695 433,695 433,695 433,695 433,695 433,695 433,695 433,695 433,695 433,695 433,695 433,695 433,695 433,695 433,695 433,695 433,695 433,695 433,695 433,695 433,695 433,695 433,695 433,695 433,695 433,695 433,695 433,695 433,695 433,695 433,695 433,695 433,695 433,695 433,695 433,695 433,695 433,695 433,695 433,695 433,695 433,695 433,695 433,695 433,695 433,695 433,695 433,695 433,695 433,695 433,695 433,695 433,695 433,695 433,695 433,695 433,695 433,695 433,695 433,695 433,695 433,695 433,695 433,695 433,695 433,695 433,695 433,695 433,695 433,695 433,695 433,695 433,695 433,695 433,695 433,695 433,695 433,695 433,695 433,695 433,695 433,695 433,695 433,695 433,695 433,695 " class="history"/>
<path d="M1095,42 L931,46 801,117 845,213 821,123 684,181 839,169 721,162 868,154 728,168 863,157 734,168 856,154 740,165 848,149 746,162 839,145 753,158 829,139 759,157 823,140 767,154 815,134 773,153 812,138 779,154 810,143 786,155 809,147 791,157 808,150 800,158 812,153 808,159 817,156 820,158 826,156 823,160 828,159 829,161 832,161 834,162 836,163 837,163 838,164 839,164 840,165 840,165 840,165 841,165 841,165 841,165 841,165 841,165 841,165 841,166 841,166 841,166 841,166 841,166 841,166 841,166 841,166 841,166 841,166 841,166 841,166 841,166 841,166 841,166 841,166 841,166 841,166 841,166 841,166 841,166 841,166 841,166 841,166 841,166 841,166 841,166 841,166 841,166 841,166 841,166 841,166 841,166 841,166 841,166 841,166 841,166 841,166 841,166 841,166 841,166 841,166 841,166 841,166 841,166 841,166 841,166 841,166 841,166 841,166 841,166 841,166 841,166 841,166 841,166 841,166 841,166 841,166 841,166 841,166 841,166 841,166 841,166 841,166 841,166 841,166 841,166 841,166 841,166 841,166 841,166 841,166 841,166 841,166 841,166 841,166 841,166 841,166 841,166 841,166 841,166 841,166 841,166 841,166 841,166 841,166 841,166 841,166 841,166 841,166 841,166 841,166 841,166 841,166 841,166 841,166 841,166 841,166 841,166 841,166 841,166 841,166 841,166 841,166 841,166 841,166 841,166 841,166 841,166 841,166 841,166 841,166 841,166 841,166 841,166 841,166 841,166 841,166 841,166 841,166 841,166 841,166 841,166 841,166 841,166 841,166 841,166 841,166 841,166 841,166 841,166 841,166 841,166 841,166 841,166 841,166 841,166 841,166 841,166 841,166 841,166 841,166 841,166 841,166 841,166 841,166 " class="history"/>
<path d="M26,814 L25,696 105,594 230,626 77,589 197,515 172,625 202,518 166,620 196,521 151,613 187,523 141,606 179,527 134,599 172,530 129,591 165,533 126,584 157,536 123,578 150,539 119,571 141,539 115,565 132,540 110,559 123,539 103,551 116,538 100,546 109,536 96,540 103,533 106,526 102,522 95,523 99,520 94,519 95,517 94,515 94,513 94,512 93,511 92,510 92,509 91,509 91,508 91,508 91,508 91,508 91,508 91,507 90,507 90,507 90,507 90,507 90,507 90,507 90,507 90,507 90,507 90,507 90,507 90,507 90,507 90,507 90,507 90,507 90,507 90,507 90,507 90,507 90,507 90,507 90,507 90,507 90,507 90,507 90,507 90,507 90,507 90,507 90,507 90,507 90,507 90,507 90,507 90,507 90,507 90,507 90,507 90,507 90,507 90,507 90,507 90,507 90,507 90,507 90,507 90,507 90,507 90,507 90,507 90,507 90,507 90,507 90,507 90,507 90,507 90,507 90,507 90,507 90,507 90,507 90,507 90,507 90,507 90,507 90,507 90,507 90,507 90,507 90,507 90,507 90,507 90,507 90,507 90,507 90,507 90,507 90,507 90,507 90,507 90,507 90,507 90,507 90,507 90,507 90,507 90,507 90,507 90,507 90,507 90,507 90,507 90,507 90,507 90,507 90,507 90,507 90,507 90,507 90,507 90,507 90,507 90,507 90,507 90,507 90,507 90,507 90,507 90,507 90,507 90,507 90,507 90,507 90,507 90,507 90,507 90,507 90,507 90,507 90,507 90,507 90,507 90,507 90,507 90,507 90,507 90,507 90,507 90,507 90,507 90,507 90,507 90,507 90,507 90,507 90,507 90,507 90,507 90,507 90,507 90,507 90,507 90,507 90,507 90,507 90,507 90,507 " class="history"/>


<line x1="829" y1="606" x2="849" y2="605" class="connector"/>
<line x1="834" y1="592" x2="849" y2="605" class="connector"/>


		<polygon points="829,606 834,592 849,605" class="connector"/>
	

<line x1="683" y1="544" x2="831" y2="599" class="connector"/>




<line x1="603" y1="303" x2="594" y2="285" class="connector"/>
<line x1="588" y1="305" x2="594" y2="285" class="connector"/>

	

<line x1="609" y1="442" x2="594" y2="285" class="connector"/>

	
		<rect x="607" y="410" width="7" height="12" class="connector_text_background"/>
		<text x="607" y="422" class="connector_text" font-size="12">1</text>
	
		<rect x="597" y="306" width="20" height="12" class="connector_text_background"/>
		<text x="597" y="318" class="connector_text" font-size="12">0..n</text>



<line x1="377" y1="394" x2="357" y2="393" class="connector"/>
<line x1="370" y1="408" x2="357" y2="393" class="connector"/>

	

<line x1="552" y1="488" x2="357" y2="393" class="connector"/>

	
		<rect x="533" y="467" width="7" height="12" class="connector_text_background"/>
		<text x="533" y="479" class="connector_text" font-size="12">1</text>
	
		<rect x="386" y="395" width="20" height="12" class="connector_text_background"/>
		<text x="386" y="407" class="connector_text" font-size="12">0..n</text>



<line x1="517" y1="152" x2="500" y2="142" class="connector"/>
<line x1="504" y1="161" x2="500" y2="142" class="connector"/>


		<polygon points="517,152 504,161 500,142" class="connector"/>
	

<line x1="581" y1="253" x2="511" y2="156" class="connector"/>




<line x1="130" y1="282" x2="111" y2="281" class="connector"/>
<line x1="124" y1="296" x2="111" y2="281" class="connector"/>


		<polygon points="130,282 124,296 111,281" class="connector"/>
	

<line x1="289" y1="361" x2="127" y2="289" class="connector"/>




<line x1="538" y1="299" x2="552" y2="285" class="connector"/>
<line x1="532" y1="285" x2="552" y2="285" class="connector"/>

	

<line x1="364" y1="361" x2="552" y2="285" class="connector"/>

	
		<rect x="383" y="341" width="7" height="12" class="connector_text_background"/>
		<text x="383" y="353" class="connector_text" font-size="12">1</text>
	
		<rect x="522" y="285" width="7" height="12" class="connector_text_background"/>
		<text x="522" y="297" class="connector_text" font-size="12">2</text>



<line x1="544" y1="600" x2="552" y2="582" class="connector"/>
<line x1="533" y1="589" x2="552" y2="582" class="connector"/>


		<polygon points="544,600 533,589 552,582" class="connector"/>
	

<line x1="450" y1="679" x2="538" y2="595" class="connector"/>




<line x1="645" y1="239" x2="631" y2="253" class="connector"/>
<line x1="651" y1="253" x2="631" y2="253" class="connector"/>


		<polygon points="645,239 651,253 631,253" class="connector"/>
	

<line x1="803" y1="182" x2="648" y2="246" class="connector"/>




<line x1="283" y1="408" x2="296" y2="393" class="connector"/>
<line x1="276" y1="395" x2="296" y2="393" class="connector"/>


		<polygon points="283,408 276,395 296,393" class="connector"/>
	

<line x1="119" y1="491" x2="279" y2="402" class="connector"/>


	

<rect name="Graph" x="849" y="532" width="167" height="209" rx="2" class="element"/>
<line x1="849" y1="555" x2="1016" y2="555" class="element"/>


<text x="854" y="548" font-size="14" class="element_header">Graph</text>
<text x="854" y="571" class="element_detail" font-size="12">getEdges()</text>

<text x="854" y="586" class="element_detail" font-size="12">getVertexes()</text>

<text x="854" y="601" class="element_detail" font-size="12">getEdgeLengths()</text>

<text x="854" y="616" class="element_detail" font-size="12">getSumEdgeLengths()</text>

<text x="854" y="631" class="element_detail" font-size="12">getSize()</text>

<text x="854" y="646" class="element_detail" font-size="12">recalcSize()</text>

<text x="854" y="661" class="element_detail" font-size="12">setRequestedSize()</text>

<text x="854" y="676" class="element_detail" font-size="12">rebase()</text>

<text x="854" y="691" class="element_detail" font-size="12">rescale()</text>

<text x="854" y="706" class="element_detail" font-size="12">rescaleToRequestedSize()</text>

<text x="854" y="721" class="element_detail" font-size="12">getArea()</text>

<text x="854" y="736" class="element_detail" font-size="12">addPositionToHistory()</text>

	

<rect name="Edge" x="8" y="198" width="103" height="119" rx="2" class="element"/>
<line x1="8" y1="221" x2="111" y2="221" class="element"/>


<text x="13" y="214" font-size="14" class="element_header">Edge</text>
<text x="13" y="237" class="element_detail" font-size="12">getStartVertex()</text>

<text x="13" y="252" class="element_detail" font-size="12">getEndVertex()</text>

<text x="13" y="267" class="element_detail" font-size="12">getLength()</text>

<text x="13" y="282" class="element_detail" font-size="12">tan()</text>

<text x="13" y="297" class="element_detail" font-size="12">sin()</text>

<text x="13" y="312" class="element_detail" font-size="12">cos()</text>

	

<rect name="Vertex" x="378" y="8" width="146" height="134" rx="2" class="element"/>
<line x1="378" y1="31" x2="524" y2="31" class="element"/>


<text x="383" y="24" font-size="14" class="element_header">Vertex</text>
<text x="383" y="47" class="element_detail" font-size="12">getPosition()</text>

<text x="383" y="62" class="element_detail" font-size="12">getCenterPosition()</text>

<text x="383" y="77" class="element_detail" font-size="12">getAltPosition()</text>

<text x="383" y="92" class="element_detail" font-size="12">getSize()</text>

<text x="383" y="107" class="element_detail" font-size="12">getPosHistory()</text>

<text x="383" y="122" class="element_detail" font-size="12">addPositionToHistory()</text>

<text x="383" y="137" class="element_detail" font-size="12">tan()</text>

	

<rect name="AbstractDiagram" x="552" y="442" width="131" height="155" rx="2" class="element"/>
<line x1="552" y1="465" x2="683" y2="465" class="element"/>


	<line x1="552" y1="501" x2="683" y2="501" class="element"/>

<text x="557" y="458" font-size="14" class="element_header">AbstractDiagram</text>
<text x="557" y="517" class="element_detail" font-size="12">removeMePlease1()</text>

<text x="557" y="532" class="element_detail" font-size="12">staticGarbage0()</text>

		<line x1="557" y1="534" x2="649" y2="534" class="element_detail_underline"/>

<text x="557" y="547" class="element_detail" font-size="12">removeMePlease2()</text>

<text x="557" y="562" class="element_detail" font-size="12">removeMePlease3()</text>

<text x="557" y="577" class="element_detail" font-size="12">staticGarbage1()</text>

		<line x1="557" y1="579" x2="649" y2="579" class="element_detail_underline"/>

<text x="557" y="592" class="element_detail" font-size="12">staticGarbage2()</text>

		<line x1="557" y1="594" x2="649" y2="594" class="element_detail_underline"/>

<text x="557" y="481" class="element_detail" font-size="12">width</text>

<text x="557" y="496" class="element_detail" font-size="12">height</text>

	

<rect name="AbstractElement" x="536" y="253" width="113" height="32" rx="2" class="element"/>
<line x1="536" y1="276" x2="649" y2="276" class="element"/>


<text x="541" y="269" font-size="14" class="element_header">AbstractElement</text>
	

<rect name="AbstractConnector" x="260" y="361" width="128" height="32" rx="2" class="element"/>
<line x1="260" y1="384" x2="388" y2="384" class="element"/>


<text x="265" y="377" font-size="14" class="element_header">AbstractConnector</text>
	

<rect name="ClassDiagram" x="384" y="679" width="98" height="32" rx="2" class="element"/>
<line x1="384" y1="702" x2="482" y2="702" class="element"/>


<text x="389" y="695" font-size="14" class="element_header">ClassDiagram</text>
	

<rect name="ClassElement" x="793" y="150" width="96" height="32" rx="2" class="element"/>
<line x1="793" y1="173" x2="889" y2="173" class="element"/>


<text x="798" y="166" font-size="14" class="element_header">ClassElement</text>
	

<rect name="ClassConnector" x="35" y="491" width="111" height="32" rx="2" class="element"/>
<line x1="35" y1="514" x2="146" y2="514" class="element"/>


<text x="40" y="507" font-size="14" class="element_header">ClassConnector</text>
	
<rect x="0" y="749" width="1024" height="19" class="footer"/>
<text x="5" y="761" font-size="10" class="footer_text">Created by ModSL in 672 milliseconds (16, 31, 625). Layout (863.6616,814.0574) -> Final (1024.0,768.0).</text>

</svg>

