<?xml version="1.0"?>
<!DOCTYPE svg PUBLIC "-//W3C//DTD SVG 1.1//EN" "http://www.w3.org/Graphics/SVG/1.1/DTD/svg11.dtd">

<svg xmlns="http://www.w3.org/2000/svg" width="1024" height="768">
<defs>
	<linearGradient id="header_gradient" x1="10%" y1="50%" x2="100%" y2="100%">
		<stop offset="0%" style="stop-color:white; stop-opacity:1"/>
		<stop offset="100%" style="stop-color:lightsteelblue; stop-opacity:0.5"/>
	</linearGradient>
	<linearGradient id="element_gradient" x1="30%" y1="0%" x2="100%" y2="100%">
		<stop offset="0%" style="stop-color:white;stop-opacity:1"/>
		<stop offset="100%" style="stop-color:lightsteelblue;stop-opacity:1"/>
	</linearGradient>
</defs>
		
<style type="text/css">
	<![CDATA[ 
		
		* {
			font-family: Tahoma, Verdana, Arial;
		} 
			
		.header {
			fill:url(#header_gradient);
		}
			
		.header_text {
			fill: black;
		}
			
		.footer {
			fill: none; 
		}
			
		.footer_text {
			fill: grey; 
		}
			
		.element {
			fill: url(#element_gradient); 
			stroke: midnightblue; 
			stroke-width: 1px;
			opacity: 0.75;
		}
			
		.element_detail {
			fill: black;
		}
			
		.element_detail_underline {
			stroke: black; 
			stroke-width: 1px;
		}
			
		.element_header {
			fill: black; 
		}
			
		.connector {
			fill: white; 
			stroke: dimgrey; 
			stroke-width: 1px;
		}
		
		.connector_text {
			fill: black; 
		}
		
		.connector_text_background {
			fill: white; 
			stroke: white;
			opacity: 0.9;
		}
		
		.history {
			fill: none;
			stroke: lightgrey;
			stroke-width: 1px;
		}
		 
	]]>
</style>


<line x1="680" y1="174" x2="694" y2="159" class="connector"/>
<line x1="674" y1="160" x2="694" y2="159" class="connector"/>


		<polygon points="680,174 674,160 694,159" class="connector"/>
	

<line x1="551" y1="221" x2="677" y2="167" class="connector"/>




<line x1="613" y1="471" x2="629" y2="483" class="connector"/>
<line x1="626" y1="463" x2="629" y2="483" class="connector"/>

	

<line x1="533" y1="320" x2="629" y2="483" class="connector"/>

	
		<rect x="544" y="326" width="7" height="12" class="connector_text_background"/>
		<text x="544" y="338" class="connector_text" font-size="12">1</text>
	
		<rect x="613" y="443" width="20" height="12" class="connector_text_background"/>
		<text x="613" y="455" class="connector_text" font-size="12">0..n</text>



<line x1="338" y1="444" x2="334" y2="464" class="connector"/>
<line x1="351" y1="453" x2="334" y2="464" class="connector"/>

	

<line x1="437" y1="320" x2="334" y2="464" class="connector"/>

	
		<rect x="425" y="325" width="7" height="12" class="connector_text_background"/>
		<text x="425" y="337" class="connector_text" font-size="12">1</text>
	
		<rect x="352" y="425" width="20" height="12" class="connector_text_background"/>
		<text x="352" y="437" class="connector_text" font-size="12">0..n</text>



<line x1="861" y1="508" x2="880" y2="500" class="connector"/>
<line x1="861" y1="492" x2="880" y2="500" class="connector"/>


		<polygon points="861,508 861,492 880,500" class="connector"/>
	

<line x1="695" y1="499" x2="861" y2="500" class="connector"/>




<line x1="120" y1="414" x2="101" y2="416" class="connector"/>
<line x1="116" y1="429" x2="101" y2="416" class="connector"/>


		<polygon points="120,414 116,429 101,416" class="connector"/>
	

<line x1="267" y1="464" x2="118" y2="421" class="connector"/>




<line x1="563" y1="501" x2="582" y2="495" class="connector"/>
<line x1="564" y1="486" x2="582" y2="495" class="connector"/>

	

<line x1="386" y1="483" x2="582" y2="495" class="connector"/>

	
		<rect x="407" y="472" width="7" height="12" class="connector_text_background"/>
		<text x="407" y="484" class="connector_text" font-size="12">1</text>
	
		<rect x="550" y="481" width="7" height="12" class="connector_text_background"/>
		<text x="550" y="493" class="connector_text" font-size="12">2</text>



<line x1="419" y1="163" x2="436" y2="173" class="connector"/>
<line x1="431" y1="154" x2="436" y2="173" class="connector"/>


		<polygon points="419,163 431,154 436,173" class="connector"/>
	

<line x1="337" y1="39" x2="425" y2="159" class="connector"/>




<line x1="651" y1="531" x2="641" y2="514" class="connector"/>
<line x1="636" y1="533" x2="641" y2="514" class="connector"/>


		<polygon points="651,531 636,533 641,514" class="connector"/>
	

<line x1="672" y1="715" x2="644" y2="532" class="connector"/>




<line x1="322" y1="514" x2="319" y2="495" class="connector"/>
<line x1="307" y1="511" x2="319" y2="495" class="connector"/>


		<polygon points="322,514 307,511 319,495" class="connector"/>
	

<line x1="269" y1="698" x2="314" y2="513" class="connector"/>


	

<rect name="Graph" x="694" y="20" width="157" height="211" rx="2" class="element"/>
<line x1="694" y1="39" x2="851" y2="39" class="element"/>


<text x="699" y="35" font-size="14" class="element_header">Graph</text>
<text x="699" y="52" class="element_detail" font-size="12">getEdges()</text>

<text x="699" y="68" class="element_detail" font-size="12">getVertexes()</text>

<text x="699" y="84" class="element_detail" font-size="12">getEdgeLengths()</text>

<text x="699" y="100" class="element_detail" font-size="12">getSumEdgeLengths()</text>

<text x="699" y="116" class="element_detail" font-size="12">getSize()</text>

<text x="699" y="132" class="element_detail" font-size="12">recalcSize()</text>

<text x="699" y="148" class="element_detail" font-size="12">setRequestedSize()</text>

<text x="699" y="164" class="element_detail" font-size="12">rebase()</text>

<text x="699" y="180" class="element_detail" font-size="12">rescale()</text>

<text x="699" y="196" class="element_detail" font-size="12">rescaleToRequestedSize()</text>

<text x="699" y="212" class="element_detail" font-size="12">getArea()</text>

<text x="699" y="228" class="element_detail" font-size="12">addPositionToHistory()</text>

	

<rect name="Edge" x="8" y="346" width="93" height="115" rx="2" class="element"/>
<line x1="8" y1="365" x2="101" y2="365" class="element"/>


<text x="13" y="361" font-size="14" class="element_header">Edge</text>
<text x="13" y="378" class="element_detail" font-size="12">getStartVertex()</text>

<text x="13" y="394" class="element_detail" font-size="12">getEndVertex()</text>

<text x="13" y="410" class="element_detail" font-size="12">getLength()</text>

<text x="13" y="426" class="element_detail" font-size="12">tan()</text>

<text x="13" y="442" class="element_detail" font-size="12">sin()</text>

<text x="13" y="458" class="element_detail" font-size="12">cos()</text>

	

<rect name="Vertex" x="880" y="435" width="136" height="131" rx="2" class="element"/>
<line x1="880" y1="454" x2="1016" y2="454" class="element"/>


<text x="885" y="450" font-size="14" class="element_header">Vertex</text>
<text x="885" y="467" class="element_detail" font-size="12">getPosition()</text>

<text x="885" y="483" class="element_detail" font-size="12">getCenterPosition()</text>

<text x="885" y="499" class="element_detail" font-size="12">getAltPosition()</text>

<text x="885" y="515" class="element_detail" font-size="12">getSize()</text>

<text x="885" y="531" class="element_detail" font-size="12">getPosHistory()</text>

<text x="885" y="547" class="element_detail" font-size="12">addPositionToHistory()</text>

<text x="885" y="563" class="element_detail" font-size="12">tan()</text>

	

<rect name="AbstractDiagram" x="430" y="173" width="121" height="147" rx="2" class="element"/>
<line x1="430" y1="192" x2="551" y2="192" class="element"/>


	<line x1="430" y1="224" x2="551" y2="224" class="element"/>

<text x="435" y="188" font-size="14" class="element_header">AbstractDiagram</text>
<text x="435" y="237" class="element_detail" font-size="12">removeMePlease1()</text>

<text x="435" y="253" class="element_detail" font-size="12">staticGarbage0()</text>

		<line x1="435" y1="255" x2="527" y2="255" class="element_detail_underline"/>

<text x="435" y="269" class="element_detail" font-size="12">removeMePlease2()</text>

<text x="435" y="285" class="element_detail" font-size="12">removeMePlease3()</text>

<text x="435" y="301" class="element_detail" font-size="12">staticGarbage1()</text>

		<line x1="435" y1="303" x2="527" y2="303" class="element_detail_underline"/>

<text x="435" y="317" class="element_detail" font-size="12">staticGarbage2()</text>

		<line x1="435" y1="319" x2="527" y2="319" class="element_detail_underline"/>

<text x="435" y="205" class="element_detail" font-size="12">width</text>

<text x="435" y="221" class="element_detail" font-size="12">height</text>

	

<rect name="AbstractElement" x="582" y="483" width="113" height="31" rx="2" class="element"/>
<line x1="582" y1="502" x2="695" y2="502" class="element"/>


<text x="587" y="498" font-size="14" class="element_header">AbstractElement</text>
	

<rect name="AbstractConnector" x="258" y="464" width="128" height="31" rx="2" class="element"/>
<line x1="258" y1="483" x2="386" y2="483" class="element"/>


<text x="263" y="479" font-size="14" class="element_header">AbstractConnector</text>
	

<rect name="ClassDiagram" x="276" y="8" width="98" height="31" rx="2" class="element"/>
<line x1="276" y1="27" x2="374" y2="27" class="element"/>


<text x="281" y="23" font-size="14" class="element_header">ClassDiagram</text>
	

<rect name="ClassElement" x="626" y="715" width="96" height="31" rx="2" class="element"/>
<line x1="626" y1="734" x2="722" y2="734" class="element"/>


<text x="631" y="730" font-size="14" class="element_header">ClassElement</text>
	

<rect name="ClassConnector" x="210" y="698" width="111" height="31" rx="2" class="element"/>
<line x1="210" y1="717" x2="321" y2="717" class="element"/>


<text x="215" y="713" font-size="14" class="element_header">ClassConnector</text>
	

<rect x="0" 
	y="754" 
	width="1024" 
	height="14" 
	class="footer"/>
	
<text x="5" 
	y="765" 
	font-size="10" 
	class="footer_text">Created by ModSL in 1352 milliseconds (20, 591, 741). Layout (914.0062,699.6515) -> Final (1024.0,768.0).</text>

</svg>

