<?xml version="1.0"?>
<!DOCTYPE svg PUBLIC "-//W3C//DTD SVG 1.1//EN" "http://www.w3.org/Graphics/SVG/1.1/DTD/svg11.dtd">

<svg xmlns="http://www.w3.org/2000/svg" width="800" height="600">
	<defs>
		<linearGradient id="header_gradient" x1="10%" y1="50%" x2="100%" y2="100%">
			<stop offset="0%" style="stop-color:white; stop-opacity:1"/>
			<stop offset="100%" style="stop-color:lightsteelblue; stop-opacity:0.5"/>
		</linearGradient>
		<linearGradient id="element_gradient" x1="30%" y1="0%" x2="100%" y2="100%">
			<stop offset="0%" style="stop-color:white;stop-opacity:1"/>
			<stop offset="100%" style="stop-color:lightsteelblue;stop-opacity:1"/>
		</linearGradient>
	</defs>
		
	<style type="text/css">
		<![CDATA[ 
		
			* {
				font-family: Tahoma, Verdana, Arial;
			} 
			
			.header {
				fill:url(#header_gradient);
			}
			
			.header_text {
				fill: black;
			}
			
			.footer {
				fill: none; 
			}
			
			.footer_text {
				fill: grey; 
			}
			
			.element {
				fill: url(#element_gradient); 
				stroke: midnightblue; 
				stroke-width: 1px;
				opacity: 0.75;
			}
			
			.element_detail {
				fill: black;
			}
			
			.element_detail_underline {
				stroke: black; 
				stroke-width: 1px;
			}
			
			.element_header {
				fill: black; 
			}
			
			.connector {
				fill: white; 
				stroke: dimgrey; 
				stroke-width: 1px;
			}
			
			.connector_text {
				fill: black; 
			}
			
			.connector_text_background {
				fill: white; 
				stroke: white;
				opacity: 0.9;
			}
			
			.history {
				fill: none;
				stroke: lightgrey;
				stroke-width: 1px;
			}
			 
		]]>
	</style>

	<line x1="606" y1="211" x2="625" y2="203" class="connector"/>
	<line x1="606" y1="196" x2="625" y2="203" class="connector"/>
	<polygon points="606,211 606,196 625,203" class="connector"/>
	<line x1="519" y1="203" x2="606" y2="203" class="connector"/>

	<line x1="469" y1="360" x2="479" y2="377" class="connector"/>
	<line x1="484" y1="358" x2="479" y2="377" class="connector"/>
	<line x1="465" y1="281" x2="479" y2="377" class="connector"/>
	<rect x="468" y="289" width="7" height="12" class="connector_text_background"/>
	<text x="468" y="301" class="connector_text" font-size="12">1</text>
	<rect x="475" y="333" width="20" height="12" class="connector_text_background"/>
	<text x="475" y="345" class="connector_text" font-size="12">0..n</text>

	<line x1="296" y1="291" x2="284" y2="307" class="connector"/>
	<line x1="304" y1="304" x2="284" y2="307" class="connector"/>
	<line x1="388" y1="244" x2="284" y2="307" class="connector"/>
	<rect x="371" y="242" width="7" height="12" class="connector_text_background"/>
	<text x="371" y="254" class="connector_text" font-size="12">1</text>
	<rect x="312" y="278" width="20" height="12" class="connector_text_background"/>
	<text x="312" y="290" class="connector_text" font-size="12">0..n</text>

	<line x1="622" y1="455" x2="642" y2="454" class="connector"/>
	<line x1="628" y1="440" x2="642" y2="454" class="connector"/>
	<polygon points="622,455 628,440 642,454" class="connector"/>
	<line x1="524" y1="409" x2="625" y2="448" class="connector"/>

	<line x1="130" y1="271" x2="111" y2="272" class="connector"/>
	<line x1="125" y1="285" x2="111" y2="272" class="connector"/>
	<polygon points="130,271 125,285 111,272" class="connector"/>
	<line x1="212" y1="307" x2="128" y2="278" class="connector"/>

	<line x1="411" y1="379" x2="431" y2="377" class="connector"/>
	<line x1="415" y1="365" x2="431" y2="377" class="connector"/>
	<line x1="309" y1="339" x2="431" y2="377" class="connector"/>
	<rect x="328" y="333" width="7" height="12" class="connector_text_background"/>
	<text x="328" y="345" class="connector_text" font-size="12">1</text>
	<rect x="400" y="356" width="7" height="12" class="connector_text_background"/>
	<text x="400" y="368" class="connector_text" font-size="12">2</text>

	<line x1="385" y1="115" x2="402" y2="126" class="connector"/>
	<line x1="398" y1="106" x2="402" y2="126" class="connector"/>
	<polygon points="385,115 398,106 402,126" class="connector"/>
	<line x1="345" y1="40" x2="392" y2="111" class="connector"/>

	<line x1="482" y1="429" x2="478" y2="409" class="connector"/>
	<line x1="467" y1="426" x2="478" y2="409" class="connector"/>
	<polygon points="482,429 467,426 478,409" class="connector"/>
	<line x1="450" y1="541" x2="474" y2="427" class="connector"/>

	<line x1="245" y1="359" x2="248" y2="339" class="connector"/>
	<line x1="232" y1="351" x2="248" y2="339" class="connector"/>
	<polygon points="245,359 232,351 248,339" class="connector"/>
	<line x1="172" y1="465" x2="239" y2="355" class="connector"/>
	<rect name="Graph" x="625" y="99" width="167" height="209" rx="2" class="element"/>
	<line x1="625" y1="122" x2="792" y2="122" class="element"/>
	<line x1="625" y1="122" x2="792" y2="122" class="element"/>
	<text x="630" y="115" font-size="14" class="element_header">Graph</text>

	<text x="630" y="138" class="element_detail" font-size="12">getEdges()</text>
	<text x="630" y="153" class="element_detail" font-size="12">getVertexes()</text>
	<text x="630" y="168" class="element_detail" font-size="12">getEdgeLengths()</text>
	<text x="630" y="183" class="element_detail" font-size="12">getSumEdgeLengths()</text>
	<text x="630" y="198" class="element_detail" font-size="12">getSize()</text>
	<text x="630" y="213" class="element_detail" font-size="12">recalcSize()</text>
	<text x="630" y="228" class="element_detail" font-size="12">setRequestedSize()</text>
	<text x="630" y="243" class="element_detail" font-size="12">rebase()</text>
	<text x="630" y="258" class="element_detail" font-size="12">rescale()</text>
	<text x="630" y="273" class="element_detail" font-size="12">rescaleToRequestedSize()</text>
	<text x="630" y="288" class="element_detail" font-size="12">getArea()</text>
	<text x="630" y="303" class="element_detail" font-size="12">addPositionToHistory()</text>
	<rect name="Edge" x="8" y="195" width="103" height="119" rx="2" class="element"/>
	<line x1="8" y1="218" x2="111" y2="218" class="element"/>
	<line x1="8" y1="218" x2="111" y2="218" class="element"/>
	<text x="13" y="211" font-size="14" class="element_header">Edge</text>

	<text x="13" y="234" class="element_detail" font-size="12">getStartVertex()</text>
	<text x="13" y="249" class="element_detail" font-size="12">getEndVertex()</text>
	<text x="13" y="264" class="element_detail" font-size="12">getLength()</text>
	<text x="13" y="279" class="element_detail" font-size="12">tan()</text>
	<text x="13" y="294" class="element_detail" font-size="12">sin()</text>
	<text x="13" y="309" class="element_detail" font-size="12">cos()</text>
	<rect name="Vertex" x="642" y="415" width="146" height="134" rx="2" class="element"/>
	<line x1="642" y1="438" x2="788" y2="438" class="element"/>
	<line x1="642" y1="438" x2="788" y2="438" class="element"/>
	<text x="647" y="431" font-size="14" class="element_header">Vertex</text>

	<text x="647" y="454" class="element_detail" font-size="12">getPosition()</text>
	<text x="647" y="469" class="element_detail" font-size="12">getCenterPosition()</text>
	<text x="647" y="484" class="element_detail" font-size="12">getAltPosition()</text>
	<text x="647" y="499" class="element_detail" font-size="12">getSize()</text>
	<text x="647" y="514" class="element_detail" font-size="12">getPosHistory()</text>
	<text x="647" y="529" class="element_detail" font-size="12">addPositionToHistory()</text>
	<text x="647" y="544" class="element_detail" font-size="12">tan()</text>
	<rect name="AbstractDiagram" x="388" y="126" width="131" height="155" rx="2" class="element"/>
	<line x1="388" y1="149" x2="519" y2="149" class="element"/>
	<line x1="388" y1="185" x2="519" y2="185" class="element"/>
	<text x="393" y="142" font-size="14" class="element_header">AbstractDiagram</text>

	<text x="393" y="201" class="element_detail" font-size="12">removeMePlease1()</text>
	<text x="393" y="216" class="element_detail" font-size="12">staticGarbage0()</text>

	<line x1="393" y1="218" x2="485" y2="218" class="element_detail_underline"/>
	<text x="393" y="231" class="element_detail" font-size="12">removeMePlease2()</text>
	<text x="393" y="246" class="element_detail" font-size="12">removeMePlease3()</text>
	<text x="393" y="261" class="element_detail" font-size="12">staticGarbage1()</text>

	<line x1="393" y1="263" x2="485" y2="263" class="element_detail_underline"/>
	<text x="393" y="276" class="element_detail" font-size="12">staticGarbage2()</text>

	<line x1="393" y1="278" x2="485" y2="278" class="element_detail_underline"/>
	<text x="393" y="165" class="element_detail" font-size="12">width</text>
	<text x="393" y="180" class="element_detail" font-size="12">height</text>
	<rect name="AbstractElement" x="425" y="377" width="113" height="32" rx="2" class="element"/>
	<line x1="425" y1="400" x2="538" y2="400" class="element"/>
	<line x1="425" y1="400" x2="538" y2="400" class="element"/>
	<text x="430" y="393" font-size="14" class="element_header">AbstractElement</text>

	<rect name="AbstractConnector" x="194" y="307" width="128" height="32" rx="2" class="element"/>
	<line x1="194" y1="330" x2="322" y2="330" class="element"/>
	<line x1="194" y1="330" x2="322" y2="330" class="element"/>
	<text x="199" y="323" font-size="14" class="element_header">AbstractConnector</text>

	<rect name="ClassDiagram" x="285" y="8" width="98" height="32" rx="2" class="element"/>
	<line x1="285" y1="31" x2="383" y2="31" class="element"/>
	<line x1="285" y1="31" x2="383" y2="31" class="element"/>
	<text x="290" y="24" font-size="14" class="element_header">ClassDiagram</text>

	<rect name="ClassElement" x="399" y="541" width="96" height="32" rx="2" class="element"/>
	<line x1="399" y1="564" x2="495" y2="564" class="element"/>
	<line x1="399" y1="564" x2="495" y2="564" class="element"/>
	<text x="404" y="557" font-size="14" class="element_header">ClassElement</text>

	<rect name="ClassConnector" x="106" y="465" width="111" height="32" rx="2" class="element"/>
	<line x1="106" y1="488" x2="217" y2="488" class="element"/>
	<line x1="106" y1="488" x2="217" y2="488" class="element"/>
	<text x="111" y="481" font-size="14" class="element_header">ClassConnector</text>

	<rect x="0" y="581" width="800" height="19" class="footer"/>
	<text x="5" y="593" font-size="10" class="footer_text">Created by ModSL in 500 milliseconds (16, 16, 468). Layout (732.87195,600.61365) -> Final (800.0,600.0).</text>
	
</svg>

