<?xml version="1.0"?>
<!DOCTYPE svg PUBLIC "-//W3C//DTD SVG 1.1//EN" "http://www.w3.org/Graphics/SVG/1.1/DTD/svg11.dtd">

<svg xmlns="http://www.w3.org/2000/svg" width="800" height="600">
<defs>
	<linearGradient id="header_gradient" x1="10%" y1="50%" x2="100%" y2="100%">
		<stop offset="0%" style="stop-color:white; stop-opacity:1"/>
		<stop offset="100%" style="stop-color:lightsteelblue; stop-opacity:0.5"/>
	</linearGradient>
	<linearGradient id="element_gradient" x1="30%" y1="0%" x2="100%" y2="100%">
		<stop offset="0%" style="stop-color:white;stop-opacity:1"/>
		<stop offset="100%" style="stop-color:lightsteelblue;stop-opacity:1"/>
	</linearGradient>
</defs>
		
<style type="text/css">
	<![CDATA[ 
		
		* {
			font-family: Tahoma, Verdana, Arial;
		} 
			
		.header {
			fill:url(#header_gradient);
		}
			
		.header_text {
			fill: black;
		}
			
		.footer {
			fill: none; 
		}
			
		.footer_text {
			fill: grey; 
		}
			
		.element {
			fill: url(#element_gradient); 
			stroke: midnightblue; 
			stroke-width: 1px;
			opacity: 0.75;
		}
			
		.element_detail {
			fill: black;
		}
			
		.element_detail_underline {
			stroke: black; 
			stroke-width: 1px;
		}
			
		.element_header {
			fill: black; 
		}
			
		.connector {
			fill: white; 
			stroke: dimgrey; 
			stroke-width: 1px;
		}
		
		.connector_text {
			fill: black; 
		}
		
		.connector_text_background {
			fill: white; 
			stroke: white;
			opacity: 0.9;
		}
		
		.history {
			fill: none;
			stroke: lightgrey;
			stroke-width: 1px;
		}
		 
	]]>
</style>


<line x1="735" y1="418" x2="742" y2="437" class="connector"/>
<line x1="751" y1="419" x2="742" y2="437" class="connector"/>


		<polygon points="735,418 751,419 742,437" class="connector"/>
	

<line x1="750" y1="317" x2="743" y2="418" class="connector"/>




<line x1="740" y1="281" x2="750" y2="298" class="connector"/>
<line x1="755" y1="279" x2="750" y2="298" class="connector"/>


		<polygon points="740,281 755,279 750,298" class="connector"/>
	

<line x1="735" y1="174" x2="748" y2="280" class="connector"/>




<line x1="693" y1="155" x2="713" y2="155" class="connector"/>
<line x1="699" y1="141" x2="713" y2="155" class="connector"/>


		<polygon points="693,155 699,141 713,155" class="connector"/>
	

<line x1="570" y1="91" x2="696" y2="148" class="connector"/>




<line x1="489" y1="79" x2="508" y2="74" class="connector"/>
<line x1="491" y1="64" x2="508" y2="74" class="connector"/>


		<polygon points="489,79 491,64 508,74" class="connector"/>
	

<line x1="347" y1="45" x2="490" y2="71" class="connector"/>




<line x1="276" y1="63" x2="289" y2="48" class="connector"/>
<line x1="269" y1="49" x2="289" y2="48" class="connector"/>


		<polygon points="276,63 269,49 289,48" class="connector"/>
	

<line x1="148" y1="122" x2="272" y2="56" class="connector"/>




<line x1="121" y1="161" x2="125" y2="141" class="connector"/>
<line x1="108" y1="153" x2="125" y2="141" class="connector"/>


		<polygon points="121,161 108,153 125,141" class="connector"/>
	

<line x1="54" y1="258" x2="115" y2="157" class="connector"/>




<line x1="64" y1="292" x2="51" y2="277" class="connector"/>
<line x1="50" y1="297" x2="51" y2="277" class="connector"/>


		<polygon points="64,292 50,297 51,277" class="connector"/>
	

<line x1="91" y1="399" x2="57" y2="294" class="connector"/>




<line x1="129" y1="422" x2="109" y2="418" class="connector"/>
<line x1="120" y1="435" x2="109" y2="418" class="connector"/>


		<polygon points="129,422 120,435 109,418" class="connector"/>
	

<line x1="237" y1="501" x2="125" y2="428" class="connector"/>




<line x1="307" y1="517" x2="287" y2="520" class="connector"/>
<line x1="302" y1="532" x2="287" y2="520" class="connector"/>


		<polygon points="307,517 302,532 287,520" class="connector"/>
	

<line x1="430" y1="559" x2="304" y2="525" class="connector"/>


	

<rect name="TestClass" x="705" y="437" width="73" height="19" rx="2" class="element"/>
<line x1="705" y1="456" x2="778" y2="456" class="element"/>


<text x="710" y="452" font-size="14" class="element_header">TestClass</text>
	

<rect name="TestClass2" x="711" y="298" width="81" height="19" rx="2" class="element"/>
<line x1="711" y1="317" x2="792" y2="317" class="element"/>


<text x="716" y="313" font-size="14" class="element_header">TestClass2</text>
	

<rect name="TestClass3" x="694" y="155" width="81" height="19" rx="2" class="element"/>
<line x1="694" y1="174" x2="775" y2="174" class="element"/>


<text x="699" y="170" font-size="14" class="element_header">TestClass3</text>
	

<rect name="TestClass4" x="508" y="72" width="81" height="19" rx="2" class="element"/>
<line x1="508" y1="91" x2="589" y2="91" class="element"/>


<text x="513" y="87" font-size="14" class="element_header">TestClass4</text>
	

<rect name="TestClass5" x="266" y="29" width="81" height="19" rx="2" class="element"/>
<line x1="266" y1="48" x2="347" y2="48" class="element"/>


<text x="271" y="44" font-size="14" class="element_header">TestClass5</text>
	

<rect name="TestClass6" x="90" y="122" width="81" height="19" rx="2" class="element"/>
<line x1="90" y1="141" x2="171" y2="141" class="element"/>


<text x="95" y="137" font-size="14" class="element_header">TestClass6</text>
	

<rect name="TestClass7" x="8" y="258" width="81" height="19" rx="2" class="element"/>
<line x1="8" y1="277" x2="89" y2="277" class="element"/>


<text x="13" y="273" font-size="14" class="element_header">TestClass7</text>
	

<rect name="TestClass8" x="54" y="399" width="81" height="19" rx="2" class="element"/>
<line x1="54" y1="418" x2="135" y2="418" class="element"/>


<text x="59" y="414" font-size="14" class="element_header">TestClass8</text>
	

<rect name="TestClass9" x="211" y="501" width="81" height="19" rx="2" class="element"/>
<line x1="211" y1="520" x2="292" y2="520" class="element"/>


<text x="216" y="516" font-size="14" class="element_header">TestClass9</text>
	

<rect name="TestClass10" x="420" y="559" width="89" height="19" rx="2" class="element"/>
<line x1="420" y1="578" x2="509" y2="578" class="element"/>


<text x="425" y="574" font-size="14" class="element_header">TestClass10</text>
<rect x="0" y="0" width="800" height="21" rx="2" class="header"/>
<text x="6" y="17" font-size="16" class="header_text">Test Model</text>
	

<rect x="0" 
	y="586" 
	width="800" 
	height="14" 
	class="footer"/>
	
<text x="5" 
	y="597" 
	font-size="10" 
	class="footer_text">Created by ModSL in 962 milliseconds (20, 331, 611). Layout (572.03735,575.49084) -> Final (800.0,600.0).</text>

</svg>

