<?xml version="1.0"?>
<!DOCTYPE svg PUBLIC "-//W3C//DTD SVG 1.1//EN" "http://www.w3.org/Graphics/SVG/1.1/DTD/svg11.dtd">

<svg xmlns="http://www.w3.org/2000/svg" width="800" height="600">
<defs>
	<linearGradient id="header_gradient" x1="10%" y1="50%" x2="100%" y2="100%">
		<stop offset="0%" style="stop-color:white; stop-opacity:1"/>
		<stop offset="100%" style="stop-color:lightsteelblue; stop-opacity:0.5"/>
	</linearGradient>
	<linearGradient id="element_gradient" x1="30%" y1="0%" x2="100%" y2="100%">
		<stop offset="0%" style="stop-color:white;stop-opacity:1"/>
		<stop offset="100%" style="stop-color:lightsteelblue;stop-opacity:1"/>
	</linearGradient>
</defs>
		
<style type="text/css">
	<![CDATA[ 
		
		* {
			font-family: Tahoma, Verdana, Arial;
		} 
			
		.header {
			fill:url(#header_gradient);
		}
			
		.header_text {
			fill: black;
		}
			
		.footer {
			fill: none; 
		}
			
		.footer_text {
			fill: grey; 
		}
			
		.element {
			fill: url(#element_gradient); 
			stroke: midnightblue; 
			stroke-width: 1px;
			opacity: 0.75;
		}
			
		.element_detail {
			fill: black;
		}
			
		.element_detail_underline {
			stroke: black; 
			stroke-width: 1px;
		}
			
		.element_header {
			fill: black; 
		}
			
		.connector {
			fill: white; 
			stroke: dimgrey; 
			stroke-width: 1px;
		}
		
		.connector_text {
			fill: black; 
		}
		
		.connector_text_background {
			fill: white; 
			stroke: white;
			opacity: 0.9;
		}
		
		.history {
			fill: none;
			stroke: lightgrey;
			stroke-width: 1px;
		}
		 
	]]>
</style>


<line x1="742" y1="419" x2="749" y2="438" class="connector"/>
<line x1="757" y1="420" x2="749" y2="438" class="connector"/>


		<polygon points="742,419 757,420 749,438" class="connector"/>
	

<line x1="755" y1="319" x2="750" y2="419" class="connector"/>




<line x1="744" y1="282" x2="755" y2="300" class="connector"/>
<line x1="759" y1="280" x2="755" y2="300" class="connector"/>


		<polygon points="744,282 759,280 755,300" class="connector"/>
	

<line x1="735" y1="177" x2="752" y2="281" class="connector"/>




<line x1="701" y1="153" x2="720" y2="158" class="connector"/>
<line x1="710" y1="141" x2="720" y2="158" class="connector"/>


		<polygon points="701,153 710,141 720,158" class="connector"/>
	

<line x1="595" y1="69" x2="705" y2="147" class="connector"/>




<line x1="528" y1="62" x2="547" y2="56" class="connector"/>
<line x1="529" y1="47" x2="547" y2="56" class="connector"/>


		<polygon points="528,62 529,47 547,56" class="connector"/>
	

<line x1="360" y1="41" x2="528" y2="55" class="connector"/>




<line x1="291" y1="62" x2="304" y2="48" class="connector"/>
<line x1="284" y1="48" x2="304" y2="48" class="connector"/>


		<polygon points="291,62 284,48 304,48" class="connector"/>
	

<line x1="157" y1="116" x2="287" y2="55" class="connector"/>




<line x1="126" y1="154" x2="130" y2="135" class="connector"/>
<line x1="113" y1="145" x2="130" y2="135" class="connector"/>


		<polygon points="126,154 113,145 130,135" class="connector"/>
	

<line x1="50" y1="249" x2="119" y2="150" class="connector"/>




<line x1="57" y1="284" x2="45" y2="268" class="connector"/>
<line x1="42" y1="287" x2="45" y2="268" class="connector"/>


		<polygon points="57,284 42,287 45,268" class="connector"/>
	

<line x1="77" y1="392" x2="50" y2="286" class="connector"/>




<line x1="122" y1="411" x2="102" y2="411" class="connector"/>
<line x1="116" y1="425" x2="102" y2="411" class="connector"/>


		<polygon points="122,411 116,425 102,411" class="connector"/>
	

<line x1="251" y1="473" x2="119" y2="418" class="connector"/>




<line x1="313" y1="493" x2="293" y2="492" class="connector"/>
<line x1="306" y1="507" x2="293" y2="492" class="connector"/>


		<polygon points="313,493 306,507 293,492" class="connector"/>
	

<line x1="430" y1="559" x2="310" y2="500" class="connector"/>


	

<rect name="TestClass" x="716" y="438" width="63" height="19" rx="2" class="element"/>
<line x1="716" y1="457" x2="779" y2="457" class="element"/>


<text x="721" y="453" font-size="14" class="element_header">TestClass</text>
	

<rect name="TestClass2" x="721" y="300" width="71" height="19" rx="2" class="element"/>
<line x1="721" y1="319" x2="792" y2="319" class="element"/>


<text x="726" y="315" font-size="14" class="element_header">TestClass2</text>
	

<rect name="TestClass3" x="698" y="158" width="71" height="19" rx="2" class="element"/>
<line x1="698" y1="177" x2="769" y2="177" class="element"/>


<text x="703" y="173" font-size="14" class="element_header">TestClass3</text>
	

<rect name="TestClass4" x="547" y="50" width="71" height="19" rx="2" class="element"/>
<line x1="547" y1="69" x2="618" y2="69" class="element"/>


<text x="552" y="65" font-size="14" class="element_header">TestClass4</text>
	

<rect name="TestClass5" x="289" y="29" width="71" height="19" rx="2" class="element"/>
<line x1="289" y1="48" x2="360" y2="48" class="element"/>


<text x="294" y="44" font-size="14" class="element_header">TestClass5</text>
	

<rect name="TestClass6" x="101" y="116" width="71" height="19" rx="2" class="element"/>
<line x1="101" y1="135" x2="172" y2="135" class="element"/>


<text x="106" y="131" font-size="14" class="element_header">TestClass6</text>
	

<rect name="TestClass7" x="8" y="249" width="71" height="19" rx="2" class="element"/>
<line x1="8" y1="268" x2="79" y2="268" class="element"/>


<text x="13" y="264" font-size="14" class="element_header">TestClass7</text>
	

<rect name="TestClass8" x="43" y="392" width="71" height="19" rx="2" class="element"/>
<line x1="43" y1="411" x2="114" y2="411" class="element"/>


<text x="48" y="407" font-size="14" class="element_header">TestClass8</text>
	

<rect name="TestClass9" x="238" y="473" width="71" height="19" rx="2" class="element"/>
<line x1="238" y1="492" x2="309" y2="492" class="element"/>


<text x="243" y="488" font-size="14" class="element_header">TestClass9</text>
	

<rect name="TestClass10" x="410" y="559" width="79" height="19" rx="2" class="element"/>
<line x1="410" y1="578" x2="489" y2="578" class="element"/>


<text x="415" y="574" font-size="14" class="element_header">TestClass10</text>
<rect x="0" y="0" width="800" height="21" rx="2" class="header"/>
<text x="6" y="17" font-size="16" class="header_text">Test Model</text>
	
<rect x="0" y="586" width="800" height="14" class="footer"/>
<text x="5" y="589" font-size="10" class="footer_text">Created by ModSL in 952 milliseconds (10, 341, 601). Layout (559.20215,574.9954) -> Final (800.0,600.0).</text>

</svg>

