<?xml version="1.0"?>
<!DOCTYPE svg PUBLIC "-//W3C//DTD SVG 1.1//EN" "http://www.w3.org/Graphics/SVG/1.1/DTD/svg11.dtd">

<svg xmlns="http://www.w3.org/2000/svg" width="800" height="600">
<defs>
	<linearGradient id="header_gradient" x1="10%" y1="50%" x2="100%" y2="100%">
		<stop offset="0%" style="stop-color:white; stop-opacity:1"/>
		<stop offset="100%" style="stop-color:lightsteelblue; stop-opacity:0.5"/>
	</linearGradient>
	<linearGradient id="element_gradient" x1="30%" y1="0%" x2="100%" y2="100%">
		<stop offset="0%" style="stop-color:white;stop-opacity:1"/>
		<stop offset="100%" style="stop-color:lightsteelblue;stop-opacity:1"/>
	</linearGradient>
</defs>
		
<style type="text/css">
	<![CDATA[ 
		
		* {
			font-family: Tahoma;
		} 
			
		.header {
			fill:url(#header_gradient);
		}
			
		.header_text {
			fill: black;
		}
			
		.footer {
			fill: none; 
		}
			
		.footer_text {
			fill: grey; 
		}
			
		.element {
			fill: url(#element_gradient); 
			stroke: midnightblue; 
			stroke-width: 1px;
			opacity: 0.75;
		}
			
		.element_detail {
			fill: black;
		}
			
		.element_detail_underline {
			stroke: black; 
			stroke-width: 1px;
		}
			
		.element_header {
			fill: black; 
		}
			
		.connector {
			fill: white; 
			stroke: dimgrey; 
			stroke-width: 1px;
		}
		
		.connector_text {
			fill: black; 
		}
		
		.connector_text_background {
			fill: white; 
			stroke: white;
			opacity: 0.9;
		}
		
		.history {
			fill: none;
			stroke: lightgrey;
			stroke-width: 1px;
		}
		 
	]]>
</style>


<line x1="732" y1="414" x2="748" y2="426" class="connector"/>
<line x1="745" y1="406" x2="748" y2="426" class="connector"/>


		<polygon points="732,414 745,406 748,426" 
			class="connector"/>
	

<line x1="689" y1="330" x2="739" y2="410" class="connector"/>




<line x1="687" y1="277" x2="686" y2="297" class="connector"/>
<line x1="700" y1="283" x2="686" y2="297" class="connector"/>


		<polygon points="687,277 700,283 686,297" 
			class="connector"/>
	

<line x1="733" y1="192" x2="693" y2="280" class="connector"/>




<line x1="696" y1="155" x2="715" y2="159" class="connector"/>
<line x1="704" y1="143" x2="715" y2="159" class="connector"/>


		<polygon points="696,155 704,143 715,159" 
			class="connector"/>
	

<line x1="602" y1="85" x2="700" y2="149" class="connector"/>




<line x1="521" y1="71" x2="540" y2="65" class="connector"/>
<line x1="523" y1="56" x2="540" y2="65" class="connector"/>


		<polygon points="521,71 523,56 540,65" 
			class="connector"/>
	

<line x1="365" y1="51" x2="522" y2="64" class="connector"/>




<line x1="276" y1="76" x2="291" y2="63" class="connector"/>
<line x1="271" y1="62" x2="291" y2="63" class="connector"/>


		<polygon points="276,76 271,62 291,63" 
			class="connector"/>
	

<line x1="158" y1="115" x2="274" y2="69" class="connector"/>




<line x1="109" y1="165" x2="112" y2="146" class="connector"/>
<line x1="96" y1="158" x2="112" y2="146" class="connector"/>


		<polygon points="109,165 96,158 112,146" 
			class="connector"/>
	

<line x1="54" y1="246" x2="103" y2="162" class="connector"/>




<line x1="60" y1="296" x2="48" y2="279" class="connector"/>
<line x1="45" y1="299" x2="48" y2="279" class="connector"/>


		<polygon points="60,296 45,299 48,279" 
			class="connector"/>
	

<line x1="74" y1="387" x2="53" y2="297" class="connector"/>




<line x1="123" y1="423" x2="104" y2="420" class="connector"/>
<line x1="115" y1="436" x2="104" y2="420" class="connector"/>


		<polygon points="123,423 115,436 104,420" 
			class="connector"/>
	

<line x1="213" y1="490" x2="119" y2="430" class="connector"/>




<line x1="295" y1="511" x2="275" y2="515" class="connector"/>
<line x1="292" y1="526" x2="275" y2="515" class="connector"/>


		<polygon points="295,511 292,526 275,515" 
			class="connector"/>
	

<line x1="431" y1="549" x2="293" y2="519" class="connector"/>


	

<rect name="TestClass" x="726" y="426" width="66" height="33" rx="2" class="element"/>
<line x1="726" y1="447" x2="792" y2="447" class="element"/>


<text x="731" y="442" font-size="14" class="element_header">TestClass</text>
	

<rect name="TestClass2" x="642" y="297" width="74" height="33" rx="2" class="element"/>
<line x1="642" y1="318" x2="716" y2="318" class="element"/>


<text x="647" y="313" font-size="14" class="element_header">TestClass2</text>
	

<rect name="TestClass3" x="703" y="159" width="74" height="33" rx="2" class="element"/>
<line x1="703" y1="180" x2="777" y2="180" class="element"/>


<text x="708" y="175" font-size="14" class="element_header">TestClass3</text>
	

<rect name="TestClass4" x="540" y="52" width="74" height="33" rx="2" class="element"/>
<line x1="540" y1="73" x2="614" y2="73" class="element"/>


<text x="545" y="68" font-size="14" class="element_header">TestClass4</text>
	

<rect name="TestClass5" x="291" y="32" width="74" height="33" rx="2" class="element"/>
<line x1="291" y1="53" x2="365" y2="53" class="element"/>


<text x="296" y="48" font-size="14" class="element_header">TestClass5</text>
	

<rect name="TestClass6" x="84" y="113" width="74" height="33" rx="2" class="element"/>
<line x1="84" y1="134" x2="158" y2="134" class="element"/>


<text x="89" y="129" font-size="14" class="element_header">TestClass6</text>
	

<rect name="TestClass7" x="8" y="246" width="74" height="33" rx="2" class="element"/>
<line x1="8" y1="267" x2="82" y2="267" class="element"/>


<text x="13" y="262" font-size="14" class="element_header">TestClass7</text>
	

<rect name="TestClass8" x="41" y="387" width="74" height="33" rx="2" class="element"/>
<line x1="41" y1="408" x2="115" y2="408" class="element"/>


<text x="46" y="403" font-size="14" class="element_header">TestClass8</text>
	

<rect name="TestClass9" x="201" y="490" width="74" height="33" rx="2" class="element"/>
<line x1="201" y1="511" x2="275" y2="511" class="element"/>


<text x="206" y="506" font-size="14" class="element_header">TestClass9</text>
	

<rect name="TestClass10" x="431" y="542" width="82" height="33" rx="2" class="element"/>
<line x1="431" y1="563" x2="513" y2="563" class="element"/>


<text x="436" y="558" font-size="14" class="element_header">TestClass10</text>
<rect x="0" y="0" width="800" height="24" rx="2" class="header"/>
<text x="6" y="18" font-size="16" class="header_text">Test Model</text>
	

<rect x="0" 
	y="587" 
	width="800" 
	height="13" 
	class="footer"/>
	
<text x="5" 
	y="595" 
	font-size="10" 
	class="footer_text">Created by ModSL in 661 milliseconds (10, 101, 550). Layout (570.31067,590.7084) -> Final (800.0,600.0).</text>

</svg>

