<?xml version="1.0"?>
<!DOCTYPE svg PUBLIC "-//W3C//DTD SVG 1.1//EN" "http://www.w3.org/Graphics/SVG/1.1/DTD/svg11.dtd">

<svg xmlns="http://www.w3.org/2000/svg" width="800" height="600">
<defs>
	<linearGradient id="header_gradient" x1="10%" y1="50%" x2="100%" y2="100%">
		<stop offset="0%" style="stop-color:white; stop-opacity:1"/>
		<stop offset="100%" style="stop-color:lightsteelblue; stop-opacity:0.5"/>
	</linearGradient>
	<linearGradient id="element_gradient" x1="30%" y1="0%" x2="100%" y2="100%">
		<stop offset="0%" style="stop-color:white;stop-opacity:1"/>
		<stop offset="100%" style="stop-color:lightsteelblue;stop-opacity:1"/>
	</linearGradient>
</defs>
		
<style type="text/css">
	<![CDATA[ 
		
		* {
			font-family: Tahoma, Verdana, Arial;
		} 
			
		.header {
			fill:url(#header_gradient);
		}
			
		.header_text {
			fill: black;
		}
			
		.footer {
			fill: none; 
		}
			
		.footer_text {
			fill: grey; 
		}
			
		.element {
			fill: url(#element_gradient); 
			stroke: midnightblue; 
			stroke-width: 1px;
			opacity: 0.75;
		}
			
		.element_detail {
			fill: black;
		}
			
		.element_detail_underline {
			stroke: black; 
			stroke-width: 1px;
		}
			
		.element_header {
			fill: black; 
		}
			
		.connector {
			fill: white; 
			stroke: dimgrey; 
			stroke-width: 1px;
		}
		
		.connector_text {
			fill: black; 
		}
		
		.connector_text_background {
			fill: white; 
			stroke: white;
			opacity: 0.9;
		}
		
		.history {
			fill: none;
			stroke: lightgrey;
			stroke-width: 1px;
		}
		 
	]]>
</style>


<line x1="719" y1="400" x2="738" y2="407" class="connector"/>
<line x1="730" y1="389" x2="738" y2="407" class="connector"/>


		<polygon points="719,400 730,389 738,407" class="connector"/>
	

<line x1="648" y1="324" x2="724" y2="395" class="connector"/>




<line x1="644" y1="272" x2="641" y2="292" class="connector"/>
<line x1="657" y1="280" x2="641" y2="292" class="connector"/>


		<polygon points="644,272 657,280 641,292" class="connector"/>
	

<line x1="703" y1="190" x2="651" y2="276" class="connector"/>




<line x1="671" y1="153" x2="691" y2="158" class="connector"/>
<line x1="680" y1="141" x2="691" y2="158" class="connector"/>


		<polygon points="671,153 680,141 691,158" class="connector"/>
	

<line x1="585" y1="80" x2="676" y2="147" class="connector"/>




<line x1="504" y1="68" x2="522" y2="62" class="connector"/>
<line x1="504" y1="53" x2="522" y2="62" class="connector"/>


		<polygon points="504,68 504,53 522,62" class="connector"/>
	

<line x1="355" y1="53" x2="504" y2="61" class="connector"/>




<line x1="265" y1="81" x2="279" y2="67" class="connector"/>
<line x1="259" y1="67" x2="279" y2="67" class="connector"/>


		<polygon points="265,81 259,67 279,67" class="connector"/>
	

<line x1="160" y1="120" x2="262" y2="74" class="connector"/>




<line x1="113" y1="172" x2="115" y2="152" class="connector"/>
<line x1="100" y1="164" x2="115" y2="152" class="connector"/>


		<polygon points="113,172 100,164 115,152" class="connector"/>
	

<line x1="57" y1="253" x2="106" y2="168" class="connector"/>




<line x1="65" y1="301" x2="52" y2="285" class="connector"/>
<line x1="50" y1="305" x2="52" y2="285" class="connector"/>


		<polygon points="65,301 50,305 52,285" class="connector"/>
	

<line x1="82" y1="392" x2="57" y2="303" class="connector"/>




<line x1="135" y1="426" x2="115" y2="424" class="connector"/>
<line x1="128" y1="439" x2="115" y2="424" class="connector"/>


		<polygon points="135,426 128,439 115,424" class="connector"/>
	

<line x1="227" y1="485" x2="131" y2="433" class="connector"/>




<line x1="317" y1="508" x2="297" y2="511" class="connector"/>
<line x1="313" y1="523" x2="297" y2="511" class="connector"/>


		<polygon points="317,508 313,523 297,511" class="connector"/>
	

<line x1="440" y1="546" x2="315" y2="515" class="connector"/>


	

<rect name="TestClass" x="719" y="407" width="73" height="32" rx="2" class="element"/>
<line x1="719" y1="430" x2="792" y2="430" class="element"/>


<text x="724" y="423" font-size="14" class="element_header">TestClass</text>
	

<rect name="TestClass2" x="591" y="292" width="81" height="32" rx="2" class="element"/>
<line x1="591" y1="315" x2="672" y2="315" class="element"/>


<text x="596" y="308" font-size="14" class="element_header">TestClass2</text>
	

<rect name="TestClass3" x="672" y="158" width="81" height="32" rx="2" class="element"/>
<line x1="672" y1="181" x2="753" y2="181" class="element"/>


<text x="677" y="174" font-size="14" class="element_header">TestClass3</text>
	

<rect name="TestClass4" x="522" y="48" width="81" height="32" rx="2" class="element"/>
<line x1="522" y1="71" x2="603" y2="71" class="element"/>


<text x="527" y="64" font-size="14" class="element_header">TestClass4</text>
	

<rect name="TestClass5" x="274" y="35" width="81" height="32" rx="2" class="element"/>
<line x1="274" y1="58" x2="355" y2="58" class="element"/>


<text x="279" y="51" font-size="14" class="element_header">TestClass5</text>
	

<rect name="TestClass6" x="84" y="120" width="81" height="32" rx="2" class="element"/>
<line x1="84" y1="143" x2="165" y2="143" class="element"/>


<text x="89" y="136" font-size="14" class="element_header">TestClass6</text>
	

<rect name="TestClass7" x="8" y="253" width="81" height="32" rx="2" class="element"/>
<line x1="8" y1="276" x2="89" y2="276" class="element"/>


<text x="13" y="269" font-size="14" class="element_header">TestClass7</text>
	

<rect name="TestClass8" x="45" y="392" width="81" height="32" rx="2" class="element"/>
<line x1="45" y1="415" x2="126" y2="415" class="element"/>


<text x="50" y="408" font-size="14" class="element_header">TestClass8</text>
	

<rect name="TestClass9" x="216" y="485" width="81" height="32" rx="2" class="element"/>
<line x1="216" y1="508" x2="297" y2="508" class="element"/>


<text x="221" y="501" font-size="14" class="element_header">TestClass9</text>
	

<rect name="TestClass10" x="440" y="541" width="89" height="32" rx="2" class="element"/>
<line x1="440" y1="564" x2="529" y2="564" class="element"/>


<text x="445" y="557" font-size="14" class="element_header">TestClass10</text>
<rect x="0" y="0" width="800" height="27" rx="2" class="header"/>
<text x="6" y="19" font-size="16" class="header_text">Test Model</text>
	
<rect x="0" y="581" width="800" height="19" class="footer"/>
<text x="5" y="593" font-size="10" class="footer_text">Created by ModSL in 982 milliseconds (10, 351, 621). Layout (594.924,594.20703) -> Final (800.0,600.0).</text>

</svg>

